<?xml version="1.0" encoding="UTF-8"?>
<svg width="75px" height="75px" viewBox="0 0 75 75" version="1.1" xmlns="http://www.w3.org/2000/svg" xmlns:xlink="http://www.w3.org/1999/xlink">
    <!-- Generator: Sketch 52.6 (67491) - http://www.bohemiancoding.com/sketch -->
    <title>box_2_05</title>
    <desc>Created with Sketch.</desc>
    <g id="box_2_05" stroke="none" stroke-width="1" fill="none" fill-rule="evenodd">
        <g id="winner" transform="translate(13.000000, 16.000000)" fill="#000000" stroke="#000000">
            <path d="M39.2360352,8.78553125 L10.7639648,8.78553125 C10.359082,8.78553125 10.030957,9.1166851 10.030957,9.52530529 C10.030957,9.93392548 10.359082,10.2650793 10.7639648,10.2650793 L39.2360352,10.2650793 C39.640918,10.2650793 39.969043,9.93392548 39.969043,9.52530529 C39.969043,9.1166851 39.640918,8.78553125 39.2360352,8.78553125 Z" id="Path"></path>
            <path d="M39.2360352,16.8404543 L10.7639648,16.8404543 C10.359082,16.8404543 10.030957,17.1716082 10.030957,17.5802284 C10.030957,17.98875 10.359082,18.3200024 10.7639648,18.3200024 L39.2360352,18.3200024 C39.640918,18.3200024 39.969043,17.9888486 39.969043,17.5802284 C39.969043,17.1716082 39.640918,16.8404543 39.2360352,16.8404543 Z" id="Path"></path>
            <path d="M29.9016602,22.0679543 L20.0983398,22.0679543 C19.693457,22.0679543 19.365332,22.3991082 19.365332,22.8077284 C19.365332,23.21625 19.693457,23.5475024 20.0983398,23.5475024 L29.9016602,23.5475024 C30.306543,23.5475024 30.634668,23.2163486 30.634668,22.8077284 C30.634668,22.3991082 30.306543,22.0679543 29.9016602,22.0679543 Z" id="Path"></path>
            <path d="M39.2360352,12.7965337 L17.9983398,12.7965337 C17.593457,12.7965337 17.265332,13.1276875 17.265332,13.5363077 C17.265332,13.9448293 17.593457,14.2760817 17.9983398,14.2760817 L39.2360352,14.2760817 C39.640918,14.2760817 39.969043,13.9449279 39.969043,13.5363077 C39.969043,13.1276875 39.640918,12.7965337 39.2360352,12.7965337 Z" id="Path"></path>
            <path d="M14.5879883,12.7964351 L10.7639648,12.7964351 C10.359082,12.7964351 10.030957,13.1275889 10.030957,13.5362091 C10.030957,13.9448293 10.359082,14.2759832 10.7639648,14.2759832 L14.5879883,14.2759832 C14.9928711,14.2759832 15.3209961,13.9448293 15.3209961,13.5362091 C15.3209961,13.1276875 14.9928711,12.7964351 14.5879883,12.7964351 Z" id="Path"></path>
            <path d="M46.215918,7.53522837 C46.0454102,7.36620192 45.8197266,7.27316346 45.5790039,7.27316346 C45.5788086,7.27316346 45.5787109,7.27316346 45.5785156,7.27316346 C44.0928711,7.27316346 42.8769531,6.10111538 42.8100586,4.60441827 C42.7880859,4.11774038 42.3917969,3.73661779 41.9079102,3.73661779 L7.91767578,3.73661779 C7.43369141,3.73661779 7.03730469,4.11783894 7.01542969,4.60491106 C6.95166016,6.03508173 5.79160156,7.20594712 4.37441406,7.27030529 C3.89199219,7.2921851 3.51416016,7.69223077 3.51416016,8.18087981 L3.51416016,27.3031418 C3.51416016,27.7917909 3.89199219,28.191738 4.37441406,28.2136178 C5.79160156,28.2780745 6.95166016,29.4488413 7.01542969,30.8795048 C7.03740234,31.3661827 7.43378906,31.7473053 7.91767578,31.7473053 L29.5560547,31.7473053 C29.9609375,31.7473053 30.2890625,31.4161514 30.2890625,31.0075312 C30.2890625,30.5990096 29.9609375,30.2677572 29.5560547,30.2677572 L8.42177734,30.2677572 C8.11875,28.4859327 6.74560547,27.100113 4.98007813,26.7941899 L4.98007813,8.68953606 C6.74560547,8.38371154 8.11875,6.99759615 8.42177734,5.21606731 L41.4041016,5.21606731 C41.7195312,7.05416827 43.1858398,8.47300481 45.0199219,8.71585096 L45.0199219,21.2789014 C45.0199219,21.6874231 45.3480469,22.0186755 45.7529297,22.0186755 C46.1578125,22.0186755 46.4859375,21.6875216 46.4859375,21.2789014 L46.4859375,8.18501923 C46.4859375,7.93872356 46.3900391,7.70790144 46.215918,7.53522837 Z" id="Path"></path>
            <path d="M47.965332,0.0438581731 L2.03466797,0.0438581731 C0.912792969,0.0438581731 0,0.965076923 0,2.09730769 L0,33.3864183 C0,34.5187476 0.912792969,35.4398678 2.03466797,35.4398678 L32.8010742,35.4398678 L31.7118164,37.7434567 C31.571875,38.0392284 31.605957,38.3860529 31.8004883,38.6484135 C31.9951172,38.9108726 32.315332,39.0412644 32.6357422,38.9895216 L34.6636719,38.6605361 L35.7948242,40.5344135 C35.953418,40.7973654 36.2352539,40.9560433 36.5380859,40.9560433 C36.552832,40.9560433 36.5676758,40.955649 36.5825195,40.9548606 C36.9020508,40.9385 37.1861328,40.7472981 37.3241211,40.4557644 L39.2895508,36.2992909 L41.2547852,40.4554688 C41.3924805,40.7470024 41.6765625,40.9384014 41.9961914,40.9549591 C42.0111328,40.9557476 42.0261719,40.9561418 42.0410156,40.9561418 C42.3438477,40.9561418 42.6256836,40.7974639 42.7842773,40.5346106 L43.9154297,38.6607332 L45.9433594,38.9898173 C46.2647461,39.0416587 46.584375,38.9108726 46.7788086,38.6483149 C46.9733398,38.3857572 47.0071289,38.0390313 46.8671875,37.7437524 L45.7779297,35.4401635 L47.965332,35.4401635 C49.087207,35.4401635 50,34.5190433 50,33.3867139 L50,2.09730769 C50,0.965076923 49.087207,0.0438581731 47.965332,0.0438581731 Z M36.474707,38.8169471 L35.7074219,37.5460457 C35.5226563,37.2399255 35.1767578,37.0788822 34.8257812,37.13575 L33.5236328,37.3470577 L34.8953125,34.4463077 C35.4359375,35.0030601 36.2061523,35.3038582 37.0056641,35.2278702 C37.2790039,35.2014567 37.5530273,35.2757692 37.7769531,35.4363197 C37.8507812,35.4893437 37.9274414,35.5363558 38.0050781,35.5807067 L36.474707,38.8169471 Z M39.4643555,34.4303413 C39.4621094,34.430637 39.4598633,34.4308341 39.4575195,34.4312284 C39.3463867,34.4477861 39.2333984,34.4477861 39.1222656,34.4313269 C39.1194336,34.4309327 39.1166016,34.430637 39.1138672,34.4302428 C38.9416992,34.4033365 38.7743164,34.3368101 38.6260742,34.2304663 C38.1827148,33.9123221 37.6533203,33.7431971 37.1132813,33.7431971 C37.0314453,33.7431971 36.9494141,33.7471394 36.8673828,33.7549255 C36.3821289,33.801149 35.9210938,33.5321851 35.7185547,33.0855216 C35.6286133,32.8872236 35.5138672,32.7037091 35.3806641,32.5358654 C35.3748047,32.527488 35.3683594,32.5196034 35.362207,32.5115216 C35.3547852,32.5024543 35.3478516,32.4930913 35.3404297,32.4841226 C35.3319336,32.4740697 35.3230469,32.4645096 35.3139648,32.4549495 C35.071582,32.1734687 34.7720703,31.9436322 34.430957,31.786137 C33.9882813,31.5817284 33.7217773,31.1157476 33.7676758,30.6266058 C33.8266602,29.9972163 33.659375,29.3668413 33.2964844,28.8516803 C33.0143555,28.4512404 33.0143555,27.9132139 33.2963867,27.512774 C33.659375,26.997613 33.8266602,26.367238 33.7676758,25.7378486 C33.7217773,25.2487067 33.9883789,24.782726 34.430957,24.5783173 C35.0005859,24.3152668 35.4578125,23.8538197 35.718457,23.2789327 C35.9210938,22.8321707 36.3837891,22.5631082 36.8673828,22.6095288 C37.4916992,22.6689591 38.1157227,22.5001298 38.6261719,22.1338894 C39.0230469,21.8492548 39.5561523,21.8492548 39.952832,22.1338894 C40.4633789,22.5001298 41.0875,22.6685649 41.7116211,22.6095288 C42.1966797,22.5630096 42.6581055,22.8322692 42.8606445,23.2789327 C43.1212891,23.8538197 43.5785156,24.3152668 44.1480469,24.5782188 C44.5907227,24.782726 44.8573242,25.2487067 44.8114258,25.73775 C44.7524414,26.367238 44.9197266,26.997613 45.2826172,27.5126755 C45.5647461,27.9131154 45.5647461,28.4511418 45.2826172,28.8515817 C44.9197266,29.3668413 44.7524414,29.9972163 44.8114258,30.6265072 C44.8573242,31.115649 44.5907227,31.5816298 44.1479492,31.786137 C43.8076172,31.9433365 43.5087891,32.1725817 43.2666992,32.4531755 C43.2567383,32.4636226 43.2469727,32.4741683 43.237793,32.4851082 C43.2314453,32.4927957 43.2254883,32.5007788 43.2191406,32.5085649 C43.2118164,32.5180264 43.2043945,32.5272909 43.1975586,32.5370481 C43.0647461,32.7045962 42.950293,32.8877163 42.8606445,33.0855216 C42.6580078,33.5321851 42.1962891,33.8013462 41.7116211,33.7549255 C41.0885742,33.6956923 40.4635742,33.864226 39.952832,34.2304663 C39.8043945,34.3369087 39.6368164,34.4035337 39.4643555,34.4303413 Z M43.7532227,37.1356514 C43.4021484,37.0789808 43.0564453,37.2399255 42.871582,37.5461442 L42.1043945,38.8170457 L40.5740234,35.5807067 C40.6516602,35.5363558 40.7282227,35.4893437 40.8021484,35.4363197 C41.0261719,35.2756707 41.3003906,35.2011611 41.5734375,35.2277716 C42.3732422,35.3038582 43.1432617,35.0030601 43.6838867,34.4463077 L45.0554688,37.3469591 L43.7532227,37.1356514 Z M48.534082,33.3865168 C48.534082,33.7029856 48.2790039,33.9605168 47.965332,33.9605168 L45.0783203,33.9605168 L44.7003906,33.1612139 C44.7194336,33.1510625 44.7383789,33.1404183 44.7581055,33.131351 C45.7674805,32.6650745 46.3753906,31.6024255 46.2708008,30.4871466 C46.2449219,30.2111851 46.3182617,29.9347308 46.4774414,29.708738 C47.1206055,28.795601 47.1206055,27.5685577 46.4773438,26.6554207 C46.3182617,26.4295264 46.2449219,26.1531707 46.2708008,25.8771106 C46.3753906,24.7618317 45.7674805,23.6991827 44.7580078,23.2329062 C44.5083008,23.1174952 44.3078125,22.9151562 44.193457,22.6631442 C43.731543,21.6443534 42.678125,21.0310288 41.5733398,21.1364856 C41.299707,21.1628005 41.0259766,21.0885865 40.8021484,20.9279375 C39.8973633,20.2788365 38.6814453,20.278738 37.7767578,20.9279375 C37.552832,21.0885865 37.2783203,21.1628005 37.0055664,21.136387 C35.8991211,21.0313245 34.8473633,21.6443534 34.3855469,22.6630457 C34.2711914,22.9151562 34.0707031,23.1173966 33.8208984,23.2328077 C32.8115234,23.6990841 32.2036133,24.7616346 32.3082031,25.877012 C32.334082,26.1530721 32.2607422,26.4294279 32.1015625,26.6554207 C31.4583984,27.5685577 31.4583984,28.795601 32.1015625,29.7086394 C32.2607422,29.9345337 32.334082,30.210988 32.3082031,30.4870481 C32.2036133,31.6024255 32.8115234,32.6650745 33.8208984,33.1312524 C33.840625,33.1403197 33.8594727,33.1509639 33.8785156,33.1611154 L33.5005859,33.9605168 L2.03466797,33.9605168 C1.72109375,33.9605168 1.46591797,33.7030841 1.46591797,33.3865168 L1.46591797,2.09730769 C1.46591797,1.78083894 1.72099609,1.52330769 2.03466797,1.52330769 L47.965332,1.52330769 C48.2789063,1.52330769 48.534082,1.78083894 48.534082,2.09730769 L48.534082,33.3865168 Z" id="Shape" fill-rule="nonzero"></path>
            <path d="M39.2360352,23.5860385 C36.7249023,23.5860385 34.6819336,25.6478654 34.6819336,28.1820793 C34.6819336,30.7163918 36.7249023,32.7782188 39.2360352,32.7782188 C41.747168,32.7782188 43.7900391,30.7162933 43.7900391,28.1820793 C43.7900391,25.6477668 41.747168,23.5860385 39.2360352,23.5860385 Z M39.2360352,31.2986707 C37.5332031,31.2986707 36.1478516,29.9005313 36.1478516,28.1819808 C36.1478516,26.4635288 37.5332031,25.0653894 39.2360352,25.0653894 C40.9387695,25.0653894 42.3241211,26.4635288 42.3241211,28.1819808 C42.3241211,29.9005313 40.9387695,31.2986707 39.2360352,31.2986707 Z" id="Shape" fill-rule="nonzero"></path>
        </g>
    </g>
</svg>
