<?xml version="1.0" encoding="UTF-8"?>
<svg width="60px" height="60px" viewBox="0 0 60 60" version="1.1" xmlns="http://www.w3.org/2000/svg" xmlns:xlink="http://www.w3.org/1999/xlink">
    <!-- Generator: Sketch 52.6 (67491) - http://www.bohemiancoding.com/sketch -->
    <title>box_01</title>
    <desc>Created with Sketch.</desc>
    <g id="box_01" stroke="none" stroke-width="1" fill="none" fill-rule="evenodd">
        <path d="M30.4937714,24.9040462 L30.4937714,11.9078086 C30.4937714,9.53294547 35.7185765,8.45346221 40.5767286,8.45346221 C45.4348806,8.45346221 50.6596857,9.53294547 50.6596857,11.9078086 L50.6596857,32.6338872 C50.6596857,34.8268384 46.2046535,35.9152586 41.6970571,36.0691353 L41.6970571,34.342091 C46.3223958,34.1828387 48.6988503,33.0637812 48.8264208,32.6230924 L48.8264208,31.2737383 C47.1138371,32.0899672 44.418095,32.5223396 41.6970571,32.6148764 L41.6970571,30.8877446 C46.3223958,30.7284923 48.6988503,29.6094348 48.8264208,29.1687459 L48.8264208,27.8193919 C47.1138371,28.6356208 44.418095,29.0679932 41.6970571,29.1605299 L41.6970571,28.3392943 C41.6970571,28.0163097 41.6004172,27.7172849 41.4212028,27.4416768 C46.2279323,27.3184805 48.6963383,26.1637662 48.8264208,25.7143995 L48.8264208,24.3650454 C46.8785768,25.293401 43.6589052,25.7251943 40.5767286,25.7251943 C39.7790788,25.7251943 38.9722203,25.6962752 38.1805804,25.6373143 C36.9582138,25.3049585 35.5165149,25.0859661 34.0215736,24.973924 C33.3908603,24.801879 32.8184703,24.5992661 32.3270364,24.3650454 L32.3270364,24.8926794 C32.0889511,24.8875167 31.8510893,24.8849479 31.6141,24.8849479 C31.2419708,24.8849479 30.8676902,24.8912817 30.4937714,24.9040462 Z M48.8264208,22.2600531 L48.8264208,20.910699 C46.8785768,21.8390546 43.6589052,22.2708479 40.5767286,22.2708479 C37.4945519,22.2708479 34.2748804,21.8390546 32.3270364,20.910699 L32.3270364,22.2708479 C32.4645312,22.7350257 35.2144286,23.9980211 40.5767286,23.9980211 C45.9390285,23.9980211 48.6889259,22.7350257 48.8264208,22.2600531 Z M48.8264208,18.8057067 L48.8264208,17.4563526 C46.8785768,18.3847082 43.6589052,18.8165015 40.5767286,18.8165015 C37.4945519,18.8165015 34.2748804,18.3739134 32.3270364,17.4563526 L32.3270364,18.8165015 C32.4645312,19.2806793 35.2144286,20.5436747 40.5767286,20.5436747 C45.9390285,20.5436747 48.6889259,19.2806793 48.8264208,18.8057067 Z M48.8264208,15.3513602 L48.8264208,14.0020062 C46.8785768,14.9303618 43.6589052,15.3621551 40.5767286,15.3621551 C37.4945519,15.3621551 34.2748804,14.9195669 32.3270364,14.0020062 L32.3270364,15.3621551 C32.4645312,15.8263329 35.2144286,17.0893283 40.5767286,17.0893283 C45.9390285,17.0893283 48.6889259,15.8263329 48.8264208,15.3513602 Z M40.5767286,13.6349818 C45.8931969,13.6349818 48.6430943,12.3935761 48.8264208,11.9078086 C48.6430943,11.4220412 45.8931969,10.1806354 40.5767286,10.1806354 C35.2258865,10.1806354 32.4759891,11.432836 32.3270364,11.9186035 C32.4759891,12.3827813 35.2258865,13.6349818 40.5767286,13.6349818 Z" id="Combined-Shape" fill="#FFFFFF" fill-rule="nonzero"></path>
        <path d="M22.5311429,38.8085245 C21.2180722,38.9883511 19.8058246,39.0757765 18.4232714,39.0757765 C13.5651194,39.0757765 8.3403143,37.9962932 8.3403143,35.6214301 L8.3403143,14.8953515 C8.3403143,12.5204883 13.5651194,11.4410051 18.4232714,11.4410051 C23.2814235,11.4410051 28.5062286,12.5204883 28.5062286,14.8953515 L28.5062286,25.1521999 C27.7523323,25.255447 27.0311293,25.3891537 26.3670104,25.5542618 C26.5471926,25.4355328 26.6491757,25.3297707 26.6729636,25.2475959 L26.6729636,23.8982419 C24.7251196,24.8265975 21.5054481,25.2583908 18.4232714,25.2583908 C15.3410948,25.2583908 12.1214232,24.8265975 10.1735792,23.8982419 L10.1735792,25.2583908 C10.3110741,25.7225686 13.0609715,26.985564 18.4232714,26.985564 C20.7936435,26.985564 22.6535447,26.7387711 24.0029751,26.4223454 C23.0863091,26.9286719 22.5311429,27.5651622 22.5311429,28.3392943 L22.5311429,28.4456432 C21.2192102,28.625661 19.8073771,28.7127372 18.4232714,28.7127372 C15.3410948,28.7127372 12.1214232,28.2809439 10.1735792,27.3525883 L10.1735792,28.7127372 C10.3110741,29.176915 13.0609715,30.4399104 18.4232714,30.4399104 C20.0259137,30.4399104 21.3952041,30.3270939 22.5311429,30.1562161 L22.5311429,31.8999896 C21.2192102,32.0800075 19.8073771,32.1670836 18.4232714,32.1670836 C15.3410948,32.1670836 12.1214232,31.7352903 10.1735792,30.8069347 L10.1735792,32.1670836 C10.3110741,32.6312614 13.0609715,33.8942568 18.4232714,33.8942568 C20.0259137,33.8942568 21.3952041,33.7814403 22.5311429,33.6105625 L22.5311429,35.3543361 C21.2192102,35.5343539 19.8073771,35.6214301 18.4232714,35.6214301 C15.3410948,35.6214301 12.1214232,35.1896367 10.1735792,34.2612811 L10.1735792,35.6214301 C10.3110741,36.0856079 13.0609715,37.3486033 18.4232714,37.3486033 C20.0259137,37.3486033 21.3952041,37.2357867 22.5311429,37.064909 L22.5311429,38.8085245 Z M26.6729636,21.7932495 L26.6729636,20.4438954 C24.7251196,21.372251 21.5054481,21.8040443 18.4232714,21.8040443 C15.3410948,21.8040443 12.1214232,21.3614562 10.1735792,20.4438954 L10.1735792,21.8040443 C10.3110741,22.2682221 13.0609715,23.5312176 18.4232714,23.5312176 C23.7855714,23.5312176 26.5354688,22.2682221 26.6729636,21.7932495 Z M26.6729636,18.3389031 L26.6729636,16.989549 C24.7251196,17.9179046 21.5054481,18.3496979 18.4232714,18.3496979 C15.3410948,18.3496979 12.1214232,17.9071098 10.1735792,16.989549 L10.1735792,18.3496979 C10.3110741,18.8138757 13.0609715,20.0768711 18.4232714,20.0768711 C23.7855714,20.0768711 26.5354688,18.8138757 26.6729636,18.3389031 Z M18.4232714,16.6225247 C23.7397397,16.6225247 26.4896371,15.381119 26.6729636,14.8953515 C26.4896371,14.409584 23.7397397,13.1681783 18.4232714,13.1681783 C13.0724294,13.1681783 10.322532,14.4203789 10.1735792,14.9061463 C10.322532,15.3703241 13.0724294,16.6225247 18.4232714,16.6225247 Z" id="Combined-Shape" fill="#FFFFFF" fill-rule="nonzero"></path>
        <path d="M32,25 C27.1818182,25 22,26.09375 22,28.5 L22,49.5 C22,51.90625 27.1818182,53 32,53 C36.8181818,53 42,51.90625 42,49.5 L42,28.5 C42,26.09375 36.8181818,25 32,25 Z M40.1818182,49.4890625 C40.0454545,49.9703125 37.3181818,51.25 32,51.25 C26.6818182,51.25 23.9545455,49.9703125 23.8181818,49.5 L23.8181818,48.121875 C25.75,49.0625 28.9431818,49.5 32,49.5 C35.0568182,49.5 38.25,49.0625 40.1818182,48.121875 L40.1818182,49.4890625 Z M40.1818182,45.9890625 C40.0454545,46.4703125 37.3181818,47.75 32,47.75 C26.6818182,47.75 23.9545455,46.4703125 23.8181818,46 L23.8181818,44.621875 C25.75,45.5625 28.9431818,46 32,46 C35.0568182,46 38.25,45.5625 40.1818182,44.621875 L40.1818182,45.9890625 Z M40.1818182,42.4890625 C40.0454545,42.9703125 37.3181818,44.25 32,44.25 C26.6818182,44.25 23.9545455,42.9703125 23.8181818,42.5 L23.8181818,41.121875 C25.75,42.0625 28.9431818,42.5 32,42.5 C35.0568182,42.5 38.25,42.0625 40.1818182,41.121875 L40.1818182,42.4890625 Z M40.1818182,38.9890625 C40.0454545,39.4703125 37.3181818,40.75 32,40.75 C26.6818182,40.75 23.9545455,39.4703125 23.8181818,39 L23.8181818,37.621875 C25.75,38.5625 28.9431818,39 32,39 C35.0568182,39 38.25,38.5625 40.1818182,37.621875 L40.1818182,38.9890625 Z M40.1818182,35.4890625 C40.0454545,35.9703125 37.3181818,37.25 32,37.25 C26.6818182,37.25 23.9545455,35.9703125 23.8181818,35.5 L23.8181818,34.121875 C25.75,35.0515625 28.9431818,35.5 32,35.5 C35.0568182,35.5 38.25,35.0625 40.1818182,34.121875 L40.1818182,35.4890625 Z M40.1818182,31.9890625 C40.0454545,32.4703125 37.3181818,33.75 32,33.75 C26.6818182,33.75 23.9545455,32.4703125 23.8181818,32 L23.8181818,30.621875 C25.75,31.5515625 28.9431818,32 32,32 C35.0568182,32 38.25,31.5625 40.1818182,30.621875 L40.1818182,31.9890625 Z M32,30.25 C26.6931818,30.25 23.9659091,28.98125 23.8181818,28.5109375 C23.9659091,28.01875 26.6931818,26.75 32,26.75 C37.2727273,26.75 40,28.0078125 40.1818182,28.5 C40,28.9921875 37.2727273,30.25 32,30.25 Z" id="Shape" fill="#FFFFFF" fill-rule="nonzero"></path>
    </g>
</svg>
