<?xml version="1.0" encoding="UTF-8"?>
<svg width="75px" height="75px" viewBox="0 0 75 75" version="1.1" xmlns="http://www.w3.org/2000/svg" xmlns:xlink="http://www.w3.org/1999/xlink">
    <!-- Generator: Sketch 52.6 (67491) - http://www.bohemiancoding.com/sketch -->
    <title>box_2_09</title>
    <desc>Created with Sketch.</desc>
    <g id="box_2_09" stroke="none" stroke-width="1" fill="none" fill-rule="evenodd">
        <g id="case" transform="translate(18.000000, 17.000000)" fill="#000000">
            <path d="M36,42 L3,42 C1.34314575,42 2.02906125e-16,40.6568542 0,39 L0,3 C-2.02906125e-16,1.34314575 1.34314575,3.04359188e-16 3,0 L36,0 C37.6568542,-3.04359188e-16 39,1.34314575 39,3 L39,39 C39,40.6568542 37.6568542,42 36,42 Z M3.46837945,38.5853659 L35.5316206,38.5853659 L35.5316206,3.41463415 L3.46837945,3.41463415 L3.46837945,38.5853659 Z" id="Shape" fill-rule="nonzero"></path>
            <path d="M18.9605551,0 L15.0029218,0 C15.0292184,0.383663366 15.055515,0.77970297 15.055515,1.17574257 C15.055515,8.89851485 8.9284149,15.2846535 1,16.2623762 L1,20 C11.0978817,18.9975248 19,10.9405941 19,1.17574257 C19,0.77970297 18.9868517,0.383663366 18.9605551,0 Z" id="Path"></path>
            <path d="M39,16.2623762 C31.0715851,15.2846535 24.944485,8.89851485 24.944485,1.17574257 C24.944485,0.77970297 24.9576333,0.383663366 24.9970782,0 L21.0394449,0 C21.0131483,0.383663366 21,0.77970297 21,1.17574257 C21,10.9405941 28.9021183,19.009901 39,20 L39,16.2623762 Z" id="Path"></path>
        </g>
    </g>
</svg>
