<?xml version="1.0" encoding="UTF-8"?>
<svg width="75px" height="75px" viewBox="0 0 75 75" version="1.1" xmlns="http://www.w3.org/2000/svg" xmlns:xlink="http://www.w3.org/1999/xlink">
    <!-- Generator: Sketch 52.6 (67491) - http://www.bohemiancoding.com/sketch -->
    <title>box_2_01</title>
    <desc>Created with Sketch.</desc>
    <g id="box_2_01" stroke="none" stroke-width="1" fill="none" fill-rule="evenodd">
        <g id="south-korea" transform="translate(14.000000, 12.000000)" fill="#000000" stroke="#000000">
            <path d="M49.5035461,19.8413912 L42.7466151,4.70130854 L42.7466151,2.98006887 C42.7466151,1.33684573 41.4208575,0 39.7912637,0 C38.8660542,0 37.9827531,0.445344353 37.4274662,1.19219008 L35.8397808,3.32789256 L21.0702772,6.30633609 C20.0878466,6.5046281 19.374597,7.38150138 19.374597,8.39165289 L19.374597,11.6455923 C19.374597,12.2055234 19.599452,12.7532645 19.9927466,13.1498485 L22.453256,15.6309366 C22.5459381,15.7243939 22.5983237,15.8536088 22.5983237,15.9852617 L22.5983237,19.0019008 C22.5983237,19.3570386 22.1889104,19.6089669 21.8770148,19.4513085 L17.6523211,17.3204821 C17.3210832,17.1538843 16.9503546,17.0661157 16.5812379,17.0661157 L14.516441,17.0661157 C13.196325,17.0661157 12.1212121,18.1502204 12.1212121,19.4821901 L12.1212121,20.3395592 C12.1212121,21.6707163 13.196325,22.7548209 14.5172469,22.7548209 C14.7727273,22.7548209 15.0128949,22.8807851 15.1595745,23.0920799 L20.1805287,30.3248623 L20.1805287,33.0245592 L16.6529658,37.2927135 C16.3297872,37.6844215 16.1508704,38.1809642 16.1508704,38.6913223 L16.1508704,42.5149449 C16.1508704,43.7185124 17.1212121,44.6969697 18.3147969,44.6969697 L19.6292714,44.6969697 C20.8220503,44.6969697 21.792392,43.7185124 21.792392,42.5149449 C21.792392,42.2597658 21.9648614,42.0370937 22.2106705,41.9745179 L37.2042231,38.1955923 L45.9703417,38.1955923 C48.1922953,38.1955923 50,36.3727686 50,34.1322314 L50,22.1761983 C50,21.3651515 49.8331721,20.5792975 49.5035461,19.8413912 Z M48.3881367,34.1322314 C48.3881367,35.4763912 47.3033527,36.5702479 45.9703417,36.5702479 L37.1050935,36.5702479 L21.8197937,40.3987466 C20.8542876,40.6417355 20.1805287,41.5121074 20.1805287,42.5149449 C20.1805287,42.822135 19.9331077,43.0716253 19.6284655,43.0716253 L18.313991,43.0716253 C18.0101547,43.0716253 17.7627337,42.822135 17.7627337,42.5149449 L17.7627337,38.6913223 C17.7627337,38.5612948 17.8078659,38.4345179 17.8908769,38.3353719 L21.792392,33.6137466 L21.792392,29.8120661 L16.4796905,22.1599449 C16.0323985,21.5154959 15.2973888,21.1294766 14.5172469,21.1294766 C14.0852676,21.1294766 13.7330754,20.7743388 13.7330754,20.3387466 L13.7330754,19.4813774 C13.7330754,19.0465978 14.0852676,18.6914601 14.5172469,18.6914601 L16.5820438,18.6914601 C16.7029336,18.6914601 16.8254352,18.7199036 16.93343,18.7751653 L21.1573179,20.9051791 C21.4474533,21.0514601 21.7746615,21.1294766 22.1002579,21.1294766 C23.2632173,21.1294766 24.210187,20.1745868 24.210187,19.0019008 L24.210187,15.9852617 C24.210187,15.4253306 23.985332,14.8775895 23.5920374,14.4810055 L21.131528,11.9999174 C21.0388459,11.9064601 20.9864603,11.7772452 20.9864603,11.6455923 L20.9864603,8.39165289 C20.9864603,8.15353994 21.1549001,7.94630854 21.3870084,7.89998623 L36.7585429,4.7988292 L38.7169568,2.16658402 C38.9692134,1.82769972 39.3713733,1.62534435 39.7912637,1.62534435 C40.5319149,1.62534435 41.1347518,2.23322314 41.1347518,2.98006887 L41.1347518,5.05075758 L48.0335268,20.508595 C48.2688588,21.0360193 48.3881367,21.5975758 48.3881367,22.177011 L48.3881367,34.1322314 Z" id="Shape" fill-rule="nonzero"></path>
            <path d="M9.62566845,40.1515152 L8.02139037,40.1515152 C6.0842246,40.1515152 4.46390374,41.563952 4.09171123,43.4343434 L3.20855615,43.4343434 C1.43903743,43.4343434 0,44.9066919 0,46.7171717 C0,48.5276515 1.43903743,50 3.20855615,50 L9.62566845,50 C11.8371658,50 13.6363636,48.159154 13.6363636,45.8964646 L13.6363636,44.2550505 C13.6363636,41.9923611 11.8371658,40.1515152 9.62566845,40.1515152 Z M12.0320856,45.8964646 C12.0320856,47.2539141 10.9524064,48.3585859 9.62566845,48.3585859 L3.20855615,48.3585859 C2.32379679,48.3585859 1.60427807,47.6224116 1.60427807,46.7171717 C1.60427807,45.8119318 2.32379679,45.0757576 3.20855615,45.0757576 L5.61497326,45.0757576 L5.61497326,44.2550505 C5.61497326,42.897601 6.69465241,41.7929293 8.02139037,41.7929293 L9.62566845,41.7929293 C10.9524064,41.7929293 12.0320856,42.897601 12.0320856,44.2550505 L12.0320856,45.8964646 Z" id="Shape" fill-rule="nonzero"></path>
            <path d="M35.4585399,9.84848485 L34.9960055,9.84848485 C30.3199725,9.84848485 26.5151515,13.7305051 26.5151515,18.5014141 C26.5151515,19.8387879 26.8256198,21.1777778 27.410916,22.3713131 L32.226343,32.1983838 C32.7981749,33.3660606 33.9481749,34.0909091 35.2272727,34.0909091 C36.5063705,34.0909091 37.6563705,33.3660606 38.2282025,32.1983838 L43.0436295,22.3713131 C43.6289256,21.1777778 43.9393939,19.8387879 43.9393939,18.5014141 C43.9393939,13.7305051 40.134573,9.84848485 35.4585399,9.84848485 Z M41.6267218,21.6488889 L36.8112948,31.4759596 C36.5095386,32.0917172 35.9028581,32.4747475 35.2272727,32.4747475 C34.5516873,32.4747475 33.9450069,32.0917172 33.6432507,31.4759596 L28.8278237,21.6488889 C28.3510331,20.6767677 28.0991736,19.5890909 28.0991736,18.5014141 C28.0991736,14.6210101 31.1927686,11.4646465 34.9960055,11.4646465 L35.4585399,11.4646465 C39.2617769,11.4646465 42.3553719,14.6210101 42.3553719,18.5014141 C42.3553719,19.5890909 42.1035124,20.6767677 41.6267218,21.6488889 Z" id="Shape" fill-rule="nonzero"></path>
            <path d="M35.2272727,13.6363636 C32.511553,13.6363636 30.3030303,15.8448864 30.3030303,18.5606061 C30.3030303,21.2763258 32.511553,23.4848485 35.2272727,23.4848485 C37.9429924,23.4848485 40.1515152,21.2763258 40.1515152,18.5606061 C40.1515152,15.8448864 37.9429924,13.6363636 35.2272727,13.6363636 Z M35.2272727,21.8434343 C33.4167929,21.8434343 31.9444444,20.3710859 31.9444444,18.5606061 C31.9444444,16.7501263 33.4167929,15.2777778 35.2272727,15.2777778 C37.0377525,15.2777778 38.510101,16.7501263 38.510101,18.5606061 C38.510101,20.3710859 37.0377525,21.8434343 35.2272727,21.8434343 Z" id="Shape" fill-rule="nonzero"></path>
            <rect id="Rectangle" x="34.8484848" y="25" width="1.51515152" height="1.51515152"></rect>
        </g>
    </g>
</svg>
