<?xml version="1.0" encoding="UTF-8"?>
<svg width="60px" height="60px" viewBox="0 0 60 60" version="1.1" xmlns="http://www.w3.org/2000/svg" xmlns:xlink="http://www.w3.org/1999/xlink">
    <!-- Generator: Sketch 52.6 (67491) - http://www.bohemiancoding.com/sketch -->
    <title>box_03</title>
    <desc>Created with Sketch.</desc>
    <g id="box_03" stroke="none" stroke-width="1" fill="none" fill-rule="evenodd">
        <path d="M57.9879134,51.1084072 L45.5003159,38.6194314 L45.5003159,10.8750347 C45.5003159,9.01108557 43.9892534,7.50003488 42.1252896,7.50003488 L19.5124023,7.50003488 C18.9911716,4.93250379 16.721361,3 14.0000351,3 C11.2787091,3 9.00900393,4.93250379 8.4877733,7.50003488 L8.37502633,7.50003488 C6.51106257,7.50003488 5,9.01108557 5,10.8750347 L5,53.6249969 C5,55.488946 6.51106257,56.9999967 8.37502633,56.9999967 L42.1252896,56.9999967 C43.9892534,56.9999967 45.5003159,55.488946 45.5003159,53.6249969 L45.5003159,48.3800363 L53.1087855,55.9874968 C53.755103,56.6367624 54.6338755,57.0012623 55.5500897,56.9999967 C56.4657765,56.9998912 57.3438107,56.6358131 57.9908665,55.9879187 C59.337502,54.6397117 59.3362364,52.4550321 57.9879134,51.1084072 Z M14.0000351,5.24996471 C15.4694371,5.24996471 16.7188297,6.18926934 17.182263,7.49992941 L10.8179126,7.49992941 C11.2812404,6.18926934 12.530633,5.24996471 14.0000351,5.24996471 Z M43.2503335,53.6249969 C43.2503335,54.2463133 42.7466109,54.750032 42.1252896,54.750032 L8.37502633,54.750032 C7.75370508,54.750032 7.2499824,54.2463133 7.2499824,53.6249969 L7.2499824,10.8750347 C7.2499824,10.2537183 7.75370508,9.74999959 8.37502633,9.74999959 L17.3750614,9.74999959 L17.3750614,22.1249637 C17.3750614,22.74628 16.8713387,23.2499988 16.2500174,23.2499988 C15.6286962,23.2499988 15.1249735,22.74628 15.1249735,22.1249637 L15.1249735,11.9999643 L12.8750966,11.9999643 L12.8750966,22.1249637 C12.8750966,23.9889128 14.3861592,25.4999635 16.2501229,25.4999635 C18.1140867,25.4999635 19.6251492,23.9889128 19.6251492,22.1249637 L19.6251492,9.74999959 L42.1252896,9.74999959 C42.7466109,9.74999959 43.2503335,10.2537183 43.2503335,10.8750347 L43.2503335,36.3692558 L39.8753072,32.9938341 L39.8753072,13.1249994 C39.8753072,12.503683 39.3715845,11.9999643 38.7502633,11.9999643 L21.8751316,11.9999643 L21.8751316,14.249929 L37.6252194,14.249929 L37.6252194,30.9892952 L31.3780456,27.8726938 C31.0608986,27.7137524 30.6873254,27.7137524 30.3701784,27.8726938 C30.3098498,27.9028579 30.2542673,27.9386118 30.2019544,27.9775297 L30.2001614,27.9751039 L27.0073865,30.3668186 L25.2073373,24.0668542 C25.1548135,23.8826003 25.0561994,23.7147995 24.920671,23.5793777 C24.4811793,23.1401003 23.7689433,23.1403113 23.3296625,23.5796941 L20.2843341,26.6249986 L11.7500527,26.6249986 C11.1287314,26.6249986 10.6250087,27.1287173 10.6250087,27.7500337 L10.6250087,51.3750322 C10.6250087,51.9963486 11.1287314,52.5000673 11.7500527,52.5000673 L38.7502633,52.5000673 C39.3715845,52.5000673 39.8753072,51.9963486 39.8753072,51.3750322 L39.8753072,42.7557046 L43.2503335,46.1302825 L43.2503335,53.6249969 Z M34.4729448,33.5561935 L33.3885066,31.3893381 L35.5560118,32.4731349 L34.4729448,33.5561935 Z M37.6252194,40.5058454 L37.6252194,50.2499971 L12.8750966,50.2499971 L12.8750966,28.8749633 L20.7501932,28.8749633 C21.0478283,28.8751742 21.3334399,28.7574711 21.5444845,28.5475883 L23.5695003,26.5225884 L25.2929786,32.5582482 C25.3307367,32.6907169 25.3924364,32.8152755 25.4751246,32.9253849 C25.848065,33.4223536 26.5532345,33.5228653 27.0502072,33.1499279 L30.4697417,30.5853499 L33.1578447,35.9624628 L33.1606923,35.9610917 C33.2132162,36.0654003 33.2822988,36.1633808 33.3693112,36.250498 L37.6252194,40.5058454 Z M35.7554548,35.4551582 L37.4553079,33.7553184 L52.3168144,48.6166027 L50.6169613,50.3164424 L35.7554548,35.4551582 Z M56.3994361,54.399032 C55.9299911,54.8684734 55.1689226,54.8684734 54.699583,54.399032 L52.2079698,51.9074384 L53.9078229,50.2075987 L56.3993307,52.6990868 C56.8688812,53.1685282 56.8688812,53.9295907 56.3994361,54.399032 Z" id="Shape" fill="#FFFFFF" fill-rule="nonzero"></path>
    </g>
</svg>
