<?xml version="1.0" encoding="UTF-8"?>
<svg width="60px" height="60px" viewBox="0 0 60 60" version="1.1" xmlns="http://www.w3.org/2000/svg" xmlns:xlink="http://www.w3.org/1999/xlink">
    <!-- Generator: Sketch 52.6 (67491) - http://www.bohemiancoding.com/sketch -->
    <title>box_06</title>
    <desc>Created with Sketch.</desc>
    <g id="box_06" stroke="none" stroke-width="1" fill="none" fill-rule="evenodd" stroke-linecap="round" stroke-linejoin="round">
        <g id="flower-bouquet" transform="translate(31.000000, 30.000000) scale(-1, 1) translate(-31.000000, -30.000000) translate(11.000000, 3.000000)" stroke="#FFFFFF" stroke-width="2">
            <path d="M19.9400741,7.77777778 C24.0871329,7.77777778 27.8131938,10.2454074 29.5693712,14 L37.8899604,14 C38.0555088,12.6770519 37.8137022,11.3085778 37.1346076,10.1111111 C36.2069867,8.47653333 34.6141178,7.38588148 32.8349306,7.08814815 C32.5426247,5.27582222 31.4717525,3.65348148 29.8670733,2.70863704 C28.2622922,1.76524444 26.3488133,1.63312593 24.65912,2.28179259 C23.5164694,0.861362963 21.7923632,0 19.9400741,0 C18.0877849,0 16.3636787,0.861362963 15.2212318,2.28168889 C13.5344911,1.63457778 11.6165324,1.76825185 10.0132785,2.70853333 C8.40849748,3.65337778 7.33772714,5.27582222 7.04542119,7.08804444 C5.26613217,7.38577778 3.6718379,8.47653333 2.74574423,10.1110074 C2.06654779,11.3084741 1.82484304,12.6769481 1.99039145,13.9998963 L10.3109806,13.9998963 C12.0669544,10.2454074 15.7930152,7.77777778 19.9400741,7.77777778 Z" id="Path"></path>
            <path d="M13.9401709,15 L25.9401709,15 C24.5472191,12.5329333 22.3400108,11 19.9400709,11 C17.5401309,11 15.3331228,12.5329333 13.9401709,15 Z" id="Path"></path>
            <rect id="Rectangle" x="0.94017094" y="18" width="39" height="6"></rect>
            <path d="M19.9402169,34.0700389 C15.7931463,34.0700389 12.0670749,31.6627626 10.3108925,28 L1.99038167,28 C1.82483279,29.2905914 2.06664004,30.6255953 2.74573659,31.7937743 C3.67336007,33.3883735 5.26623347,34.4523502 7.0454257,34.7428016 C7.33773248,36.5108016 8.40860767,38.093463 10.0132914,39.0151984 C10.3529415,39.2100467 10.7123434,39.3504669 11.0754107,39.4743969 L9.14797786,54 L12.2893339,54 L12.9750484,47.7276265 L26.905589,47.7276265 L27.5913035,54 L30.7324559,54 L28.8051249,39.4756109 C29.1678867,39.3512763 29.5271868,39.2107549 29.8670405,39.0152996 C31.4718261,38.0935642 32.5425995,36.5108016 32.8349063,34.7429027 C34.6142003,34.4524514 36.2084991,33.3883735 37.1345954,31.7938755 C37.8137937,30.6256965 38.0554992,29.2906926 37.8899503,28.0001012 L29.5693376,28.0001012 C27.8133589,31.6627626 24.0872875,34.0700389 19.9402169,34.0700389 Z M13.4114213,44.692607 L14.1281889,39.7088016 C14.4980776,39.6435486 14.8664392,39.56393 15.2213613,39.4317043 C16.3638114,40.8172918 18.0879225,41.6575875 19.9402169,41.6575875 C21.7925113,41.6575875 23.5166224,40.8172918 24.6590725,39.4317043 C25.0141982,39.564537 25.3825598,39.6447626 25.7524485,39.7103191 L26.4690124,44.692607 L13.4114213,44.692607 Z" id="Shape" fill-rule="nonzero"></path>
            <path d="M25.9401709,27 L13.9401709,27 C15.3331228,29.4670667 17.5401309,31 19.9400709,31 C22.3400108,31 24.5472191,29.4670667 25.9401709,27 Z" id="Path"></path>
        </g>
    </g>
</svg>
