<?xml version="1.0" encoding="UTF-8"?>
<svg width="75px" height="75px" viewBox="0 0 75 75" version="1.1" xmlns="http://www.w3.org/2000/svg" xmlns:xlink="http://www.w3.org/1999/xlink">
    <!-- Generator: Sketch 52.6 (67491) - http://www.bohemiancoding.com/sketch -->
    <title>box_2_02</title>
    <desc>Created with Sketch.</desc>
    <g id="box_2_02" stroke="none" stroke-width="1" fill="none" fill-rule="evenodd">
        <g id="open-book" transform="translate(13.000000, 14.000000)" fill="#000000" stroke="#000000">
            <path d="M28.3681287,23.6657895 C28.5153021,23.9536062 28.8080897,24.119883 29.1108187,24.119883 C29.237232,24.119883 29.3669591,24.0907407 29.4876218,24.0292398 C29.5366472,24.0042885 34.4321637,21.5174464 36.8465887,20.7547758 C37.2841131,20.6158869 37.5269006,20.1484405 37.3880117,19.7110136 C37.2499025,19.2734893 36.7858674,19.0298246 36.3442495,19.1679337 C33.8008772,19.9722222 28.938694,22.4423977 28.7324561,22.5471735 C28.3231969,22.7550682 28.1602339,23.255848 28.3681287,23.6657895 Z" id="Path"></path>
            <path d="M29.1108187,14.1394737 C29.237232,14.1394737 29.3669591,14.1103314 29.4876218,14.0488304 C29.5366472,14.0238791 34.4321637,11.537037 36.8465887,10.7743665 C37.2841131,10.6354776 37.5269006,10.1680312 37.3880117,9.73060429 C37.2499025,9.29307992 36.7858674,9.0494152 36.3442495,9.18752437 C33.8008772,9.99181287 28.938694,12.4619883 28.7324561,12.5667641 C28.3232943,12.7746589 28.1602339,13.2753411 28.3681287,13.6853801 C28.5153021,13.9730994 28.8080897,14.1394737 29.1108187,14.1394737 Z" id="Path"></path>
            <path d="M49.0710526,12.4760234 C48.6111111,12.4760234 48.2393762,12.8486355 48.2393762,13.3076998 L48.2393762,45.744347 C48.2393762,47.1199805 47.119883,48.2394737 45.7442495,48.2394737 L25.7832359,48.2394737 L25.7832359,46.325731 C26.9959064,45.9015595 30.1546784,44.9126706 33.268616,44.9126706 C40.5136452,44.9126706 45.4332359,46.5170565 45.4822612,46.5336257 C45.7325536,46.6167641 46.0120858,46.5752437 46.2307992,46.4188109 C46.4478558,46.2624756 46.5759259,46.011306 46.5759259,45.7442495 L46.5759259,9.14922027 C46.5759259,8.75916179 46.305653,8.4214425 45.9246589,8.3374269 C45.9246589,8.3374269 45.2726121,8.19191033 44.1580897,7.98723197 C43.7080897,7.90409357 43.2731969,8.20350877 43.189961,8.6542885 C43.1068226,9.10672515 43.4053606,9.54005848 43.8570175,9.62319688 C44.2820663,9.70136452 44.6380117,9.77037037 44.9124756,9.82534113 L44.9124756,44.6389864 C43.0277778,44.1449318 38.8426901,43.2492203 33.2685185,43.2492203 C29.6447368,43.2492203 26.0850877,44.4393762 24.9838207,44.8427875 C24.0048733,44.4103314 21.0457115,43.2492203 17.4659844,43.2492203 C11.7371345,43.2492203 7.01803119,44.1940546 4.99035088,44.6739766 L4.99035088,9.79288499 C6.65126706,9.38450292 11.5567251,8.31744639 17.4659844,8.31744639 C20.4984405,8.31744639 23.0991228,9.26140351 24.1196881,9.68810916 L24.1196881,42.4175439 C24.1196881,42.7169591 24.2809942,42.9939571 24.5413255,43.1411306 C24.8016569,43.2891813 25.1227096,43.2849903 25.3797271,43.1303119 C25.4620858,43.0812865 33.7026316,38.1591618 41.0166667,35.7214425 C41.3568226,35.6075049 41.585575,35.2906433 41.585575,34.9321637 L41.585575,0.832066277 C41.585575,0.559259259 41.4516569,0.303898635 41.2270955,0.148440546 C41.004191,-0.00711500975 40.7181287,-0.0428849903 40.4611111,0.0528265107 C33.8066277,2.54873294 27.0731969,6.73888889 27.0057505,6.78050682 C26.6164717,7.02417154 26.4975634,7.53732943 26.7412281,7.92660819 C26.9841131,8.31588694 27.497271,8.43479532 27.8873294,8.1911306 C27.9488304,8.15204678 33.8066277,4.50750487 39.9221248,2.04814815 L39.9221248,34.3367446 C34.2448343,36.3095517 28.3172515,39.5307992 25.7830409,40.9729045 L25.7830409,9.14922027 C25.7830409,8.83401559 25.6050682,8.54619883 25.3230994,8.40487329 C25.1800195,8.33421053 21.7717349,6.65409357 17.4659844,6.65409357 C9.95068226,6.65409357 4.17280702,8.28011696 3.92992203,8.34990253 C3.57309942,8.45136452 3.32690058,8.77826511 3.32690058,9.14922027 L3.32690058,45.7444444 C3.32690058,46.0047758 3.45,46.2509747 3.65711501,46.4081871 C3.80350877,46.5188109 3.97982456,46.5762183 4.15867446,46.5762183 C4.23518519,46.5762183 4.31169591,46.5653996 4.38654971,46.5437622 C4.44395712,46.5279727 10.1952242,44.912768 17.4659844,44.912768 C20.5067251,44.912768 23.1049708,45.8592593 24.1196881,46.2842105 L24.1196881,48.2395712 L4.15867446,48.2395712 C2.78304094,48.2395712 1.66354776,47.120078 1.66354776,45.7444444 L1.66354776,13.3077973 C1.66354776,12.8487329 1.29093567,12.4761209 0.831871345,12.4761209 C0.372807018,12.4761209 0.000194931774,12.8487329 0.000194931774,13.3077973 L0.000194931774,45.7444444 C0.000194931774,48.0374269 1.86569201,49.9030214 4.15877193,49.9030214 L45.7442495,49.9030214 C48.037232,49.9030214 49.9028265,48.0375244 49.9028265,45.7444444 L49.9028265,13.3077973 C49.902729,12.8486355 49.5309942,12.4760234 49.0710526,12.4760234 Z" id="Path"></path>
            <path d="M28.3681287,18.6755361 C28.5153021,18.9633528 28.8080897,19.1296296 29.1108187,19.1296296 C29.237232,19.1296296 29.3669591,19.1004873 29.4876218,19.0389864 C29.5366472,19.0140351 34.4321637,16.527193 36.8465887,15.7645224 C37.2841131,15.6256335 37.5269006,15.1581871 37.3880117,14.7207602 C37.2499025,14.2832359 36.7858674,14.0395712 36.3442495,14.1776803 C33.8008772,14.9819688 28.938694,17.4521442 28.7324561,17.5569201 C28.3231969,17.7648148 28.1602339,18.2655945 28.3681287,18.6755361 Z" id="Path"></path>
            <path d="M28.3681287,28.6560429 C28.5153021,28.9438596 28.8080897,29.1101365 29.1108187,29.1101365 C29.237232,29.1101365 29.3669591,29.0809942 29.4876218,29.0194932 C29.5366472,28.9945419 34.4321637,26.5076998 36.8465887,25.7450292 C37.2841131,25.6061404 37.5269006,25.138694 37.3880117,24.7012671 C37.2499025,24.2637427 36.7858674,24.020078 36.3442495,24.1581871 C33.8008772,24.9624756 28.938694,27.4326511 28.7324561,27.5374269 C28.3231969,27.7453216 28.1602339,28.2461014 28.3681287,28.6560429 Z" id="Path"></path>
            <path d="M20.1508772,15.4352827 C15.0151072,14.230117 9.17894737,15.7654971 8.93362573,15.8311891 C8.49035088,15.9500975 8.22670565,16.405848 8.34561404,16.85 C8.4454191,17.2217349 8.78138402,17.4662768 9.14824561,17.4662768 C9.21978558,17.4662768 9.29210526,17.457115 9.36452242,17.4380117 C9.4202729,17.4222222 15.0392788,15.9442495 19.7717349,17.0545809 C20.2166667,17.158577 20.6666667,16.8815789 20.7714425,16.4341131 C20.8761209,15.9875244 20.5983431,15.5400585 20.1508772,15.4352827 Z" id="Path"></path>
            <path d="M20.1508772,20.4255361 C15.0151072,19.2212476 9.17894737,20.7557505 8.93362573,20.8214425 C8.49035088,20.9403509 8.22670565,21.3961988 8.34561404,21.8402534 C8.4454191,22.2119883 8.78138402,22.4565302 9.14824561,22.4565302 C9.21978558,22.4565302 9.29210526,22.4473684 9.36452242,22.4282651 C9.4202729,22.4124756 15.0392788,20.9345029 19.7717349,22.0448343 C20.2166667,22.1488304 20.6666667,21.8718324 20.7714425,21.4243665 C20.8761209,20.9777778 20.5983431,20.5303119 20.1508772,20.4255361 Z" id="Path"></path>
            <path d="M28.3681287,33.6462963 C28.5153021,33.9341131 28.8080897,34.1003899 29.1108187,34.1003899 C29.237232,34.1003899 29.3669591,34.0712476 29.4876218,34.0097466 C29.5366472,33.9847953 34.4321637,31.4979532 36.8465887,30.7352827 C37.2841131,30.5963938 37.5269006,30.1289474 37.3880117,29.6915205 C37.2499025,29.2540936 36.7858674,29.0103314 36.3442495,29.1484405 C33.8008772,29.952729 28.938694,32.4229045 28.7324561,32.5276803 C28.3231969,32.735575 28.1602339,33.2363548 28.3681287,33.6462963 Z" id="Path"></path>
            <path d="M20.1508772,25.4157895 C15.0151072,24.211501 9.17894737,25.7451267 8.93362573,25.8116959 C8.49035088,25.9306043 8.22670565,26.3864522 8.34561404,26.8305068 C8.4454191,27.2022417 8.78138402,27.4476608 9.14824561,27.4476608 C9.21978558,27.4476608 9.29210526,27.4377193 9.36452242,27.4185185 C9.4202729,27.402729 15.0392788,25.9247563 19.7717349,27.0350877 C20.2166667,27.1390838 20.6666667,26.8620858 20.7714425,26.4146199 C20.8761209,25.9680312 20.5983431,25.5205653 20.1508772,25.4157895 Z" id="Path"></path>
            <path d="M20.1508772,35.3962963 C15.0151072,34.1911306 9.17894737,35.7265107 8.93362573,35.7922027 C8.49035088,35.9111111 8.22670565,36.3669591 8.34561404,36.8110136 C8.4454191,37.1827485 8.78138402,37.4281676 9.14824561,37.4281676 C9.21978558,37.4281676 9.29210526,37.4182261 9.36452242,37.3990253 C9.4202729,37.3832359 15.0392788,35.9052632 19.7717349,37.0155945 C20.2166667,37.1187135 20.6666667,36.8425926 20.7714425,36.3951267 C20.8761209,35.948538 20.5983431,35.5010721 20.1508772,35.3962963 Z" id="Path"></path>
            <path d="M20.1508772,30.4060429 C15.0151072,29.2008772 9.17894737,30.7353801 8.93362573,30.8019493 C8.49035088,30.9208577 8.22670565,31.3767057 8.34561404,31.8207602 C8.4454191,32.1924951 8.78138402,32.4379142 9.14824561,32.4379142 C9.21978558,32.4379142 9.29210526,32.4279727 9.36452242,32.4087719 C9.4202729,32.3929825 15.0392788,30.9150097 19.7717349,32.0253411 C20.2166667,32.1293372 20.6666667,31.8523392 20.7714425,31.4048733 C20.8761209,30.9582846 20.5983431,30.5108187 20.1508772,30.4060429 Z" id="Path"></path>
        </g>
    </g>
</svg>
