<?xml version="1.0" encoding="UTF-8"?>
<svg width="60px" height="60px" viewBox="0 0 60 60" version="1.1" xmlns="http://www.w3.org/2000/svg" xmlns:xlink="http://www.w3.org/1999/xlink">
    <!-- Generator: Sketch 52.6 (67491) - http://www.bohemiancoding.com/sketch -->
    <title>box_06</title>
    <desc>Created with Sketch.</desc>
    <g id="box_06" stroke="none" stroke-width="1" fill="none" fill-rule="evenodd">
        <g id="id-card" transform="translate(10.000000, 10.000000)" fill="#FFFFFF" stroke="#FFFFFF">
            <path d="M35.1213235,1.558 L4.73670588,1.558 C4.40388235,1.558 4.13376471,1.28788235 4.13376471,0.955058824 C4.13376471,0.622235294 4.40388235,0.352117647 4.73670588,0.352117647 L35.1213235,0.352117647 C35.4541471,0.352117647 35.7242647,0.622235294 35.7242647,0.955058824 C35.7242647,1.28788235 35.4541471,1.558 35.1213235,1.558 Z" id="Path"></path>
            <g id="Group" transform="translate(0.000000, 3.617647)">
                <g>
                    <path d="M36.8445294,35.0647353 L3.01470588,35.0647353 C1.35179412,35.0647353 0,33.7117353 0,32.0500294 L0,7.62367647 C0,5.96197059 1.35179412,4.60897059 3.01470588,4.60897059 L36.8445294,4.60897059 C38.5074412,4.60897059 39.8592353,5.96197059 39.8592353,7.62367647 L39.8592353,32.0512353 C39.8592353,33.7129412 38.5074412,35.0647353 36.8445294,35.0647353 Z M3.01470588,5.81485294 C2.01744118,5.81485294 1.20588235,6.62641176 1.20588235,7.62367647 L1.20588235,32.0512353 C1.20588235,33.0485 2.01744118,33.8600588 3.01470588,33.8600588 L36.8445294,33.8600588 C37.8417941,33.8600588 38.6533529,33.0485 38.6533529,32.0512353 L38.6533529,7.62367647 C38.6533529,6.62641176 37.8417941,5.81485294 36.8445294,5.81485294 L3.01470588,5.81485294 Z" id="Shape" fill-rule="nonzero"></path>
                    <path d="M30.2881471,1.81485294 L9.57108824,1.81485294 C9.23826471,1.81485294 8.96814706,1.54473529 8.96814706,1.21191176 C8.96814706,0.879088235 9.23826471,0.608970588 9.57108824,0.608970588 L30.2893529,0.608970588 C30.6221765,0.608970588 30.8922941,0.879088235 30.8922941,1.21191176 C30.8922941,1.54473529 30.6221765,1.81485294 30.2881471,1.81485294 Z" id="Path"></path>
                </g>
                <path d="M20.6097353,29.1269706 L6.42373529,29.1269706 C6.09091176,29.1269706 5.82079412,28.8568529 5.82079412,28.5240294 L5.82079412,26.9105588 C5.82079412,25.9048529 6.40805882,24.9751176 7.3185,24.5446176 L10.5116765,22.5814412 C9.48064706,21.7457647 8.84032353,20.5049118 8.78847059,19.1615588 L8.66667647,15.9828529 C8.66667647,13.553 10.6515588,11.5958529 13.0934706,11.5958529 L13.9351765,11.5958529 C16.3758824,11.5958529 18.3631765,13.5542059 18.3631765,15.9599412 L18.2401765,19.1615588 C18.1883235,20.5073235 17.548,21.7493824 16.5133529,22.5838529 L19.7402941,24.5590882 C20.6338529,24.9956176 21.2102647,25.9157059 21.2102647,26.9117647 L21.2102647,28.5240294 C21.2126765,28.8568529 20.9425588,29.1269706 20.6097353,29.1269706 Z M7.02667647,27.9210882 L20.0067941,27.9210882 L20.0067941,26.9117647 C20.0067941,26.3679118 19.6884412,25.8674706 19.1964412,25.6347353 C19.1771471,25.6250882 19.1578529,25.6154412 19.1397647,25.6033824 L15.0699118,23.1120294 C14.883,22.9974706 14.7720588,22.7912647 14.7817059,22.5717941 C14.7925588,22.3523235 14.9191765,22.1557647 15.1145294,22.0580882 C16.2528824,21.4901176 16.9896765,20.3626176 17.0367059,19.1145294 L17.1597059,15.9358235 C17.1597059,14.2174412 15.7150588,12.8005294 13.9375882,12.8005294 L13.0958824,12.8005294 C11.3196176,12.8005294 9.87497059,14.2174412 9.87497059,15.9587353 L9.99676471,19.1145294 C10.0437941,20.359 10.7769706,21.4865 11.9129118,22.0556765 C12.1082647,22.1533529 12.2360882,22.3499118 12.2445294,22.5681765 C12.2529706,22.7876471 12.1432353,22.9938529 11.9575294,23.1084118 L7.89370588,25.6021765 C7.34502941,25.8662647 7.02788235,26.3667059 7.02788235,26.9093529 L7.02788235,27.9210882 L7.02667647,27.9210882 Z" id="Shape" fill-rule="nonzero"></path>
                <g transform="translate(25.323529, 13.647059)" id="Path">
                    <path d="M8.19758824,1.96197059 L0.748852941,1.96197059 C0.416029412,1.96197059 0.145911765,1.69185294 0.145911765,1.35902941 C0.145911765,1.02620588 0.416029412,0.756088235 0.748852941,0.756088235 L8.19758824,0.756088235 C8.53041176,0.756088235 8.80052941,1.02620588 8.80052941,1.35902941 C8.80052941,1.69185294 8.53041176,1.96197059 8.19758824,1.96197059 Z"></path>
                    <path d="M8.19758824,7.31488235 L0.748852941,7.31488235 C0.416029412,7.31488235 0.145911765,7.04476471 0.145911765,6.71194118 C0.145911765,6.37911765 0.416029412,6.109 0.748852941,6.109 L8.19758824,6.109 C8.53041176,6.109 8.80052941,6.37911765 8.80052941,6.71194118 C8.80052941,7.04476471 8.53041176,7.31488235 8.19758824,7.31488235 Z"></path>
                    <path d="M8.19758824,12.6714118 L0.748852941,12.6714118 C0.416029412,12.6714118 0.145911765,12.4012941 0.145911765,12.0684706 C0.145911765,11.7356471 0.416029412,11.4655294 0.748852941,11.4655294 L8.19758824,11.4655294 C8.53041176,11.4655294 8.80052941,11.7356471 8.80052941,12.0684706 C8.80052941,12.4012941 8.53041176,12.6714118 8.19758824,12.6714118 Z"></path>
                </g>
            </g>
        </g>
    </g>
</svg>
