<?xml version="1.0" encoding="UTF-8"?>
<svg width="60px" height="60px" viewBox="0 0 60 60" version="1.1" xmlns="http://www.w3.org/2000/svg" xmlns:xlink="http://www.w3.org/1999/xlink">
    <!-- Generator: Sketch 52.6 (67491) - http://www.bohemiancoding.com/sketch -->
    <title>box_05</title>
    <desc>Created with Sketch.</desc>
    <g id="box_05" stroke="none" stroke-width="1" fill="none" fill-rule="evenodd">
        <g id="headset" transform="translate(12.000000, 9.000000)" fill="#FFFFFF" fill-rule="nonzero" stroke="#FFFFFF">
            <path d="M35.5923999,19.88859 C35.2392337,19.2861568 34.6477794,18.854791 33.9591207,18.6975129 L33.9591207,14.9883868 C33.9591207,6.73078488 26.7921938,0 17.983862,0 C9.17553018,0 2.00860336,6.73078488 2.00860336,14.9883868 L2.00860336,18.6975129 C1.31720213,18.8642836 0.727982422,19.30774 0.383449886,19.9205652 C0.115604279,20.4284717 -0.0159315803,20.9953325 0.00153881949,21.5672893 L0.00153881949,29.7289655 C-0.0145095711,30.2982244 0.116924716,30.8621875 0.383449886,31.3676958 C0.927774727,32.2869835 1.96340378,32.8135755 3.04057582,32.718649 L4.30006976,32.718649 C4.35166838,33.5639941 5.06439975,34.2229835 5.92522323,34.2214846 L7.35535829,34.2214846 C8.25295087,34.2214846 8.98051176,33.5057392 8.98051176,32.6227234 L8.98051176,18.5136553 C8.98051176,17.6306395 8.25295087,16.9148941 7.35535829,16.9148941 L5.88459439,16.9148941 C4.98700182,16.9148941 4.25944092,17.6306395 4.25944092,18.5136553 L4.25944092,18.5776058 L3.60125376,18.5776058 L3.60125376,14.9883868 C3.60125376,7.60210976 10.0368615,1.59876125 17.9513589,1.59876125 C25.8658564,1.59876125 32.3014641,7.60210976 32.3014641,14.9883868 L32.3014641,18.5776058 L31.643277,18.5776058 L31.643277,18.5136553 C31.643277,17.6306395 30.9157161,16.9148941 30.0181235,16.9148941 L28.6529946,16.9148941 C27.755402,16.9148941 27.0278411,17.6306395 27.0278411,18.5136553 L27.0278411,32.67868 C27.0473429,33.4789599 27.6654091,34.1416465 28.4742277,34.2294784 C28.3192287,35.2461907 27.8611385,36.1948556 27.1578534,36.9553664 C25.8821079,38.3462887 23.8019114,39.1456693 20.9985217,39.3535083 L20.9985217,39.0017808 C20.9546426,38.0806944 20.1637007,37.3668475 19.2271044,37.4030195 L15.7411502,37.4030195 C14.804554,37.3668475 14.0136121,38.0806944 13.9697329,39.0017808 L13.9697329,41.3999227 C14.0136121,42.321009 14.804554,43.0348559 15.7411502,42.9986839 L19.2596075,42.9986839 C20.1962037,43.0348559 20.9871456,42.321009 21.0310248,41.3999227 L21.0310248,40.9522695 C24.3219606,40.7364367 26.8084454,39.7611924 28.39297,38.042524 C29.3803523,36.9849435 30.0030908,35.6476796 30.1725131,34.2214846 C30.9926061,34.1746209 31.6481524,33.533118 31.7001573,32.7266429 L32.9596513,32.7266429 C34.0367217,32.8215693 35.0724524,32.2949773 35.6167772,31.3756896 C35.8833024,30.8701813 36.0147367,30.3062182 35.9986883,29.7369593 L35.9986883,21.5672893 C36.0142288,20.9824425 35.8741609,20.4037908 35.5923999,19.88859 Z M5.92522323,31.1838382 L5.92522323,20.1443918 C5.93355214,20.0512639 5.93355214,19.9577364 5.92522323,19.8646086 L5.92522323,18.5456305 L7.29035215,18.5056615 L7.29035215,32.6307172 L5.92522323,32.6307172 L5.92522323,31.1838382 Z M4.30006976,20.1044228 L4.30006976,31.1198878 L3.04057582,31.1198878 C2.0979868,31.1198878 1.87859108,30.7281913 1.80545918,30.5922966 C1.67402489,30.320707 1.61257377,30.0214389 1.62669229,29.7209717 L1.62669229,21.5672893 C1.60871403,21.2648237 1.66732113,20.9626578 1.79733341,20.6879706 C1.87046531,20.5600697 2.08986103,20.1603794 3.03245005,20.1603794 L4.30006976,20.1044228 Z M19.4383744,40.1688765 L19.4383744,41.2640279 C19.4022147,41.3290775 19.3347708,41.3712449 19.2596075,41.3759412 L15.7411502,41.3759412 C15.6978805,41.3790388 15.6544076,41.3790388 15.6111379,41.3759412 L15.6111379,39.0417498 C15.6565407,39.0049783 15.7151478,38.9876917 15.7736533,38.993787 L19.2921106,38.993787 C19.381494,38.993787 19.4383744,38.993787 19.4383744,38.993787 L19.4383744,40.1688765 Z M30.0506265,20.1443918 L30.0506265,32.6307172 L29.4086909,32.6307172 L29.3111817,32.6307172 L29.2461756,32.6307172 L28.6773719,32.6307172 L28.6773719,18.5136553 L30.0750039,18.5136553 L30.0506265,20.1443918 Z M34.1622648,30.6082842 C34.0891329,30.7361851 33.8697372,31.1358754 32.9271482,31.1358754 L31.67578,31.1358754 L31.67578,20.176367 L32.9271482,20.176367 C33.8697372,20.176367 34.0891329,20.5680635 34.1622648,20.7039582 C34.2936991,20.9755478 34.3551502,21.2748159 34.3410317,21.5752831 L34.3410317,29.7369593 C34.3550487,30.0374265 34.2936991,30.3366946 34.1622648,30.6082842 Z" id="Shape"></path>
        </g>
    </g>
</svg>
