<?xml version="1.0" encoding="UTF-8"?>
<svg width="75px" height="75px" viewBox="0 0 75 75" version="1.1" xmlns="http://www.w3.org/2000/svg" xmlns:xlink="http://www.w3.org/1999/xlink">
    <!-- Generator: Sketch 52.6 (67491) - http://www.bohemiancoding.com/sketch -->
    <title>box_2_06</title>
    <desc>Created with Sketch.</desc>
    <g id="box_2_06" stroke="none" stroke-width="1" fill="none" fill-rule="evenodd">
        <g id="suitcase" transform="translate(10.000000, 16.000000)" fill="#000000" fill-rule="nonzero" stroke="#000000">
            <path d="M47.5,7.5 L36.6666667,7.5 L36.6666667,4.16666667 C36.6638183,1.8664551 34.8002116,0.0028483125 32.5,0 L17.5,0 C15.1997884,0.0028483125 13.3361817,1.8664551 13.3333333,4.16666667 L13.3333333,7.5 L2.5,7.5 C1.11938479,7.5 0,8.61938479 0,10 L0,28.5498047 C0.00528970833,29.6069335 0.671386667,30.5472819 1.66666667,30.9025065 L1.66666667,42.5 C1.66666667,43.8806152 2.78605146,45 4.16666667,45 L45.8333333,45 C47.2139485,45 48.3333333,43.8806152 48.3333333,42.5 L48.3333333,30.9033203 C49.3286133,30.5476887 49.9951172,29.6069335 50,28.5498047 L50,10 C50,8.61938479 48.8806152,7.5 47.5,7.5 Z M15,4.16666667 C15,2.78605146 16.1193848,1.66666667 17.5,1.66666667 L32.5,1.66666667 C33.8806152,1.66666667 35,2.78605146 35,4.16666667 L35,7.5 L33.3333333,7.5 L33.3333333,4.16666667 C33.3333333,3.70646156 32.9602051,3.33333333 32.5,3.33333333 L17.5,3.33333333 C17.0397949,3.33333333 16.6666667,3.70646156 16.6666667,4.16666667 L16.6666667,7.5 L15,7.5 L15,4.16666667 Z M31.6666667,7.5 L18.3333333,7.5 L18.3333333,5 L31.6666667,5 L31.6666667,7.5 Z M46.6666667,42.5 C46.6666667,42.9602051 46.2935384,43.3333333 45.8333333,43.3333333 L4.16666667,43.3333333 C3.70646156,43.3333333 3.33333333,42.9602051 3.33333333,42.5 L3.33333333,31.1889648 L21.6666667,33.7174479 L21.6666667,35.8333333 C21.6666667,37.2139485 22.7860515,38.3333333 24.1666667,38.3333333 L25.8333333,38.3333333 C27.2139485,38.3333333 28.3333333,37.2139485 28.3333333,35.8333333 L28.3333333,33.7174479 L46.6666667,31.1889648 L46.6666667,42.5 Z M26.6666667,35.8333333 C26.6666667,36.2935384 26.2935384,36.6666667 25.8333333,36.6666667 L24.1666667,36.6666667 C23.7064616,36.6666667 23.3333333,36.2935384 23.3333333,35.8333333 L23.3333333,30.8333333 C23.3333333,30.3731282 23.7064616,30 24.1666667,30 L25.8333333,30 C26.2935384,30 26.6666667,30.3731282 26.6666667,30.8333333 L26.6666667,35.8333333 Z M48.3333333,28.5498047 C48.3337402,28.9652506 48.0281575,29.317627 47.6167806,29.3758138 L47.3856608,29.4075521 L28.3333333,32.0349121 L28.3333333,30.8333333 C28.3333333,29.4527181 27.2139485,28.3333333 25.8333333,28.3333333 L24.1666667,28.3333333 C22.7860515,28.3333333 21.6666667,29.4527181 21.6666667,30.8333333 L21.6666667,32.0349121 L2.38403323,29.3758138 C1.97265625,29.3180339 1.66625979,28.9656575 1.66666667,28.5498047 L1.66666667,10 C1.66666667,9.5397949 2.0397949,9.16666667 2.5,9.16666667 L47.5,9.16666667 C47.9602051,9.16666667 48.3333333,9.5397949 48.3333333,10 L48.3333333,28.5498047 Z" id="Shape"></path>
        </g>
    </g>
</svg>
