<?xml version="1.0" encoding="UTF-8"?>
<svg width="75px" height="75px" viewBox="0 0 75 75" version="1.1" xmlns="http://www.w3.org/2000/svg" xmlns:xlink="http://www.w3.org/1999/xlink">
    <!-- Generator: Sketch 52.6 (67491) - http://www.bohemiancoding.com/sketch -->
    <title>box_2_04</title>
    <desc>Created with Sketch.</desc>
    <g id="box_2_04" stroke="none" stroke-width="1" fill="none" fill-rule="evenodd">
        <g id="businessman" transform="translate(13.000000, 10.000000)" stroke="#000000" stroke-width="3">
            <path d="M13.3333333,16.5614628 C13.6826576,21.2025687 15.5073171,19.2020999 15.8837364,21.2358683 C16.5096091,24.6165724 19.4683408,27.0617157 21.3101307,27.9063254 C22.3846387,28.3987973 23.4911681,28.6459394 24.6545747,28.6656473 L24.6545747,28.6666667 C24.6586053,28.6666667 24.662636,28.6662136 24.6666667,28.6662136 C24.6706973,28.6662136 24.674728,28.6666667 24.6787587,28.6666667 L24.6787587,28.6656473 C25.8420533,28.6459394 26.9484707,28.3989106 28.0232027,27.9063254 C29.8649925,27.0617157 32.8237243,24.6165724 33.4495969,21.2358683 C33.8260162,19.2022131 35.6506757,21.2025687 36,16.5614628 C36,14.7118616 35.0037541,14.2515567 35.0037541,14.2515567 C35.0037541,14.2515567 35.5101623,11.5138525 35.7085606,9.40725522 C35.9543191,6.78190884 34.1937024,0 24.8023657,0 C24.7612753,0 24.7232079,0.0022652801 24.6831252,0.00271833613 C24.6816697,0.00271833613 24.6803261,0.00271833613 24.6788706,0.00260507212 L24.6788706,0.0021520161 C24.67484,0.0022652801 24.6708093,0.00237854411 24.6667786,0.00237854411 C24.662748,0.00237854411 24.6587173,0.0022652801 24.6546866,0.0021520161 L24.6546866,0.00271833613 C24.6532311,0.00283160013 24.6518876,0.00283160013 24.650432,0.00283160013 C24.6103493,0.0022652801 24.5722819,0.000113264005 24.5311915,0.000113264005 C15.1399668,0.000113264005 13.3792381,6.7820221 13.6249967,9.40736848 C13.823283,11.5139657 14.3298032,14.25167 14.3298032,14.25167 C14.3298032,14.25167 13.3333333,14.7118616 13.3333333,16.5614628 Z" id="Path"></path>
            <path d="M46.539972,39.4846639 C41.735204,37.044683 34.7710842,33.9970591 34.4368582,33.8894746 C34.4331105,33.8881142 34.4302714,33.8878875 34.4266372,33.8867538 C34.2311894,33.8172603 34.0210916,33.7787158 33.8015677,33.7787158 C32.9852523,33.7787158 32.2928378,34.3006539 32.0359506,35.0281248 C32.0345878,35.0272179 32.033225,35.0266511 32.0318622,35.0257441 C30.7917169,38.0089759 28.5136882,43.3267581 27.0992184,45.8909884 L26.7585192,38.7020969 C26.7585192,38.7020969 28.882779,34.2015718 29.1152495,33.7892589 C29.6626396,32.8228119 29.1696478,32 28.1434616,32 C27.634457,32 26.3610367,32 25.0855723,32 C25.0840959,32 25.0827331,32 25.0812568,32 C25.07308,32 25.0649032,32 25.0567264,32 C25.0552501,32 25.0538873,32 25.0524109,32 C25.0349217,32 25.0174324,32 24.9999432,32 C24.982454,32 24.9649648,32 24.9474755,32 C24.9459992,32 24.9446364,32 24.94316,32 C24.9349832,32 24.9268064,32 24.9186297,32 C24.9171533,32 24.9157905,32 24.9143141,32 C23.6389633,32 22.3656566,32 21.8564248,32 C20.8302386,32 20.3373604,32.8228119 20.884637,33.7892589 C21.117221,34.2015718 23.2413672,38.7020969 23.2413672,38.7020969 L22.9007816,45.8909884 C21.4863118,43.3267581 19.2082831,38.009316 17.9681378,35.0257441 C17.966775,35.0266511 17.9654122,35.0272179 17.9640494,35.0281248 C17.7071622,34.300994 17.0147477,33.7787158 16.1984323,33.7787158 C15.9789084,33.7787158 15.7688106,33.8172603 15.5733628,33.8867538 C15.5697286,33.8881142 15.5668895,33.8884543 15.5631418,33.8894746 C15.2290294,33.9970591 8.264796,37.044683 3.46002803,39.4846639 C1.3022661,40.5804617 0,41.9433502 0,43.3776595 C0,48.1193146 0,54.6666667 0,54.6666667 L24.8968249,54.6666667 L24.9185161,54.6666667 L24.9304406,54.6666667 L24.931122,54.6666667 L24.9432736,54.6666667 L24.9649648,54.6666667 L25.0000568,54.6666667 L25.0351488,54.6666667 L25.05684,54.6666667 L25.0687645,54.6666667 L25.0694459,54.6666667 L25.0813703,54.6666667 L25.1030615,54.6666667 L50,54.6666667 C50,54.6666667 50,48.1193146 50,43.3776595 C49.9998864,41.9433502 48.6977339,40.5804617 46.539972,39.4846639 Z" id="Path" stroke-linecap="round" stroke-linejoin="round"></path>
        </g>
    </g>
</svg>
