<?xml version="1.0" encoding="UTF-8"?>
<svg width="60px" height="60px" viewBox="0 0 60 60" version="1.1" xmlns="http://www.w3.org/2000/svg" xmlns:xlink="http://www.w3.org/1999/xlink">
    <!-- Generator: Sketch 52.6 (67491) - http://www.bohemiancoding.com/sketch -->
    <title>box_04</title>
    <desc>Created with Sketch.</desc>
    <g id="box_04" stroke="none" stroke-width="1" fill="none" fill-rule="evenodd">
        <g id="edit" transform="translate(8.000000, 8.000000)" fill="#FFFFFF" fill-rule="nonzero" stroke="#FFFFFF">
            <path d="M43.3599813,2.79159305 L41.2705733,0.653271776 C40.4172151,-0.21750725 39.0294083,-0.218257275 38.1760501,0.654021801 L35.8842994,2.99859995 L0,2.99859995 L0,45 L41.0550344,45 L41.0550344,8.31627721 L41.2786377,8.08751958 L43.3599813,5.95819861 C44.2133396,5.08516951 44.2133396,3.66462215 43.3599813,2.79159305 Z M14.6969692,27.5634188 L17.0576337,29.9784993 L13.8113534,30.8845295 L14.6969692,27.5634188 Z M38.1679857,9.14805494 L35.0580669,5.96644888 L36.0947065,4.90591353 L39.2053585,8.08751958 L38.1679857,9.14805494 Z M37.1313461,10.2085903 L18.4689005,29.3012267 L15.3589816,26.1196207 L34.0214273,7.02698423 L37.1313461,10.2085903 Z M39.5887832,9.81632721 L39.5887832,43.49995 L1.46625123,43.49995 L1.46625123,4.49864995 L34.4180482,4.49864995 L13.8040222,25.589353 L13.6661946,25.7303577 L12.1112352,31.5648022 L11.2124231,32.4843328 C10.925771,32.7775926 10.925771,33.2516084 11.2124231,33.5448682 C11.3553826,33.691123 11.5430628,33.7646255 11.730743,33.7646255 C11.9184231,33.7646255 12.1061033,33.691123 12.2490628,33.5448682 L13.1478748,32.6253375 L18.8508589,31.0330344 L38.169452,11.2698757 L38.4971591,10.9346145 L39.5887832,9.81632721 Z M42.3233417,4.89766326 L40.2419981,7.02698423 L37.1313461,3.84462815 L39.2126897,1.71530718 C39.49421,1.42729758 39.9524135,1.4280476 40.2339337,1.71530718 L42.3233417,3.85287843 C42.604862,4.140138 42.604862,4.60965366 42.3233417,4.89766326 Z" id="Shape"></path>
        </g>
    </g>
</svg>
