<?xml version="1.0" encoding="UTF-8"?>
<svg width="75px" height="75px" viewBox="0 0 75 75" version="1.1" xmlns="http://www.w3.org/2000/svg" xmlns:xlink="http://www.w3.org/1999/xlink">
    <!-- Generator: Sketch 52.6 (67491) - http://www.bohemiancoding.com/sketch -->
    <title>box_2_03</title>
    <desc>Created with Sketch.</desc>
    <g id="box_2_03" stroke="none" stroke-width="1" fill="none" fill-rule="evenodd">
        <g id="open-book-copy" transform="translate(1.000000, 14.000000)" fill="#000000">
            <path d="M51.3681287,24.6657895 C51.5153021,24.9536062 51.8080897,25.119883 52.1108187,25.119883 C52.237232,25.119883 52.3669591,25.0907407 52.4876218,25.0292398 C52.5366472,25.0042885 57.4321637,22.5174464 59.8465887,21.7547758 C60.2841131,21.6158869 60.5269006,21.1484405 60.3880117,20.7110136 C60.2499025,20.2734893 59.7858674,20.0298246 59.3442495,20.1679337 C56.8008772,20.9722222 51.938694,23.4423977 51.7324561,23.5471735 C51.3231969,23.7550682 51.1602339,24.255848 51.3681287,24.6657895 Z" id="Path"></path>
            <path d="M52.1108187,15.1394737 C52.237232,15.1394737 52.3669591,15.1103314 52.4876218,15.0488304 C52.5366472,15.0238791 57.4321637,12.537037 59.8465887,11.7743665 C60.2841131,11.6354776 60.5269006,11.1680312 60.3880117,10.7306043 C60.2499025,10.2930799 59.7858674,10.0494152 59.3442495,10.1875244 C56.8008772,10.9918129 51.938694,13.4619883 51.7324561,13.5667641 C51.3232943,13.7746589 51.1602339,14.2753411 51.3681287,14.6853801 C51.5153021,14.9730994 51.8080897,15.1394737 52.1108187,15.1394737 Z" id="Path" stroke="#000000"></path>
            <path d="M23.0001949,19 L24.6635478,19 L24.6635478,46.7444444 C24.6635478,48.120078 25.7830409,49.2395712 27.1586745,49.2395712 L47.1196881,49.2395712 L47.1196881,47.2842105 C46.1049708,46.8592593 43.5067251,45.912768 40.4659844,45.912768 C33.1952242,45.912768 27.4439571,47.5279727 27.3865497,47.5437622 C27.3116959,47.5653996 27.2351852,47.5762183 27.1586745,47.5762183 C26.9798246,47.5762183 26.8035088,47.5188109 26.657115,47.4081871 C26.45,47.2509747 26.3269006,47.0047758 26.3269006,46.7444444 L26.3269006,19 L27.9903509,19 L27.9903509,45.6739766 C30.0180312,45.1940546 34.7371345,44.2492203 40.4659844,44.2492203 C44.0457115,44.2492203 47.0048733,45.4103314 47.9838207,45.8427875 C49.0850877,45.4393762 52.6447368,44.2492203 56.2685185,44.2492203 C61.8426901,44.2492203 66.0277778,45.1449318 67.9124756,45.6389864 L67.9124756,10.8253411 C67.6380117,10.7703704 67.2820663,10.7013645 66.8570175,10.6231969 C66.4053606,10.5400585 66.1068226,10.1067251 66.189961,9.6542885 C66.2731969,9.20350877 66.7080897,8.90409357 67.1580897,8.98723197 C68.2726121,9.19191033 68.9246589,9.3374269 68.9246589,9.3374269 C69.305653,9.4214425 69.5759259,9.75916179 69.5759259,10.1492203 L69.5759259,46.7442495 C69.5759259,47.011306 69.4478558,47.2624756 69.2307992,47.4188109 C69.0120858,47.5752437 68.7325536,47.6167641 68.4822612,47.5336257 C68.4332359,47.5170565 63.5136452,45.9126706 56.268616,45.9126706 C53.1546784,45.9126706 49.9959064,46.9015595 48.7832359,47.325731 L48.7832359,49.2394737 L68.7442495,49.2394737 C70.119883,49.2394737 71.2393762,48.1199805 71.2393762,46.744347 L71.2393762,14.3076998 C71.2393762,13.8486355 71.6111111,13.4760234 72.0710526,13.4760234 C72.5309942,13.4760234 72.902729,13.8486355 72.9028265,14.3077973 L72.9028265,46.7444444 C72.9028265,49.0375244 71.037232,50.9030214 68.7442495,50.9030214 L27.1587719,50.9030214 C24.865692,50.9030214 23.0001949,49.0374269 23.0001949,46.7444444 L23.0001949,19 Z M48.7830409,19 L48.7830409,41.9729045 C51.3172515,40.5307992 57.2448343,37.3095517 62.9221248,35.3367446 L62.9221248,3.04814815 C56.8066277,5.50750487 50.9488304,9.15204678 50.8873294,9.1911306 C50.497271,9.43479532 49.9841131,9.31588694 49.7412281,8.92660819 C49.4975634,8.53732943 49.6164717,8.02417154 50.0057505,7.78050682 C50.0731969,7.73888889 56.8066277,3.54873294 63.4611111,1.05282651 C63.7181287,0.95711501 64.004191,0.99288499 64.2270955,1.14844055 C64.4516569,1.30389864 64.585575,1.55925926 64.585575,1.83206628 L64.585575,35.9321637 C64.585575,36.2906433 64.3568226,36.6075049 64.0166667,36.7214425 C56.7026316,39.1591618 48.4620858,44.0812865 48.3797271,44.1303119 C48.1227096,44.2849903 47.8016569,44.2891813 47.5413255,44.1411306 C47.2809942,43.9939571 47.1196881,43.7169591 47.1196881,43.4175439 L47.1196881,19 L48.7830409,19 Z" id="Combined-Shape" stroke="#000000"></path>
            <path d="M51.3681287,19.6755361 C51.5153021,19.9633528 51.8080897,20.1296296 52.1108187,20.1296296 C52.237232,20.1296296 52.3669591,20.1004873 52.4876218,20.0389864 C52.5366472,20.0140351 57.4321637,17.527193 59.8465887,16.7645224 C60.2841131,16.6256335 60.5269006,16.1581871 60.3880117,15.7207602 C60.2499025,15.2832359 59.7858674,15.0395712 59.3442495,15.1776803 C56.8008772,15.9819688 51.938694,18.4521442 51.7324561,18.5569201 C51.3231969,18.7648148 51.1602339,19.2655945 51.3681287,19.6755361 Z" id="Path" stroke="#000000"></path>
            <path d="M51.3681287,29.6560429 C51.5153021,29.9438596 51.8080897,30.1101365 52.1108187,30.1101365 C52.237232,30.1101365 52.3669591,30.0809942 52.4876218,30.0194932 C52.5366472,29.9945419 57.4321637,27.5076998 59.8465887,26.7450292 C60.2841131,26.6061404 60.5269006,26.138694 60.3880117,25.7012671 C60.2499025,25.2637427 59.7858674,25.020078 59.3442495,25.1581871 C56.8008772,25.9624756 51.938694,28.4326511 51.7324561,28.5374269 C51.3231969,28.7453216 51.1602339,29.2461014 51.3681287,29.6560429 Z" id="Path" stroke="#000000"></path>
            <path d="M43.1508772,16.4352827 C38.0151072,15.230117 32.1789474,16.7654971 31.9336257,16.8311891 C31.4903509,16.9500975 31.2267057,17.405848 31.345614,17.85 C31.4454191,18.2217349 31.781384,18.4662768 32.1482456,18.4662768 C32.2197856,18.4662768 32.2921053,18.457115 32.3645224,18.4380117 C32.4202729,18.4222222 38.0392788,16.9442495 42.7717349,18.0545809 C43.2166667,18.158577 43.6666667,17.8815789 43.7714425,17.4341131 C43.8761209,16.9875244 43.5983431,16.5400585 43.1508772,16.4352827 Z" id="Path" stroke="#000000"></path>
            <path d="M43.1508772,21.4255361 C38.0151072,20.2212476 32.1789474,21.7557505 31.9336257,21.8214425 C31.4903509,21.9403509 31.2267057,22.3961988 31.345614,22.8402534 C31.4454191,23.2119883 31.781384,23.4565302 32.1482456,23.4565302 C32.2197856,23.4565302 32.2921053,23.4473684 32.3645224,23.4282651 C32.4202729,23.4124756 38.0392788,21.9345029 42.7717349,23.0448343 C43.2166667,23.1488304 43.6666667,22.8718324 43.7714425,22.4243665 C43.8761209,21.9777778 43.5983431,21.5303119 43.1508772,21.4255361 Z" id="Path" stroke="#000000"></path>
            <path d="M51.3681287,34.6462963 C51.5153021,34.9341131 51.8080897,35.1003899 52.1108187,35.1003899 C52.237232,35.1003899 52.3669591,35.0712476 52.4876218,35.0097466 C52.5366472,34.9847953 57.4321637,32.4979532 59.8465887,31.7352827 C60.2841131,31.5963938 60.5269006,31.1289474 60.3880117,30.6915205 C60.2499025,30.2540936 59.7858674,30.0103314 59.3442495,30.1484405 C56.8008772,30.952729 51.938694,33.4229045 51.7324561,33.5276803 C51.3231969,33.735575 51.1602339,34.2363548 51.3681287,34.6462963 Z" id="Path" stroke="#000000"></path>
            <path d="M43.1508772,26.4157895 C38.0151072,25.211501 32.1789474,26.7451267 31.9336257,26.8116959 C31.4903509,26.9306043 31.2267057,27.3864522 31.345614,27.8305068 C31.4454191,28.2022417 31.781384,28.4476608 32.1482456,28.4476608 C32.2197856,28.4476608 32.2921053,28.4377193 32.3645224,28.4185185 C32.4202729,28.402729 38.0392788,26.9247563 42.7717349,28.0350877 C43.2166667,28.1390838 43.6666667,27.8620858 43.7714425,27.4146199 C43.8761209,26.9680312 43.5983431,26.5205653 43.1508772,26.4157895 Z" id="Path" stroke="#000000"></path>
            <path d="M43.1508772,36.3962963 C38.0151072,35.1911306 32.1789474,36.7265107 31.9336257,36.7922027 C31.4903509,36.9111111 31.2267057,37.3669591 31.345614,37.8110136 C31.4454191,38.1827485 31.781384,38.4281676 32.1482456,38.4281676 C32.2197856,38.4281676 32.2921053,38.4182261 32.3645224,38.3990253 C32.4202729,38.3832359 38.0392788,36.9052632 42.7717349,38.0155945 C43.2166667,38.1187135 43.6666667,37.8425926 43.7714425,37.3951267 C43.8761209,36.948538 43.5983431,36.5010721 43.1508772,36.3962963 Z" id="Path" stroke="#000000"></path>
            <path d="M43.1508772,31.4060429 C38.0151072,30.2008772 32.1789474,31.7353801 31.9336257,31.8019493 C31.4903509,31.9208577 31.2267057,32.3767057 31.345614,32.8207602 C31.4454191,33.1924951 31.781384,33.4379142 32.1482456,33.4379142 C32.2197856,33.4379142 32.2921053,33.4279727 32.3645224,33.4087719 C32.4202729,33.3929825 38.0392788,31.9150097 42.7717349,33.0253411 C43.2166667,33.1293372 43.6666667,32.8523392 43.7714425,32.4048733 C43.8761209,31.9582846 43.5983431,31.5108187 43.1508772,31.4060429 Z" id="Path" stroke="#000000"></path>
            <path d="M3.952,12.4770493 L3.952,2.25304932 L0.496,2.25304932 L0.496,0.70104932 L9.28,0.70104932 L9.28,2.25304932 L5.808,2.25304932 L5.808,12.4770493 L3.952,12.4770493 Z M14.928,12.6850493 C11.904,12.6850493 9.808,10.3330493 9.808,6.54104932 C9.808,2.74904932 11.904,0.47704932 14.928,0.47704932 C17.952,0.47704932 20.064,2.74904932 20.064,6.54104932 C20.064,10.3330493 17.952,12.6850493 14.928,12.6850493 Z M14.928,11.0690493 C16.88,11.0690493 18.16,9.30904932 18.16,6.54104932 C18.16,3.77304932 16.88,2.09304932 14.928,2.09304932 C12.976,2.09304932 11.712,3.77304932 11.712,6.54104932 C11.712,9.30904932 12.976,11.0690493 14.928,11.0690493 Z M24.048,12.4770493 L24.048,2.25304932 L20.592,2.25304932 L20.592,0.70104932 L29.376,0.70104932 L29.376,2.25304932 L25.904,2.25304932 L25.904,12.4770493 L24.048,12.4770493 Z M32.048,7.66104932 L35.264,7.66104932 L34.8,6.07704932 C34.4,4.79704932 34.048,3.48504932 33.68,2.15704932 L33.616,2.15704932 C33.28,3.50104932 32.912,4.79704932 32.528,6.07704932 L32.048,7.66104932 Z M36.704,12.4770493 L35.712,9.11704932 L31.616,9.11704932 L30.608,12.4770493 L28.72,12.4770493 L32.624,0.70104932 L34.768,0.70104932 L38.672,12.4770493 L36.704,12.4770493 Z M39.808,12.4770493 L39.808,0.70104932 L41.664,0.70104932 L41.664,10.9090493 L46.64,10.9090493 L46.64,12.4770493 L39.808,12.4770493 Z" id="TOTAL" stroke="#000000"></path>
        </g>
    </g>
</svg>
