<?xml version="1.0" encoding="UTF-8"?>
<svg width="75px" height="75px" viewBox="0 0 75 75" version="1.1" xmlns="http://www.w3.org/2000/svg" xmlns:xlink="http://www.w3.org/1999/xlink">
    <!-- Generator: Sketch 52.6 (67491) - http://www.bohemiancoding.com/sketch -->
    <title>box_2_07</title>
    <desc>Created with Sketch.</desc>
    <g id="box_2_07" stroke="none" stroke-width="1" fill="none" fill-rule="evenodd">
        <g id="ambulance" transform="translate(7.000000, 7.000000)">
            <path d="M58.3818182,35.3177348 C56.9818182,33.9338759 55.2181818,33.0712106 53.3090909,32.8195999 L46.1272727,15.0630722 L43.1272727,15.0630722 L43.1272727,13.3017972 C43.1272727,10.3723296 40.7272727,8 37.7636364,8 C34.8,8 32.4,10.3723296 32.4,13.3017972 L32.4,15.0630722 L0,15.0630722 L0,53.9369278 L7.27272727,53.9369278 C7.27272727,57.8368939 10.4727273,61 14.4181818,61 C18.3636364,61 21.5636364,57.8368939 21.5636364,53.9369278 L39.5636364,53.9369278 C39.5636364,57.8368939 42.7636364,61 46.7090909,61 C50.6545455,61 53.8545455,57.8368939 53.8545455,53.9369278 L61,53.9369278 L61,41.5720583 C61,39.2177009 60.0727273,36.9891489 58.3818182,35.3177348 Z M32.4,32.7297389 L32.4,25.6666667 L35.9818182,25.6666667 L35.9818182,32.7297389 L32.4,32.7297389 Z M39.5454545,25.6666667 L46.5636364,25.6666667 L49.4181818,32.7297389 L39.5454545,32.7297389 L39.5454545,25.6666667 Z M35.9818182,13.3017972 C35.9818182,12.3312987 36.7818182,11.5405222 37.7636364,11.5405222 C38.7454545,11.5405222 39.5454545,12.3312987 39.5454545,13.3017972 L39.5454545,15.0630722 L35.9636364,15.0630722 L35.9636364,13.3017972 L35.9818182,13.3017972 Z M43.7090909,18.6035944 L45.1454545,22.1441166 L28.8363636,22.1441166 L28.8363636,36.2702611 C30.8727273,36.2702611 51.0727273,36.2702611 52.0727273,36.2702611 C53.5090909,36.2702611 54.8545455,36.8273991 55.8727273,37.8158698 C56.4545455,38.39098 56.8727273,39.0559512 57.1454545,39.7928111 L3.56363636,39.7928111 L3.56363636,18.5856222 L43.7090909,18.5856222 L43.7090909,18.6035944 Z M14.4181818,57.47745 C12.4545455,57.47745 10.8363636,55.8958969 10.8363636,53.9369278 C10.8363636,51.9959308 12.4363636,50.3964056 14.4181818,50.3964056 C16.3818182,50.3964056 18,51.9779586 18,53.9369278 C17.9818182,55.8779247 16.3818182,57.47745 14.4181818,57.47745 Z M46.7090909,57.47745 C44.7454545,57.47745 43.1272727,55.8958969 43.1272727,53.9369278 C43.1272727,51.9959308 44.7272727,50.3964056 46.7090909,50.3964056 C48.6727273,50.3964056 50.2909091,51.9779586 50.2909091,53.9369278 C50.2727273,55.8779247 48.6727273,57.47745 46.7090909,57.47745 Z M52.8909091,50.3964056 C51.6545455,48.2936589 49.3454545,46.8558834 46.7090909,46.8558834 C44.0727273,46.8558834 41.7636364,48.2756867 40.5272727,50.3964056 L20.6,50.3964056 C19.3636364,48.2936589 17.0545455,46.8558834 14.4181818,46.8558834 C11.7818182,46.8558834 9.47272727,48.2756867 8.23636364,50.3964056 L3.58181818,50.3964056 L3.58181818,43.3333333 L57.4363636,43.3333333 L57.4363636,50.3964056 L52.8909091,50.3964056 Z" id="Shape" fill="#000000" fill-rule="nonzero"></path>
            <polygon id="Rectangle" fill="#000000" transform="translate(28.911676, 5.766203) rotate(-45.000000) translate(-28.911676, -5.766203) " points="27.1287553 3.98328271 30.6945964 3.98328271 30.6945964 7.54912388 27.1287553 7.54912388"></polygon>
            <polygon id="Rectangle" fill="#000000" transform="translate(46.524481, 5.767827) rotate(-45.000000) translate(-46.524481, -5.767827) " points="44.7415604 3.98490636 48.3074016 3.98490636 48.3074016 7.55074753 44.7415604 7.55074753"></polygon>
            <rect id="Rectangle" fill="#000000" x="36" y="0" width="4" height="4"></rect>
            <path d="M7,34 C7.0528117,33.0558988 7.2548134,32.2342879 7.60601118,31.5351427 C7.95720896,30.8359974 8.64243044,30.2006524 9.66169618,29.6290884 L11.1826654,28.7794015 C11.8639363,28.3966578 12.341875,28.0700547 12.6164958,27.7995825 C13.0495517,27.3760127 13.2660764,26.8912113 13.2660764,26.3451635 C13.2660764,25.7072573 13.0680355,25.2007674 12.6719478,24.8256785 C12.2758601,24.4505896 11.747751,24.263048 11.0876048,24.263048 C10.1105885,24.263048 9.4346089,24.6202701 9.05964585,25.3347251 C8.85896141,25.7174689 8.74805851,26.2481989 8.72693383,26.9269311 L7.27726002,26.9269311 C7.29310353,25.9726234 7.47530115,25.1943895 7.82385834,24.592206 C8.44175519,23.53073 9.53230035,23 11.0955266,23 C12.3946943,23 13.3439703,23.339361 13.943383,24.0180932 C14.5427958,24.6968255 14.8424977,25.4520951 14.8424977,26.2839248 C14.8424977,27.1616838 14.5229917,27.9118503 13.8839702,28.5344468 C13.5142883,28.8967775 12.8515115,29.3356504 11.8956198,29.8510786 L10.8103448,30.4328462 C10.2927902,30.7084217 9.88614624,30.9712351 9.59040075,31.2212944 C9.06228378,31.6652771 8.72957509,32.1577333 8.59226468,32.6986778 L14.7870457,32.6986778 L14.7870457,34 L7,34 Z M20.8788444,30.1189979 L20.8788444,25.151009 L17.2427773,30.1189979 L20.8788444,30.1189979 Z M20.9026095,34 L20.9026095,31.3208072 L15.9277726,31.3208072 L15.9277726,29.973556 L21.1244175,23.0076548 L22.3285182,23.0076548 L22.3285182,30.1189979 L24,30.1189979 L24,31.3208072 L22.3285182,31.3208072 L22.3285182,34 L20.9026095,34 Z" id="24" fill="#FFA300"></path>
        </g>
    </g>
</svg>
