<?xml version="1.0" encoding="UTF-8"?>
<svg width="75px" height="75px" viewBox="0 0 75 75" version="1.1" xmlns="http://www.w3.org/2000/svg" xmlns:xlink="http://www.w3.org/1999/xlink">
    <!-- Generator: Sketch 52.6 (67491) - http://www.bohemiancoding.com/sketch -->
    <title>box_2_08</title>
    <desc>Created with Sketch.</desc>
    <g id="box_2_08" stroke="none" stroke-width="1" fill="none" fill-rule="evenodd">
        <g id="limousine" transform="translate(1.000000, 25.000000)" fill="#000000">
            <rect id="Rectangle" x="18" y="19" width="40" height="3"></rect>
            <path d="M69.5586438,8.83970908 L60.9425647,7.92223858 L53.5808714,1.1746391 C52.7397002,0.421282767 51.6704588,0.00261475248 50.5666746,0 L16.7375726,0 C16.7351156,0 16.7326585,0 16.7302015,0 C15.1035036,0 13.5950321,0.862253082 12.7009625,2.30344312 L9.20692235,7.87501923 L4.93328123,7.87501923 C2.21262714,7.87501923 0,10.2296807 0,13.1249808 L0,19.6875481 C0,20.4133726 0.552542529,21 1.23328417,21 L8.63327828,21 L8.63327828,18.3749423 L2.46671288,18.3749423 L2.46671288,13.1249808 C2.46671288,11.6773308 3.57295418,10.4999231 4.93342576,10.4999231 L9.86670698,10.4999231 C10.2786207,10.4999231 10.6635071,10.2807453 10.8915773,9.91591044 L14.7556172,3.75509218 C15.195859,3.04772473 15.9334014,2.62505768 16.7326585,2.62505768 C16.7339593,2.62505768 16.7351156,2.62505768 16.7364164,2.62505768 L50.5630613,2.62505768 C51.0835179,2.62644196 51.5928456,2.82454791 51.9813453,3.17369427 L59.6280541,10.1824614 C59.820425,10.3570346 60.0584678,10.4659313 60.3100965,10.4934631 L69.3133745,11.4515392 C70.5849594,11.5867373 71.5395875,12.7155413 71.5333727,14.0830568 L71.5333727,18.3749423 L66.5999469,18.3749423 L66.5999469,21 L72.7666569,21 C73.4486993,21 73.999941,20.4133726 73.999941,19.6875481 L73.999941,14.0896706 C74.0122262,11.3689438 72.1031144,9.11272 69.5586438,8.83970908 Z" id="Path"></path>
            <path d="M13.5,13 C9.9158366,13 7,15.9158366 7,19.5 C7,23.0840111 9.9158366,26 13.5,26 C17.0840111,26 20,23.0841634 20,19.5 C19.9998477,15.9158366 17.0840111,13 13.5,13 Z M13.5,23.3999695 C11.3498371,23.3999695 9.60003047,21.6501629 9.60003047,19.5 C9.60003047,17.3498371 11.3498371,15.6000305 13.5,15.6000305 C15.6501629,15.6000305 17.3999695,17.3498371 17.3999695,19.5 C17.3999695,21.6501629 15.6501629,23.3999695 13.5,23.3999695 Z" id="Shape" fill-rule="nonzero"></path>
            <path d="M62.5,13 C58.9158366,13 56,15.9158366 56,19.5 C56,23.0840111 58.9158366,26 62.5,26 C66.0841634,26 69,23.0841634 69,19.5 C68.9998477,15.9158366 66.0840111,13 62.5,13 Z M62.5,23.3999695 C60.3498371,23.3999695 58.6000305,21.6501629 58.6000305,19.5 C58.6000305,17.3498371 60.3498371,15.6000305 62.5,15.6000305 C64.6501629,15.6000305 66.3999695,17.3498371 66.3999695,19.5 C66.3999695,21.6501629 64.6501629,23.3999695 62.5,23.3999695 Z" id="Shape" fill-rule="nonzero"></path>
            <rect id="Rectangle" x="10" y="8" width="50" height="3"></rect>
            <rect id="Rectangle" x="32" y="1" width="3" height="8"></rect>
            <rect id="Rectangle" x="46" y="1" width="3" height="8"></rect>
            <rect id="Rectangle" x="19" y="1" width="3" height="8"></rect>
            <rect id="Rectangle" x="70" y="13" width="3" height="3"></rect>
            <path d="M4.00004688,9 L4.00004688,11.9999766 L1,11.9999766 L1,14 L5.00002344,14 C5.55198519,14 6,13.5530504 6,13.0000469 L6,9 L4.00004688,9 Z" id="Path"></path>
        </g>
    </g>
</svg>
