<?xml version="1.0" encoding="UTF-8"?>
<svg width="20px" height="19px" viewBox="0 0 20 19" version="1.1" xmlns="http://www.w3.org/2000/svg" xmlns:xlink="http://www.w3.org/1999/xlink">
    <!-- Generator: Sketch 52.6 (67491) - http://www.bohemiancoding.com/sketch -->
    <title>download</title>
    <desc>Created with Sketch.</desc>
    <g id="상조회사" stroke="none" stroke-width="1" fill="none" fill-rule="evenodd">
        <g id="main_01/login_01/mypage_04" transform="translate(-1515.000000, -1921.000000)" fill="#035FC8">
            <g id="download" transform="translate(1515.000000, 1921.000000)">
                <path d="M19.0301239,9.24982211 C18.7182909,9.24982211 18.4688246,9.49928845 18.4688246,9.81112137 L18.4688246,14.9168658 C18.4688246,16.3055617 17.3379105,17.432318 15.9533724,17.432318 L3.63805077,17.432318 C2.24935482,17.432318 1.12259852,16.3014039 1.12259852,14.9168658 L1.12259852,9.72796593 C1.12259852,9.41613301 0.873132185,9.16666667 0.561299262,9.16666667 C0.249466339,9.16666667 0,9.41613301 0,9.72796593 L0,14.9168658 C0,16.9250698 1.63400452,18.5549165 3.63805077,18.5549165 L15.9533724,18.5549165 C17.9615764,18.5549165 19.5914231,16.920912 19.5914231,14.9168658 L19.5914231,9.81112137 C19.5914231,9.50344622 19.3419568,9.24982211 19.0301239,9.24982211 Z" id="Path"></path>
                <path d="M9.1177023,13.6998598 C9.21271603,13.8079618 9.34061914,13.8661707 9.46486787,13.8661707 C9.5891166,13.8661707 9.7170197,13.8121196 9.81203343,13.6998598 L12.9474866,10.1324911 C13.1411685,9.91212919 13.1411685,9.55871854 12.9474866,9.33835661 C12.7538048,9.11799467 12.443183,9.11799467 12.2495011,9.33835661 L9.95820841,11.9494376 L9.95820841,0.561299262 C9.95820841,0.249466339 9.73894594,0 9.46486787,0 C9.19078979,0 8.97152733,0.249466339 8.97152733,0.561299262 L8.97152733,11.9494376 L6.67658022,9.33835661 C6.48289838,9.11799467 6.17227656,9.11799467 5.97859471,9.33835661 C5.78491287,9.55871854 5.78491287,9.91212919 5.97859471,10.1324911 L9.1177023,13.6998598 Z" id="Path"></path>
            </g>
        </g>
    </g>
</svg>
