<?xml version="1.0" encoding="UTF-8"?>
<svg width="32px" height="32px" viewBox="0 0 32 32" version="1.1" xmlns="http://www.w3.org/2000/svg" xmlns:xlink="http://www.w3.org/1999/xlink">
    <!-- Generator: Sketch 52.6 (67491) - http://www.bohemiancoding.com/sketch -->
    <title>Oval</title>
    <desc>Created with Sketch.</desc>
    <g id="상조회사" stroke="none" stroke-width="1" fill="none" fill-rule="evenodd">
        <g id="main_01/section_03" transform="translate(-940.000000, -2697.000000)">
            <g id="Oval" transform="translate(941.000000, 2698.000000)">
                <circle stroke="#035FC8" fill="#035FC8" cx="15" cy="15" r="15"></circle>
                <g id="paper-clip-outline" transform="translate(8.000000, 8.000000)" fill="#FFFFFF">
                    <path d="M12.9997898,9.99391414 L7.18987076,4.29039534 C6.78312493,3.87806958 6.28650485,3.67194108 5.69987041,3.67194108 C5.15319954,3.67194108 4.68999335,3.85843666 4.3099366,4.23149657 C3.92977479,4.60448772 3.73983398,5.05938014 3.73983398,5.59607066 C3.73983398,6.17199266 3.94984414,6.65958369 4.36982943,7.05877499 L8.46986095,11.0836273 C8.53647858,11.1490589 8.60999615,11.1817575 8.6899233,11.1817575 C8.79660958,11.1817575 8.95327659,11.0802234 9.15978425,10.8774644 C9.36639697,10.6746367 9.46961578,10.5207022 9.46961578,10.4159704 C9.46961578,10.3376106 9.43644706,10.2655774 9.36975938,10.200077 L5.26986796,6.1752247 C5.1032188,5.99849401 5.01989422,5.80546559 5.01989422,5.59607066 C5.01989422,5.40617113 5.08318448,5.24914213 5.20987006,5.12481175 C5.33648559,5.00044698 5.49658506,4.93831618 5.6899233,4.93831618 C5.91657035,4.93831618 6.11652832,5.01674472 6.28993731,5.1738081 L12.0997163,10.8773269 C12.5199468,11.2895151 12.7299569,11.7639373 12.7299569,12.3005247 C12.7299569,12.719624 12.5898217,13.0663806 12.3099366,13.3411727 C12.0297363,13.6160337 11.6766138,13.7537048 11.2497636,13.7537048 C10.7030927,13.7537048 10.2198172,13.5473012 9.80004203,13.1350099 L2.03992855,5.50746464 C1.53325628,5.01010872 1.28006024,4.41778585 1.28006024,3.73059917 C1.28006024,3.03684525 1.52330917,2.44452238 2.01001716,1.95373369 C2.49665511,1.46301377 3.09327169,1.21755066 3.80000701,1.21755066 C4.47991314,1.21755066 5.08318448,1.46951224 5.60985605,1.97326347 L11.6698189,7.93197588 C11.7364366,7.99751064 11.8130713,8.03000296 11.8998284,8.03000296 C12.0065147,8.03000296 12.1616055,7.93022232 12.3647508,7.73066106 C12.5681762,7.53109979 12.6695737,7.37895323 12.6695737,7.27425577 C12.6695737,7.19582723 12.63637,7.12375962 12.5698224,7.058328 L6.51984169,1.1093461 C5.75321355,0.369827877 4.84329796,0 3.78995482,0 C2.72995692,0 1.83335085,0.36329503 1.10003152,1.08971317 C0.366642149,1.8161657 0,2.69971599 0,3.74022652 C0,4.7611385 0.376589261,5.64792084 1.12990788,6.40053913 L8.89993345,14.0184226 C9.56656509,14.6726356 10.3497601,15 11.2497986,15 C12.0297713,15 12.6832335,14.7414024 13.209765,14.2243448 C13.7364366,13.7075623 14,13.0660368 14,12.3001465 C13.9997898,11.403668 13.6663164,10.6348551 12.9997898,9.99391414 Z" id="Path"></path>
                </g>
            </g>
        </g>
    </g>
</svg>
