<?xml version="1.0" encoding="UTF-8"?>
<svg width="43px" height="43px" viewBox="0 0 43 43" version="1.1" xmlns="http://www.w3.org/2000/svg" xmlns:xlink="http://www.w3.org/1999/xlink">
    <!-- Generator: Sketch 52.6 (67491) - http://www.bohemiancoding.com/sketch -->
    <title>Rectangle Copy 63</title>
    <desc>Created with Sketch.</desc>
    <g id="Rectangle-Copy-63" stroke="none" stroke-width="1" fill="none" fill-rule="evenodd">
        <rect id="Rectangle-Copy-48" fill="#FF8D12" x="0" y="0" width="43" height="43" rx="21.5"></rect>
        <g id="icon/headset" transform="translate(8.000000, 8.000000)">
            <rect id="Rectangle" x="0" y="0" width="27" height="27"></rect>
            <g id="headset" stroke-width="1" fill-rule="evenodd" transform="translate(4.628571, 3.085714)" fill="#FFFFFF" stroke="#FFFFFF">
                <path d="M17.5419685,9.99054753 C17.3679081,9.68792991 17.0764056,9.47124385 16.7369952,9.39223902 L16.7369952,7.52905009 C16.7369952,3.38104543 13.2047241,0 8.86347485,0 C4.52222559,0 0.989954513,3.38104543 0.989954513,7.52905009 L0.989954513,9.39223902 C0.649192478,9.47601225 0.358791337,9.69877174 0.188986015,10.0066095 C0.0569763946,10.2617439 -0.00785199317,10.5464926 0.000758418179,10.8338011 L0.000758418179,14.9336199 C-0.00715114574,15.2195732 0.0576271815,15.5028663 0.188986015,15.756796 C0.457260401,16.2185778 0.967677577,16.4830984 1.49856951,16.4354144 L2.11932009,16.4354144 C2.14475084,16.8600528 2.49602559,17.1910801 2.92028859,17.1903272 L3.62514087,17.1903272 C4.06752578,17.1903272 4.42610937,16.8307899 4.42610937,16.3872285 L4.42610937,9.29988267 C4.42610937,8.85632123 4.06752578,8.49678399 3.62514087,8.49678399 L2.90026438,8.49678399 C2.45787947,8.49678399 2.09929588,8.85632123 2.09929588,9.29988267 L2.09929588,9.33200662 L1.77490364,9.33200662 L1.77490364,7.52905009 C1.77490364,3.8187342 4.94673889,0.803098676 8.84745548,0.803098676 C12.7481721,0.803098676 15.9200073,3.8187342 15.9200073,7.52905009 L15.9200073,9.33200662 L15.5956151,9.33200662 L15.5956151,9.29988267 C15.5956151,8.85632123 15.2370315,8.49678399 14.7946466,8.49678399 L14.121833,8.49678399 C13.6794481,8.49678399 13.3208645,8.85632123 13.3208645,9.29988267 L13.3208645,16.4153369 C13.3304762,16.817338 13.6350945,17.1502224 14.0337265,17.1943427 C13.9573341,17.7050632 13.7315611,18.1816019 13.384942,18.5636259 C12.7561817,19.2623217 11.7309421,19.6638711 10.3492714,19.7682739 L10.3492714,19.5915922 C10.3276453,19.128907 9.9378239,18.7703234 9.47621575,18.7884935 L7.75813832,18.7884935 C7.29653016,18.7703234 6.90670881,19.128907 6.88508266,19.5915922 L6.88508266,20.7962402 C6.90670881,21.2589254 7.29653016,21.617509 7.75813832,21.5993389 L9.49223512,21.5993389 C9.95384327,21.617509 10.3436646,21.2589254 10.3652908,20.7962402 L10.3652908,20.5713726 C11.987252,20.4629543 13.2127338,19.9730641 13.9936781,19.109733 C14.4803165,18.5784832 14.7872376,17.9067414 14.8707386,17.1903272 C15.2749273,17.1667863 15.598018,16.844543 15.623649,16.4394299 L16.2443996,16.4394299 C16.7752414,16.4871139 17.2857087,16.2225933 17.553983,15.7608115 C17.6853419,15.5068818 17.7501202,15.2235887 17.7422106,14.9376354 L17.7422106,10.8338011 C17.7498699,10.5400176 17.6808364,10.2493461 17.5419685,9.99054753 Z M0.771428571,15.012327 L0.771428571,10.6727517 C0.775533535,10.6361434 0.775533535,10.599378 0.771428571,10.5627697 L0.771428571,10.0442831 L1.44424211,10.0285714 L1.44424211,15.5810911 L0.771428571,15.5810911 L0.771428571,15.012327 Z M2.11932009,10.0989659 L2.11932009,15.6323157 L1.49856951,15.6323157 C1.03400778,15.6323157 0.925877033,15.4355566 0.889833451,15.3672932 C0.825055123,15.2308668 0.794768502,15.0805367 0.801726916,14.9296044 L0.801726916,10.8338011 C0.792866202,10.6818649 0.821751128,10.5300793 0.885828608,10.3920969 C0.921872191,10.327849 1.03000294,10.1270743 1.49456467,10.1270743 L2.11932009,10.0989659 Z M9.58034165,20.1778542 L9.58034165,20.7279768 C9.5625201,20.7606529 9.52927991,20.7818346 9.49223512,20.7841937 L7.75813832,20.7841937 C7.73681253,20.7857497 7.71538663,20.7857497 7.69406084,20.7841937 L7.69406084,19.6116697 C7.7164379,19.5931984 7.74532282,19.5845149 7.77415769,19.5875767 L9.50825449,19.5875767 C9.55230775,19.5875767 9.58034165,19.5875767 9.58034165,19.5875767 L9.58034165,20.1778542 Z M14.5625327,10.0763035 L14.5625327,16.3485042 L14.2461501,16.3485042 L14.198092,16.3485042 L14.1660533,16.3485042 L13.8857143,16.3485042 L13.8857143,9.25714286 L14.5745472,9.25714286 L14.5625327,10.0763035 Z M16.8768184,10.6695085 L16.8768184,15.5770756 L16.5604358,15.5770756 L16.5123777,15.5770756 L16.480339,15.5770756 L16.2,15.5770756 L16.2,10.0285714 L16.8888329,10.0285714 L16.8768184,10.6695085 Z M16.8371162,15.3753242 C16.8010727,15.439572 16.6929419,15.6403467 16.2283802,15.6403467 L15.6116344,15.6403467 L15.6116344,10.1351053 L16.2283802,10.1351053 C16.6929419,10.1351053 16.8010727,10.3318645 16.8371162,10.4001279 C16.9018946,10.5365542 16.9321812,10.6868843 16.9252228,10.8378166 L16.9252228,14.9376354 C16.9321311,15.0885677 16.9018946,15.2388978 16.8371162,15.3753242 Z" id="Shape" fill-rule="nonzero"></path>
            </g>
        </g>
    </g>
</svg>
