<?xml version="1.0" encoding="UTF-8"?>
<svg width="49px" height="49px" viewBox="0 0 49 49" version="1.1" xmlns="http://www.w3.org/2000/svg" xmlns:xlink="http://www.w3.org/1999/xlink">
    <!-- Generator: Sketch 52.6 (67491) - http://www.bohemiancoding.com/sketch -->
    <title>Group 2</title>
    <desc>Created with Sketch.</desc>
    <g id="상조회사" stroke="none" stroke-width="1" fill="none" fill-rule="evenodd">
        <g id="main_01/login_01/mypage_03" transform="translate(-1501.000000, -678.000000)">
            <g id="Group-2" transform="translate(1501.000000, 678.000000)">
                <rect id="Rectangle-Copy-48" fill="#F79A00" x="0" y="0" width="49" height="49" rx="24.5"></rect>
                <g id="headset" transform="translate(10.000000, 6.000000)" fill="#FFFFFF" fill-rule="nonzero">
                    <path d="M29.6603332,17.1134379 C29.3660281,16.5950651 28.8731495,16.2238899 28.2992672,16.0885576 L28.2992672,12.8969839 C28.2992672,5.79160559 22.3268282,0 14.9865517,0 C7.64627515,0 1.67383613,5.79160559 1.67383613,12.8969839 L1.67383613,16.0885576 C1.09766844,16.232058 0.606652019,16.6136368 0.319541572,17.1409515 C0.0963368991,17.5779873 -0.013276317,18.0657512 0.00128234958,18.5579001 L0.00128234958,25.5807378 C-0.0120913092,26.0705652 0.0974372634,26.5558357 0.319541572,26.990808 C0.773145606,27.781823 1.63616982,28.2349371 2.53381318,28.1532562 L3.58339146,28.1532562 C3.62639032,28.8806461 4.22033313,29.4476834 4.93768603,29.4463937 L6.12946524,29.4463937 C6.87745906,29.4463937 7.4837598,28.8305198 7.4837598,28.0707155 L7.4837598,15.9303546 C7.4837598,15.1705503 6.87745906,14.5546763 6.12946524,14.5546763 L4.90382866,14.5546763 C4.15583485,14.5546763 3.5495341,15.1705503 3.5495341,15.9303546 L3.5495341,15.9853817 L3.0010448,15.9853817 L3.0010448,12.8969839 C3.0010448,6.54135026 8.36405127,1.37567829 14.9594658,1.37567829 C21.5548803,1.37567829 26.9178868,6.54135026 26.9178868,12.8969839 L26.9178868,15.9853817 L26.3693975,15.9853817 L26.3693975,15.9303546 C26.3693975,15.1705503 25.7630967,14.5546763 25.0151029,14.5546763 L23.8774955,14.5546763 C23.1295017,14.5546763 22.5232009,15.1705503 22.5232009,15.9303546 L22.5232009,28.1188642 C22.5394524,28.8074772 23.0545076,29.3776958 23.7285231,29.4532721 C23.5993572,30.3281176 23.2176154,31.1444107 22.6315445,31.7988036 C21.5684232,32.9956437 19.8349262,33.6834829 17.4987681,33.8623211 L17.4987681,33.5596718 C17.4622021,32.7671092 16.8030839,32.1528688 16.022587,32.1839935 L13.1176252,32.1839935 C12.3371283,32.1528688 11.6780101,32.7671092 11.6414441,33.5596718 L11.6414441,35.6231893 C11.6780101,36.4157519 12.3371283,37.0299923 13.1176252,36.9988675 L16.0496729,36.9988675 C16.8301698,37.0299923 17.489288,36.4157519 17.525854,35.6231893 L17.525854,35.2379993 C20.2683005,35.0522828 22.3403711,34.213119 23.6608083,32.7342649 C24.4836269,31.8242537 25.0025757,30.6735848 25.1437609,29.4463937 C25.8271718,29.4060692 26.3734603,28.8540783 26.4167978,28.1601346 L27.4663761,28.1601346 C28.3639348,28.2418154 29.2270436,27.7887014 29.6806477,26.9976864 C29.902752,26.5627141 30.0122805,26.0774436 29.9989069,25.5876162 L29.9989069,18.5579001 C30.0118573,18.0546598 29.8951341,17.5567502 29.6603332,17.1134379 Z M4.93768603,26.832605 L4.93768603,17.3335464 C4.94462679,17.2534132 4.94462679,17.172936 4.93768603,17.0928027 L4.93768603,15.9578681 L6.07529346,15.9234762 L6.07529346,28.0775939 L4.93768603,28.0775939 L4.93768603,26.832605 Z M3.58339146,17.2991545 L3.58339146,26.7775779 L2.53381318,26.7775779 C1.74832233,26.7775779 1.56549257,26.4405367 1.50454931,26.323604 C1.39502074,26.0899107 1.34381148,25.8324009 1.35557691,25.5738594 L1.35557691,18.5579001 C1.34059503,18.297639 1.38943428,18.0376358 1.49777784,17.801277 C1.5587211,17.6912228 1.74155086,17.3473032 2.52704171,17.3473032 L3.58339146,17.2991545 Z M16.1986453,34.563917 L16.1986453,35.5062566 C16.1685123,35.5622295 16.112309,35.598513 16.0496729,35.6025541 L13.1176252,35.6025541 C13.0815671,35.6052195 13.0453397,35.6052195 13.0092816,35.6025541 L13.0092816,33.5940638 C13.0471172,33.5624232 13.0959565,33.5475487 13.1447111,33.5527934 L16.0767588,33.5527934 C16.151245,33.5527934 16.1986453,33.5527934 16.1986453,33.5527934 L16.1986453,34.563917 Z M25.0421888,17.3335464 L25.0421888,28.0775939 L24.5072424,28.0775939 L24.4259848,28.0775939 L24.371813,28.0775939 L23.8978099,28.0775939 L23.8978099,15.9303546 L25.0625032,15.9303546 L25.0421888,17.3335464 Z M28.468554,26.3373608 C28.4076108,26.4474151 28.224781,26.7913347 27.4392902,26.7913347 L26.3964834,26.7913347 L26.3964834,17.36106 L27.4392902,17.36106 C28.224781,17.36106 28.4076108,17.6981012 28.468554,17.8150338 C28.5780826,18.0487272 28.6292919,18.306237 28.6175264,18.5647785 L28.6175264,25.5876162 C28.6292072,25.8461577 28.5780826,26.1036675 28.468554,26.3373608 Z" id="Shape"></path>
                </g>
            </g>
        </g>
    </g>
</svg>
