<?xml version="1.0" encoding="UTF-8"?>
<svg width="43px" height="43px" viewBox="0 0 43 43" version="1.1" xmlns="http://www.w3.org/2000/svg" xmlns:xlink="http://www.w3.org/1999/xlink">
    <!-- Generator: Sketch 52.6 (67491) - http://www.bohemiancoding.com/sketch -->
    <title>Rectangle Copy 46</title>
    <desc>Created with Sketch.</desc>
    <g id="Rectangle-Copy-46" stroke="none" stroke-width="1" fill="none" fill-rule="evenodd">
        <rect fill="#FFE812" x="0" y="0" width="43" height="43" rx="21.5"></rect>
        <path d="M22.5,11 C15.5963942,11 10,15.2079425 10,20.3986131 C10,23.7544911 12.3396635,26.6991224 15.8591346,28.3618746 C15.6676683,28.9915817 14.628726,32.4129061 14.5873798,32.6816835 C14.5873798,32.6816835 14.5625,32.8836391 14.6996394,32.9606618 C14.8367788,33.0376846 14.9980769,32.9778544 14.9980769,32.9778544 C15.3913462,32.9254744 19.5585337,30.1340863 20.2798077,29.64937 C21.0003606,29.74668 21.7423077,29.7972262 22.5,29.7972262 C29.4036058,29.7972262 35,25.5893984 35,20.3986131 C35,15.2079425 29.4036058,11 22.5,11 Z" id="Path" fill="#000000"></path>
    </g>
</svg>
