<?xml version="1.0" encoding="UTF-8"?>
<svg width="20px" height="20px" viewBox="0 0 20 20" version="1.1" xmlns="http://www.w3.org/2000/svg" xmlns:xlink="http://www.w3.org/1999/xlink">
    <!-- Generator: Sketch 52.6 (67491) - http://www.bohemiancoding.com/sketch -->
    <title>icon/mypage02 copy 2</title>
    <desc>Created with Sketch.</desc>
    <g id="icon/mypage02-copy-2" stroke="none" stroke-width="1" fill="none" fill-rule="evenodd" stroke-linecap="round" stroke-linejoin="round">
        <g id="male" transform="translate(1.000000, 1.000000)" stroke="#FFFFFF" stroke-width="1.5">
            <path d="M11.226375,12.6403333 C10.7822009,12.5670417 10.7720759,11.3004583 10.7720759,11.3004583 C10.7720759,11.3004583 12.0772366,9.96054167 12.3617009,8.15875 C13.1269018,8.15875 13.5995625,6.24320833 12.8342009,5.56925 C12.8662634,4.85979167 13.8178125,0 9,0 C4.18214732,0 5.13381696,4.85979167 5.16567857,5.56925 C4.40039732,6.24320833 4.87297768,8.15875 5.63821875,8.15875 C5.92264286,9.96054167 7.22784375,11.3004583 7.22784375,11.3004583 C7.22784375,11.3004583 7.21771875,12.5670417 6.77354464,12.6403333 C5.34278571,12.8764167 0,15.32025 0,18 L9,18 L18,18 C18,15.32025 12.6571741,12.8764167 11.226375,12.6403333 Z" id="Path"></path>
        </g>
    </g>
</svg>
