<?xml version="1.0" encoding="UTF-8"?>
<svg width="30px" height="28px" viewBox="0 0 30 28" version="1.1" xmlns="http://www.w3.org/2000/svg" xmlns:xlink="http://www.w3.org/1999/xlink">
    <!-- Generator: Sketch 52.6 (67491) - http://www.bohemiancoding.com/sketch -->
    <title>/icon/main/masicon</title>
    <desc>Created with Sketch.</desc>
    <g id="상조회사" stroke="none" stroke-width="1" fill="none" fill-rule="evenodd">
        <g id="main_01" transform="translate(-1655.000000, -887.000000)" fill="#FFFFFF">
            <g id="WIDBAR" transform="translate(1615.000000, 766.000000)">
                <g id="/icon/main/masicon" transform="translate(40.000000, 121.000000)">
                    <g>
                        <path d="M4.53333333,12 L11.4666667,12 C11.7616,12 12,11.776 12,11.5 C12,11.224 11.7616,11 11.4666667,11 L4.53333333,11 C4.2384,11 4,11.224 4,11.5 C4,11.776 4.2384,12 4.53333333,12 Z" id="Path"></path>
                        <path d="M18.5,14 L5.5,14 C5.2235,14 5,14.224 5,14.5 C5,14.776 5.2235,15 5.5,15 L18.5,15 C18.7765,15 19,14.776 19,14.5 C19,14.224 18.7765,14 18.5,14 Z" id="Path"></path>
                        <path d="M18.5,17 L5.5,17 C5.2235,17 5,17.224 5,17.5 C5,17.776 5.2235,18 5.5,18 L18.5,18 C18.7765,18 19,17.776 19,17.5 C19,17.224 18.7765,17 18.5,17 Z" id="Path"></path>
                        <path d="M27.036,0.0355904196 L9.965,0 C8.33,0 7,1.35243595 7,3.01501698 L7,5.6202357 L2.965,5.62887908 C1.33,5.62887908 0,6.98131503 0,8.64389606 L0,19.3927112 C0,21.0552923 1.33,22.4072198 2.965,22.4072198 L6,22.4072198 L6,27.4915654 C6,27.7015489 6.127,27.8901781 6.32,27.9659349 C6.3785,27.9888144 6.4395,28 6.5,28 C6.638,28 6.7735,27.94153 6.87,27.8337419 L11.722,22.4062029 L20.035,22.3716294 C21.67,22.3716294 23,21.0191934 23,19.3571208 L23,19.2996677 L25.63,22.2414701 C25.7265,22.3492582 25.862,22.4077282 26,22.4077282 C26.0605,22.4077282 26.1215,22.3965426 26.18,22.3736631 C26.373,22.2979063 26.5,22.1092771 26.5,21.8992936 L26.5,16.814948 L27.035,16.814948 C28.67,16.814948 30,15.462512 30,13.8004394 L30,3.0506074 C30,1.3885348 28.6705,0.0360988542 27.036,0.0355904196 Z M22,19.3566124 C22,20.4583901 21.1185,21.3542518 20.033,21.3542518 L11.498,21.3898422 C11.358,21.3903506 11.224,21.4508544 11.13,21.5561003 L7,26.1762452 L7,21.8982768 C7,21.6176209 6.7765,21.3898422 6.5,21.3898422 L2.965,21.3898422 C1.8815,21.3898422 1,20.4934721 1,19.3922028 L1,8.64338763 C1,7.54160992 1.8815,6.64523978 2.966,6.64523978 L7.5,6.63557952 C7.5,6.63557952 7.5,6.63557952 7.5,6.63557952 C7.5005,6.63557952 7.5005,6.63557952 7.501,6.63557952 L20.035,6.60914093 C21.1185,6.60914093 22,7.50551107 22,8.60728877 L22,17.9833306 L22,19.3566124 Z M29,13.7994226 C29,14.9012003 28.1185,15.797062 27.035,15.797062 L26,15.797062 C25.7235,15.797062 25.5,16.0248407 25.5,16.3054965 L25.5,20.583465 L23,17.7870749 L23,8.60779721 C23,6.94521618 21.67,5.59278023 20.034,5.59278023 L8,5.61769352 L8,3.01450854 C8,1.91273084 8.8815,1.0163607 9.964,1.0163607 L27.0345,1.05195112 C27.035,1.05195112 27.035,1.05195112 27.0355,1.05195112 C28.119,1.05195112 29.0005,1.94832126 29.0005,3.05009896 L29.0005,13.7994226 L29,13.7994226 Z" id="Shape" fill-rule="nonzero"></path>
                    </g>
                </g>
            </g>
        </g>
    </g>
</svg>
