<?xml version="1.0" encoding="UTF-8"?>
<svg width="45px" height="45px" viewBox="0 0 45 45" version="1.1" xmlns="http://www.w3.org/2000/svg" xmlns:xlink="http://www.w3.org/1999/xlink">
    <!-- Generator: Sketch 52.6 (67491) - http://www.bohemiancoding.com/sketch -->
    <title>mobile/icon_03</title>
    <desc>Created with Sketch.</desc>
    <g id="mobile/icon_03" stroke="none" stroke-width="1" fill="none" fill-rule="evenodd">
        <circle id="Oval-Copy-2" fill="#FFCE0C" cx="22.5" cy="22.5" r="22.5"></circle>
        <g id="headset" transform="translate(10.000000, 7.000000)" fill="#FFFFFF" fill-rule="nonzero">
            <path d="M24.7169444,14.2611982 C24.4716901,13.8292209 24.0609579,13.5199083 23.5827227,13.4071313 L23.5827227,10.7474866 C23.5827227,4.82633799 18.6056902,0 12.4887931,0 C6.37189596,0 1.39486344,4.82633799 1.39486344,10.7474866 L1.39486344,13.4071313 C0.9147237,13.526715 0.505543349,13.8446973 0.266284643,14.2841262 C0.0802807493,14.6483227 -0.0110635975,15.0547927 0.00106862465,15.4649168 L0.00106862465,21.3172815 C-0.010076091,21.725471 0.0811977195,22.1298631 0.266284643,22.49234 C0.644288005,23.1515192 1.36347485,23.5291142 2.11151098,23.4610468 L2.98615955,23.4610468 C3.02199193,24.067205 3.51694427,24.5397362 4.11473836,24.5386615 L5.1078877,24.5386615 C5.73121588,24.5386615 6.2364665,24.0254331 6.2364665,23.3922629 L6.2364665,13.2752955 C6.2364665,12.6421252 5.73121588,12.1288969 5.1078877,12.1288969 L4.08652389,12.1288969 C3.46319571,12.1288969 2.95794508,12.6421252 2.95794508,13.2752955 L2.95794508,13.3211514 L2.50087067,13.3211514 L2.50087067,10.7474866 C2.50087067,5.45112522 6.97004272,1.14639857 12.4662215,1.14639857 C17.9624002,1.14639857 22.4315723,5.45112522 22.4315723,10.7474866 L22.4315723,13.3211514 L21.9744979,13.3211514 L21.9744979,13.2752955 C21.9744979,12.6421252 21.4692473,12.1288969 20.8459191,12.1288969 L19.8979129,12.1288969 C19.2745847,12.1288969 18.7693341,12.6421252 18.7693341,13.2752955 L18.7693341,23.4323868 C18.782877,24.006231 19.2120897,24.4814132 19.7737692,24.5443935 C19.666131,25.2734313 19.3480129,25.9536755 18.8596204,26.499003 C17.973686,27.4963698 16.5291052,28.0695691 14.5823067,28.2186009 L14.5823067,27.9663932 C14.5518351,27.3059243 14.0025699,26.7940574 13.3521558,26.8199946 L10.9313543,26.8199946 C10.2809402,26.7940574 9.73167505,27.3059243 9.70120342,27.9663932 L9.70120342,29.6859911 C9.73167505,30.3464599 10.2809402,30.8583269 10.9313543,30.8323896 L13.3747274,30.8323896 C14.0251415,30.8583269 14.5744067,30.3464599 14.6048783,29.6859911 L14.6048783,29.3649995 C16.8902504,29.2102356 18.616976,28.5109325 19.7173403,27.278554 C20.4030224,26.5202114 20.8354797,25.5613206 20.9531341,24.5386615 C21.5226431,24.5050576 21.9778836,24.0450652 22.0139981,23.4667788 L22.8886467,23.4667788 C23.6366123,23.5348462 24.3558697,23.1572512 24.7338731,22.498072 C24.91896,22.1355951 25.0102338,21.731203 24.9990891,21.3230135 L24.9990891,15.4649168 C25.0098811,15.0455498 24.9126117,14.6306252 24.7169444,14.2611982 Z M4.11473836,22.3605042 L4.11473836,14.444622 C4.12052232,14.3778443 4.12052232,14.31078 4.11473836,14.2440023 L4.11473836,13.2982234 L5.06274455,13.2695635 L5.06274455,23.3979949 L4.11473836,23.3979949 L4.11473836,22.3605042 Z M2.98615955,14.4159621 L2.98615955,22.3146482 L2.11151098,22.3146482 C1.45693528,22.3146482 1.30457714,22.0337806 1.25379109,21.9363367 C1.16251728,21.7415922 1.1198429,21.5270008 1.12964743,21.3115495 L1.12964743,15.4649168 C1.11716252,15.2480325 1.1578619,15.0313631 1.2481482,14.8343975 C1.29893425,14.7426857 1.45129238,14.456086 2.10586809,14.456086 L2.98615955,14.4159621 Z M13.4988711,28.8032642 L13.4988711,29.5885472 C13.4737602,29.6351913 13.4269242,29.6654275 13.3747274,29.6687951 L10.9313543,29.6687951 C10.9013059,29.6710162 10.8711164,29.6710162 10.841068,29.6687951 L10.841068,27.9950532 C10.8725977,27.968686 10.9132971,27.9562906 10.9539259,27.9606612 L13.397299,27.9606612 C13.4593708,27.9606612 13.4988711,27.9606612 13.4988711,27.9606612 L13.4988711,28.8032642 Z M20.8684907,14.444622 L20.8684907,23.3979949 L20.422702,23.3979949 L20.3549873,23.3979949 L20.3098442,23.3979949 L19.9148416,23.3979949 L19.9148416,13.2752955 L20.8854193,13.2752955 L20.8684907,14.444622 Z M23.723795,21.9478007 C23.673009,22.0395126 23.5206508,22.3261122 22.8660751,22.3261122 L21.9970695,22.3261122 L21.9970695,14.46755 L22.8660751,14.46755 C23.5206508,14.46755 23.673009,14.7484176 23.723795,14.8458615 C23.8150688,15.040606 23.8577432,15.2551975 23.8479387,15.4706487 L23.8479387,21.3230135 C23.8576727,21.5384647 23.8150688,21.7530562 23.723795,21.9478007 Z" id="Shape"></path>
        </g>
    </g>
</svg>
