<?xml version="1.0" encoding="UTF-8"?>
<svg width="45px" height="45px" viewBox="0 0 45 45" version="1.1" xmlns="http://www.w3.org/2000/svg" xmlns:xlink="http://www.w3.org/1999/xlink">
    <!-- Generator: Sketch 52.6 (67491) - http://www.bohemiancoding.com/sketch -->
    <title>mobile/icon_02</title>
    <desc>Created with Sketch.</desc>
    <g id="상조회사" stroke="none" stroke-width="1" fill="none" fill-rule="evenodd">
        <g id="main_01/mobile" transform="translate(-295.000000, -510.000000)">
            <g id="main__01">
                <g id="mobile/icon_02" transform="translate(295.000000, 510.000000)">
                    <circle id="Oval-Copy" fill="#F79A00" cx="22.5" cy="22.5" r="22.5"></circle>
                    <g id="chat" stroke-width="1" transform="translate(10.000000, 11.000000)" fill="#FFFFFF">
                        <path d="M3.77777778,10 L9.55555556,10 C9.80133333,10 10,9.81333333 10,9.58333333 C10,9.35333333 9.80133333,9.16666667 9.55555556,9.16666667 L3.77777778,9.16666667 C3.532,9.16666667 3.33333333,9.35333333 3.33333333,9.58333333 C3.33333333,9.81333333 3.532,10 3.77777778,10 Z" id="Path"></path>
                        <path d="M15.4166667,11.6666667 L4.58333333,11.6666667 C4.35291667,11.6666667 4.16666667,11.8533333 4.16666667,12.0833333 C4.16666667,12.3133333 4.35291667,12.5 4.58333333,12.5 L15.4166667,12.5 C15.6470833,12.5 15.8333333,12.3133333 15.8333333,12.0833333 C15.8333333,11.8533333 15.6470833,11.6666667 15.4166667,11.6666667 Z" id="Path"></path>
                        <path d="M15.4166667,14.1666667 L4.58333333,14.1666667 C4.35291667,14.1666667 4.16666667,14.3533333 4.16666667,14.5833333 C4.16666667,14.8133333 4.35291667,15 4.58333333,15 L15.4166667,15 C15.6470833,15 15.8333333,14.8133333 15.8333333,14.5833333 C15.8333333,14.3533333 15.6470833,14.1666667 15.4166667,14.1666667 Z" id="Path"></path>
                        <path d="M22.53,0.029658683 L8.30416667,0 C6.94166667,0 5.83333333,1.12702996 5.83333333,2.51251415 L5.83333333,4.68352975 L2.47083333,4.69073257 C1.10833333,4.69073257 0,5.81776252 0,7.20324672 L0,16.1605927 C0,17.5460769 1.10833333,18.6726831 2.47083333,18.6726831 L5,18.6726831 L5,22.9096379 C5,23.0846241 5.10583333,23.2418151 5.26666667,23.3049457 C5.31541667,23.324012 5.36625,23.3333333 5.41666667,23.3333333 C5.53166667,23.3333333 5.64458333,23.2846084 5.725,23.1947849 L9.76833333,18.6718358 L16.6958333,18.6430245 C18.0583333,18.6430245 19.1666667,17.5159945 19.1666667,16.130934 L19.1666667,16.0830564 L21.3583333,18.5345584 C21.43875,18.6243819 21.5516667,18.6731068 21.6666667,18.6731068 C21.7170833,18.6731068 21.7679167,18.6637855 21.8166667,18.6447192 C21.9775,18.5815886 22.0833333,18.4243976 22.0833333,18.2494114 L22.0833333,14.0124566 L22.5291667,14.0124566 C23.8916667,14.0124566 25,12.8854267 25,11.5003662 L25,2.54217283 C25,1.15711233 23.8920833,0.0300823785 22.53,0.029658683 Z M18.3333333,16.1305103 C18.3333333,17.0486584 17.59875,17.7952098 16.6941667,17.7952098 L9.58166667,17.8248685 C9.465,17.8252922 9.35333333,17.875712 9.275,17.9634169 L5.83333333,21.8135377 L5.83333333,18.248564 C5.83333333,18.0146841 5.64708333,17.8248685 5.41666667,17.8248685 L2.47083333,17.8248685 C1.56791667,17.8248685 0.833333333,17.0778934 0.833333333,16.160169 L0.833333333,7.20282302 C0.833333333,6.28467493 1.56791667,5.53769982 2.47166667,5.53769982 L6.25,5.5296496 C6.25,5.5296496 6.25,5.5296496 6.25,5.5296496 C6.25041667,5.5296496 6.25041667,5.5296496 6.25083333,5.5296496 L16.6958333,5.50761744 C17.59875,5.50761744 18.3333333,6.25459256 18.3333333,7.17274064 L18.3333333,14.9861088 L18.3333333,16.1305103 Z M24.1666667,11.4995188 C24.1666667,12.4176669 23.4320833,13.1642183 22.5291667,13.1642183 L21.6666667,13.1642183 C21.43625,13.1642183 21.25,13.3540339 21.25,13.5879138 L21.25,17.1528875 L19.1666667,14.8225624 L19.1666667,7.17316434 C19.1666667,5.78768015 18.0583333,4.66065019 16.695,4.66065019 L6.66666667,4.68141127 L6.66666667,2.51209045 C6.66666667,1.59394237 7.40125,0.846967248 8.30333333,0.846967248 L22.52875,0.876625931 C22.5291667,0.876625931 22.5291667,0.876625931 22.5295833,0.876625931 C23.4325,0.876625931 24.1670833,1.62360105 24.1670833,2.54174914 L24.1670833,11.4995188 L24.1666667,11.4995188 Z" id="Shape" fill-rule="nonzero"></path>
                    </g>
                </g>
            </g>
        </g>
    </g>
</svg>
