<?xml version="1.0" encoding="UTF-8"?>
<svg width="15px" height="15px" viewBox="0 0 15 15" version="1.1" xmlns="http://www.w3.org/2000/svg" xmlns:xlink="http://www.w3.org/1999/xlink">
    <!-- Generator: Sketch 52.6 (67491) - http://www.bohemiancoding.com/sketch -->
    <title>ddd</title>
    <desc>Created with Sketch.</desc>
    <g id="ddd" stroke="none" stroke-width="1" fill="none" fill-rule="evenodd" stroke-linecap="round" stroke-linejoin="round">
        <g id="male" transform="translate(2.000000, 2.000000)" stroke="#FFFFFF">
            <path d="M6.8605625,7.72464815 C6.58912277,7.6798588 6.58293527,6.90583565 6.58293527,6.90583565 C6.58293527,6.90583565 7.38053348,6.08699769 7.55437277,4.98590278 C8.02199554,4.98590278 8.31084375,3.81529398 7.84312277,3.40343056 C7.86271652,2.96987269 8.44421875,0 5.5,0 C2.5557567,0 3.13733259,2.96987269 3.15680357,3.40343056 C2.6891317,3.81529398 2.9779308,4.98590278 3.44557812,4.98590278 C3.61939286,6.08699769 4.41701562,6.90583565 4.41701562,6.90583565 C4.41701562,6.90583565 4.41082812,7.6798588 4.13938839,7.72464815 C3.26503571,7.8689213 0,9.362375 0,11 L5.5,11 L11,11 C11,9.362375 7.73493973,7.8689213 6.8605625,7.72464815 Z" id="Path"></path>
        </g>
    </g>
</svg>
