<?xml version="1.0" encoding="UTF-8"?>
<svg width="45px" height="45px" viewBox="0 0 45 45" version="1.1" xmlns="http://www.w3.org/2000/svg" xmlns:xlink="http://www.w3.org/1999/xlink">
    <!-- Generator: Sketch 52.6 (67491) - http://www.bohemiancoding.com/sketch -->
    <title>Group</title>
    <desc>Created with Sketch.</desc>
    <g id="Group" stroke="none" stroke-width="1" fill="none" fill-rule="evenodd">
        <g>
            <g id="archive-copy" fill="#035FC8" fill-rule="nonzero">
                <path d="M45,6.23325 C45,6.084 44.961,5.94675 44.90175,5.82 C44.8815,5.66325 44.81775,5.511 44.71125,5.38575 L40.095,0 L4.905,0 L0.288,5.3865 C0.1815,5.511 0.11775,5.6625 0.09825,5.82 C0.039,5.94675 0,6.084 0,6.23325 L0,14.25 L2.25,14.25 L2.25,45 L42.75,45 L42.75,14.25 L45,14.25 L45,6.23325 Z M5.595,1.5 L39.405,1.5 L42.6195,5.25 L2.3805,5.25 L5.595,1.5 Z M41.25,43.5 L3.75,43.5 L3.75,14.25 L41.25,14.25 L41.25,43.5 Z M43.5,12.75 L42.75,12.75 L2.25,12.75 L1.5,12.75 L1.5,6.75 L43.5,6.75 L43.5,12.75 Z" id="Shape"></path>
            </g>
            <polyline id="Path-2" stroke="#035FC8" stroke-width="1.5" stroke-linecap="square" stroke-linejoin="round" points="14 20 18.0695575 34 22.3220427 20 26.7553187 34 31 20"></polyline>
            <rect id="Rectangle" fill="#035FC8" x="11" y="25" width="22" height="2"></rect>
        </g>
    </g>
</svg>
