<?xml version="1.0" encoding="UTF-8"?>
<svg width="45px" height="45px" viewBox="0 0 45 45" version="1.1" xmlns="http://www.w3.org/2000/svg" xmlns:xlink="http://www.w3.org/1999/xlink">
    <!-- Generator: Sketch 52.6 (67491) - http://www.bohemiancoding.com/sketch -->
    <title>archive copy 2</title>
    <desc>Created with Sketch.</desc>
    <g id="archive-copy-2" stroke="none" stroke-width="1" fill="none" fill-rule="evenodd" stroke-linecap="round" stroke-linejoin="round">
        <path d="M22.5006381,17 C26.6427721,17 30,13.8655916 30,9.99970217 C30,6.1338127 26.6421339,3 22.5006381,3 C18.3591423,3 15,6.13440837 15,10.0002978 C15,13.8661873 18.3591423,17 22.5006381,17 Z M26.8571994,22 L18.1454206,22 C10.8969621,22 5,26.3560459 5,31.70964 L5,39.5783972 L5.02708234,39.7016389 L5.76092652,39.8713382 C12.6782815,41.4676732 18.6879412,42 23.6344004,42 C33.2958084,42 38.8957384,39.9655439 39.2408199,39.8358498 L39.9266147,39.5796877 L39.9999991,39.5796877 L39.9999991,31.70964 C40.00262,26.3560459 34.1056579,22 26.8571994,22 Z" id="Shape" stroke="#035FC8" stroke-width="2" fill-rule="nonzero"></path>
    </g>
</svg>
