<?xml version="1.0" encoding="UTF-8"?>
<svg width="50px" height="50px" viewBox="0 0 50 50" version="1.1" xmlns="http://www.w3.org/2000/svg" xmlns:xlink="http://www.w3.org/1999/xlink">
    <!-- Generator: Sketch 52.6 (67491) - http://www.bohemiancoding.com/sketch -->
    <title>icon/mypage01 copy 4</title>
    <desc>Created with Sketch.</desc>
    <g id="icon/mypage01-copy-4" stroke="none" stroke-width="1" fill="none" fill-rule="evenodd">
        <g id="archive" transform="translate(3.000000, 3.000000)" fill="#035FC8" fill-rule="nonzero">
            <path d="M45,6.23325 C45,6.084 44.961,5.94675 44.90175,5.82 C44.8815,5.66325 44.81775,5.511 44.71125,5.38575 L40.9929666,1.047652 C40.4230198,0.382698647 39.5909611,-2.49444389e-15 38.7151744,0 L6.28480477,0 C5.40903011,1.60877195e-16 4.57698156,0.382688186 4.00703496,1.04762588 L0.288,5.3865 C0.1815,5.511 0.11775,5.6625 0.09825,5.82 C0.039,5.94675 0,6.084 0,6.23325 L-2.22044605e-15,12 C-9.64579814e-16,13.2426407 1.00735931,14.25 2.25,14.25 L2.25,42 C2.25,43.6568542 3.59314575,45 5.25,45 L39.75,45 C41.4068542,45 42.75,43.6568542 42.75,42 L42.75,14.25 L42.75,14.25 C43.9926407,14.25 45,13.2426407 45,12 L45,6.23325 Z M5.595,1.5 L39.405,1.5 L42.6195,5.25 L2.3805,5.25 L5.595,1.5 Z M41.25,43.5 L3.75,43.5 L3.75,14.25 L41.25,14.25 L41.25,43.5 Z M43.5,12.75 L42.75,12.75 L2.25,12.75 L1.5,12.75 L1.5,6.75 L43.5,6.75 L43.5,12.75 Z" id="Shape" stroke="#035FC8"></path>
            <path d="M33,18 L12,18 L12,28 L33,28 L33,18 Z M31,26 L14,26 L14,20 L31,20 L31,26 Z" id="Shape"></path>
        </g>
    </g>
</svg>
