<?xml version="1.0" encoding="UTF-8"?>
<svg width="50px" height="50px" viewBox="0 0 50 50" version="1.1" xmlns="http://www.w3.org/2000/svg" xmlns:xlink="http://www.w3.org/1999/xlink">
    <!-- Generator: Sketch 52.6 (67491) - http://www.bohemiancoding.com/sketch -->
    <title>icon/mypage03</title>
    <desc>Created with Sketch.</desc>
    <g id="icon/mypage03" stroke="none" stroke-width="1" fill="none" fill-rule="evenodd">
        <g id="Group" transform="translate(3.000000, 3.000000)" fill="#FFFFFF" fill-rule="nonzero">
            <g id="archive-copy" stroke="#FFFFFF">
                <path d="M45,6.23325 C45,6.084 44.961,5.94675 44.90175,5.82 C44.8815,5.66325 44.81775,5.511 44.71125,5.38575 L40.9929666,1.047652 C40.4230198,0.382698647 39.5909611,-2.49444389e-15 38.7151744,0 L6.28480477,0 C5.40903011,1.60877195e-16 4.57698156,0.382688186 4.00703496,1.04762588 L0.288,5.3865 C0.1815,5.511 0.11775,5.6625 0.09825,5.82 C0.039,5.94675 0,6.084 0,6.23325 L-2.22044605e-15,12 C-9.64579814e-16,13.2426407 1.00735931,14.25 2.25,14.25 L2.25,42 C2.25,43.6568542 3.59314575,45 5.25,45 L39.75,45 C41.4068542,45 42.75,43.6568542 42.75,42 L42.75,14.25 L42.75,14.25 C43.9926407,14.25 45,13.2426407 45,12 L45,6.23325 Z M5.595,1.5 L39.405,1.5 L42.6195,5.25 L2.3805,5.25 L5.595,1.5 Z M41.25,43.5 L3.75,43.5 L3.75,14.25 L41.25,14.25 L41.25,43.5 Z M43.5,12.75 L42.75,12.75 L2.25,12.75 L1.5,12.75 L1.5,6.75 L43.5,6.75 L43.5,12.75 Z" id="Shape"></path>
            </g>
            <path d="M21.5446631,27.2471303 L23.1730781,27.2471303 L22.3419232,24.6223966 L21.5446631,27.2471303 Z M20.9371652,29.2471303 L19.0263908,35.5377674 C18.7372935,36.4895315 17.3869542,36.4814256 17.1093039,35.5262594 L15.2840698,29.2471303 L12,29.2471303 C11.4477153,29.2471303 11,28.799415 11,28.2471303 C11,27.6948455 11.4477153,27.2471303 12,27.2471303 L14.7027045,27.2471303 L13.0397464,21.5262594 C12.8855877,20.9959259 13.1905375,20.4410354 13.7208709,20.2868767 C14.2512043,20.1327179 14.8060949,20.4376678 14.9602536,20.9680012 L16.7854876,27.2471303 L19.454435,27.2471303 L21.3652093,20.9564932 C21.6507357,20.0164855 22.9788065,20.0086631 23.275386,20.9452421 L25.2709582,27.2471303 L28.1358987,27.2471303 L30.0430184,20.9569816 C30.2032631,20.4284552 30.7616224,20.129904 31.2901487,20.2901487 C31.818675,20.4503934 32.1172263,21.0087526 31.9569816,21.537279 L30.2258031,27.2471303 L32,27.2471303 C32.5522847,27.2471303 33,27.6948455 33,28.2471303 C33,28.799415 32.5522847,29.2471303 32,29.2471303 L29.61942,29.2471303 L27.7123003,35.537279 C27.4271776,36.4776835 26.0986341,36.4858477 25.8019753,35.5490184 L23.8064032,29.2471303 L20.9371652,29.2471303 Z M17.366853,29.2471303 L18.0906281,31.7370451 L18.8469371,29.2471303 L17.366853,29.2471303 Z M25.9042833,29.2471303 L26.7345597,31.8690898 L27.5295156,29.2471303 L25.9042833,29.2471303 Z" id="Combined-Shape"></path>
        </g>
    </g>
</svg>
