<?xml version="1.0" encoding="UTF-8"?>
<svg width="25px" height="23px" viewBox="0 0 25 23" version="1.1" xmlns="http://www.w3.org/2000/svg" xmlns:xlink="http://www.w3.org/1999/xlink">
    <!-- Generator: Sketch 52.6 (67491) - http://www.bohemiancoding.com/sketch -->
    <title>web-page-home</title>
    <desc>Created with Sketch.</desc>
    <g id="아이콘" stroke="none" stroke-width="1" fill="none" fill-rule="evenodd">
        <g id="마이페이지" transform="translate(-384.000000, -11.000000)" fill="#FFFFFF" fill-rule="nonzero">
            <g id="web-page-home" transform="translate(384.000000, 11.000000)">
                <path d="M0.863571658,13.2762321 L2.89991606,13.2762321 L2.89991606,21.4215584 C2.89991606,21.9015498 3.29263633,22.2942701 3.77262776,22.2942701 L9.73617481,22.2942701 C10.2161662,22.2942701 10.6088865,21.9015498 10.6088865,21.4215584 L10.6088865,15.4580114 L14.2451681,15.4580114 L14.2451681,21.4215584 C14.2451681,21.9015498 14.6378884,22.2942701 15.1178798,22.2942701 L20.7905059,22.2942701 C21.2704973,22.2942701 21.6632176,21.9015498 21.6632176,21.4215584 L21.6632176,13.2762321 L24.1359178,13.2762321 C24.4850025,13.2762321 24.8049797,13.0580542 24.9358864,12.738077 C25.0667932,12.4180998 24.9940501,12.0399077 24.746816,11.7926222 L13.3724564,0.258299741 C13.0378998,-0.0762568546 12.4852167,-0.0907849376 12.1506601,0.243771658 L0.267252889,11.7780941 C0.00543937936,12.0253796 -0.0673037074,12.4035204 0.0636030472,12.738077 C0.194509802,13.0725823 0.514486979,13.2762321 0.863571658,13.2762321 Z M12.7324507,2.10552239 L22.0413584,11.5308087 L20.7904545,11.5308087 C20.3104631,11.5308087 19.9177428,11.923529 19.9177428,12.4035204 L19.9177428,20.5488467 L15.9905402,20.5488467 L15.9905402,14.5852997 C15.9905402,14.1053082 15.5978199,13.712588 15.1178285,13.712588 L9.73617481,13.712588 C9.25618337,13.712588 8.86346311,14.1053082 8.86346311,14.5852997 L8.86346311,20.5488467 L4.64533946,20.5488467 L4.64533946,12.4035204 C4.64533946,11.923529 4.25261919,11.5308087 3.77262776,11.5308087 L3.01629474,11.5308087 L12.7324507,2.10552239 Z" id="Shape"></path>
            </g>
        </g>
    </g>
</svg>
