<?xml version="1.0" encoding="UTF-8"?>
<svg width="20px" height="20px" viewBox="0 0 20 20" version="1.1" xmlns="http://www.w3.org/2000/svg" xmlns:xlink="http://www.w3.org/1999/xlink">
    <!-- Generator: Sketch 52.6 (67491) - http://www.bohemiancoding.com/sketch -->
    <title>search</title>
    <desc>Created with Sketch.</desc>
    <g id="상조회사" stroke="none" stroke-width="1" fill="none" fill-rule="evenodd">
        <g id="main_01/subpage/notice_01" transform="translate(-1107.000000, -1347.000000)" fill="#FFFFFF" fill-rule="nonzero">
            <g id="search" transform="translate(1107.000000, 1347.000000)">
                <path d="M19.695,18.2059649 L14.8528571,13.2582456 C16.0978571,11.8042105 16.78,9.97473684 16.78,8.07017544 C16.78,3.62035088 13.095,0 8.56571429,0 C4.03642857,0 0.351428571,3.62035088 0.351428571,8.07017544 C0.351428571,12.52 4.03642857,16.1403509 8.56571429,16.1403509 C10.2660714,16.1403509 11.8864286,15.6364912 13.2717857,14.68 L18.1507143,19.6652632 C18.3546429,19.8733333 18.6289286,19.9880702 18.9228571,19.9880702 C19.2010714,19.9880702 19.465,19.8838596 19.6653571,19.694386 C20.0910714,19.2919298 20.1046429,18.6245614 19.695,18.2059649 Z M8.56571429,2.10526316 C11.9135714,2.10526316 14.6371429,4.78105263 14.6371429,8.07017544 C14.6371429,11.3592982 11.9135714,14.0350877 8.56571429,14.0350877 C5.21785714,14.0350877 2.49428571,11.3592982 2.49428571,8.07017544 C2.49428571,4.78105263 5.21785714,2.10526316 8.56571429,2.10526316 Z" id="Shape"></path>
            </g>
        </g>
    </g>
</svg>
