<?xml version="1.0" encoding="UTF-8"?>
<svg width="47px" height="36px" viewBox="0 0 47 36" version="1.1" xmlns="http://www.w3.org/2000/svg" xmlns:xlink="http://www.w3.org/1999/xlink">
    <!-- Generator: Sketch 52.6 (67491) - http://www.bohemiancoding.com/sketch -->
    <title>2</title>
    <desc>Created with Sketch.</desc>
    <g id="상조회사" stroke="none" stroke-width="1" fill="none" fill-rule="evenodd">
        <g id="main_01/section_03" transform="translate(-550.000000, -1427.000000)" fill="#035FC8" stroke="#035FC8">
            <g id="2-copy-2" transform="translate(548.000000, 1420.000000)">
                <g id="Group-83" transform="translate(3.000000, 8.000000)">
                    <g id="Group-82">
                        <path d="M15.7269375,32.83125 L29.20725,32.83125 L29.20725,1.64209375 L15.7269375,1.64209375 L15.7269375,32.83125 Z M29.826,34 L15.1081875,34 C14.7661875,34 14.4894375,33.7380937 14.4894375,33.415625 L14.4894375,1.0571875 C14.4894375,0.73471875 14.7661875,0.4728125 15.1081875,0.4728125 L29.826,0.4728125 C30.1674375,0.4728125 30.44475,0.73471875 30.44475,1.0571875 L30.44475,33.415625 C30.44475,33.7380937 30.1674375,34 29.826,34 Z" id="Fill-2"></path>
                        <path d="M3.8885625,32.83125 L14.4894375,32.83125 L14.4894375,8.50159375 L3.8885625,8.50159375 L3.8885625,32.83125 Z M15.1081875,34 L3.2698125,34 C2.928375,34 2.6510625,33.7380938 2.6510625,33.415625 L2.6510625,7.9166875 C2.6510625,7.59421875 2.928375,7.3323125 3.2698125,7.3323125 L15.1081875,7.3323125 C15.449625,7.3323125 15.7269375,7.59421875 15.7269375,7.9166875 L15.7269375,33.415625 C15.7269375,33.7380938 15.449625,34 15.1081875,34 Z" id="Fill-5"></path>
                        <path d="M30.44475,32.83125 L41.0450625,32.83125 L41.0450625,8.50159375 L30.44475,8.50159375 L30.44475,32.83125 Z M41.6638125,34 L29.826,34 C29.4845625,34 29.20725,33.7380938 29.20725,33.415625 L29.20725,7.9166875 C29.20725,7.59421875 29.4845625,7.3323125 29.826,7.3323125 L41.6638125,7.3323125 C42.0058125,7.3323125 42.2825625,7.59421875 42.2825625,7.9166875 L42.2825625,33.415625 C42.2825625,33.7380938 42.0058125,34 41.6638125,34 Z" id="Fill-7"></path>
                        <path d="M18.9925,5.80433125 L18.14875,5.80433125 C17.8073125,5.80433125 17.53,5.542425 17.53,5.21995625 C17.53,4.89695625 17.8073125,4.63558125 18.14875,4.63558125 L18.9925,4.63558125 C19.3339375,4.63558125 19.61125,4.89695625 19.61125,5.21995625 C19.61125,5.542425 19.3339375,5.80433125 18.9925,5.80433125" id="Fill-9" stroke-width="0.5"></path>
                        <path d="M23.1542437,5.80433125 L21.7800563,5.80433125 C21.4380562,5.80433125 21.1613063,5.542425 21.1613063,5.21995625 C21.1613063,4.89695625 21.4380562,4.63558125 21.7800563,4.63558125 L23.1542437,4.63558125 C23.4956812,4.63558125 23.7729937,4.89695625 23.7729937,5.21995625 C23.7729937,5.542425 23.4956812,5.80433125 23.1542437,5.80433125" id="Fill-10" stroke-width="0.5"></path>
                        <path d="M26.7925,5.80433125 L25.94875,5.80433125 C25.6073125,5.80433125 25.33,5.542425 25.33,5.21995625 C25.33,4.89695625 25.6073125,4.63558125 25.94875,4.63558125 L26.7925,4.63558125 C27.1339375,4.63558125 27.41125,4.89695625 27.41125,5.21995625 C27.41125,5.542425 27.1339375,5.80433125 26.7925,5.80433125" id="Fill-11" stroke-width="0.5"></path>
                        <path d="M18.9925,8.501275 L18.14875,8.501275 C17.8073125,8.501275 17.53,8.23936875 17.53,7.9169 C17.53,7.5939 17.8073125,7.332525 18.14875,7.332525 L18.9925,7.332525 C19.3339375,7.332525 19.61125,7.5939 19.61125,7.9169 C19.61125,8.23936875 19.3339375,8.501275 18.9925,8.501275" id="Fill-13" stroke-width="0.5"></path>
                        <path d="M23.1542437,8.501275 L21.7800563,8.501275 C21.4380562,8.501275 21.1613063,8.23936875 21.1613063,7.9169 C21.1613063,7.5939 21.4380562,7.332525 21.7800563,7.332525 L23.1542437,7.332525 C23.4956812,7.332525 23.7729937,7.5939 23.7729937,7.9169 C23.7729937,8.23936875 23.4956812,8.501275 23.1542437,8.501275" id="Fill-14" stroke-width="0.5"></path>
                        <path d="M26.7925,8.501275 L25.94875,8.501275 C25.6073125,8.501275 25.33,8.23936875 25.33,7.9169 C25.33,7.5939 25.6073125,7.332525 25.94875,7.332525 L26.7925,7.332525 C27.1339375,7.332525 27.41125,7.5939 27.41125,7.9169 C27.41125,8.23936875 27.1339375,8.501275 26.7925,8.501275" id="Fill-15" stroke-width="0.5"></path>
                        <path d="M18.9925,11.1985375 L18.14875,11.1985375 C17.8073125,11.1985375 17.53,10.9366312 17.53,10.6141625 C17.53,10.2911625 17.8073125,10.0297875 18.14875,10.0297875 L18.9925,10.0297875 C19.3339375,10.0297875 19.61125,10.2911625 19.61125,10.6141625 C19.61125,10.9366312 19.3339375,11.1985375 18.9925,11.1985375" id="Fill-17" stroke-width="0.5"></path>
                        <path d="M23.1542437,11.1985375 L21.7800563,11.1985375 C21.4380562,11.1985375 21.1613063,10.9366312 21.1613063,10.6141625 C21.1613063,10.2911625 21.4380562,10.0297875 21.7800563,10.0297875 L23.1542437,10.0297875 C23.4956812,10.0297875 23.7729937,10.2911625 23.7729937,10.6141625 C23.7729937,10.9366312 23.4956812,11.1985375 23.1542437,11.1985375" id="Fill-18" stroke-width="0.5"></path>
                        <path d="M26.7925,11.1985375 L25.94875,11.1985375 C25.6073125,11.1985375 25.33,10.9366312 25.33,10.6141625 C25.33,10.2911625 25.6073125,10.0297875 25.94875,10.0297875 L26.7925,10.0297875 C27.1339375,10.0297875 27.41125,10.2911625 27.41125,10.6141625 C27.41125,10.9366312 27.1339375,11.1985375 26.7925,11.1985375" id="Fill-19" stroke-width="0.5"></path>
                        <path d="M18.9925,13.8954813 L18.14875,13.8954813 C17.8073125,13.8954813 17.53,13.633575 17.53,13.3111062 C17.53,12.9881062 17.8073125,12.7267312 18.14875,12.7267312 L18.9925,12.7267312 C19.3339375,12.7267312 19.61125,12.9881062 19.61125,13.3111062 C19.61125,13.633575 19.3339375,13.8954813 18.9925,13.8954813" id="Fill-21" stroke-width="0.5"></path>
                        <path d="M23.1542437,13.8954813 L21.7800563,13.8954813 C21.4380562,13.8954813 21.1613063,13.633575 21.1613063,13.3111062 C21.1613063,12.9881062 21.4380562,12.7267312 21.7800563,12.7267312 L23.1542437,12.7267312 C23.4956812,12.7267312 23.7729937,12.9881062 23.7729937,13.3111062 C23.7729937,13.633575 23.4956812,13.8954813 23.1542437,13.8954813" id="Fill-22" stroke-width="0.5"></path>
                        <path d="M26.7925,13.8954813 L25.94875,13.8954813 C25.6073125,13.8954813 25.33,13.633575 25.33,13.3111062 C25.33,12.9881062 25.6073125,12.7267312 25.94875,12.7267312 L26.7925,12.7267312 C27.1339375,12.7267312 27.41125,12.9881062 27.41125,13.3111062 C27.41125,13.633575 27.1339375,13.8954813 26.7925,13.8954813" id="Fill-23" stroke-width="0.5"></path>
                        <path d="M7.576425,11.1985375 L6.732675,11.1985375 C6.3912375,11.1985375 6.113925,10.9366312 6.113925,10.6141625 C6.113925,10.2911625 6.3912375,10.0297875 6.732675,10.0297875 L7.576425,10.0297875 C7.9178625,10.0297875 8.195175,10.2911625 8.195175,10.6141625 C8.195175,10.9366312 7.9178625,11.1985375 7.576425,11.1985375" id="Fill-25" stroke-width="0.5"></path>
                        <path d="M11.6452125,11.1985375 L10.8014625,11.1985375 C10.460025,11.1985375 10.1827125,10.9366312 10.1827125,10.6141625 C10.1827125,10.2911625 10.460025,10.0297875 10.8014625,10.0297875 L11.6452125,10.0297875 C11.98665,10.0297875 12.2639625,10.2911625 12.2639625,10.6141625 C12.2639625,10.9366312 11.98665,11.1985375 11.6452125,11.1985375" id="Fill-26" stroke-width="0.5"></path>
                        <path d="M7.576425,13.8954813 L6.732675,13.8954813 C6.3912375,13.8954813 6.113925,13.633575 6.113925,13.3111062 C6.113925,12.9881062 6.3912375,12.7267312 6.732675,12.7267312 L7.576425,12.7267312 C7.9178625,12.7267312 8.195175,12.9881062 8.195175,13.3111062 C8.195175,13.633575 7.9178625,13.8954813 7.576425,13.8954813" id="Fill-28" stroke-width="0.5"></path>
                        <path d="M11.6452125,13.8954813 L10.8014625,13.8954813 C10.460025,13.8954813 10.1827125,13.633575 10.1827125,13.3111062 C10.1827125,12.9881062 10.460025,12.7267312 10.8014625,12.7267312 L11.6452125,12.7267312 C11.98665,12.7267312 12.2639625,12.9881062 12.2639625,13.3111062 C12.2639625,13.633575 11.98665,13.8954813 11.6452125,13.8954813" id="Fill-29" stroke-width="0.5"></path>
                        <path d="M7.576425,16.5927438 L6.732675,16.5927438 C6.3912375,16.5927438 6.113925,16.3308375 6.113925,16.0083687 C6.113925,15.6853687 6.3912375,15.4239937 6.732675,15.4239937 L7.576425,15.4239937 C7.9178625,15.4239937 8.195175,15.6853687 8.195175,16.0083687 C8.195175,16.3308375 7.9178625,16.5927438 7.576425,16.5927438" id="Fill-31" stroke-width="0.5"></path>
                        <path d="M11.6452125,16.5927438 L10.8014625,16.5927438 C10.460025,16.5927438 10.1827125,16.3308375 10.1827125,16.0083687 C10.1827125,15.6853687 10.460025,15.4239937 10.8014625,15.4239937 L11.6452125,15.4239937 C11.98665,15.4239937 12.2639625,15.6853687 12.2639625,16.0083687 C12.2639625,16.3308375 11.98665,16.5927438 11.6452125,16.5927438" id="Fill-32" stroke-width="0.5"></path>
                        <path d="M7.576425,19.2897406 L6.732675,19.2897406 C6.3912375,19.2897406 6.113925,19.0278344 6.113925,18.7053656 C6.113925,18.3823656 6.3912375,18.1209906 6.732675,18.1209906 L7.576425,18.1209906 C7.9178625,18.1209906 8.195175,18.3823656 8.195175,18.7053656 C8.195175,19.0278344 7.9178625,19.2897406 7.576425,19.2897406" id="Fill-34" stroke-width="0.5"></path>
                        <path d="M11.6452125,19.2897406 L10.8014625,19.2897406 C10.460025,19.2897406 10.1827125,19.0278344 10.1827125,18.7053656 C10.1827125,18.3823656 10.460025,18.1209906 10.8014625,18.1209906 L11.6452125,18.1209906 C11.98665,18.1209906 12.2639625,18.3823656 12.2639625,18.7053656 C12.2639625,19.0278344 11.98665,19.2897406 11.6452125,19.2897406" id="Fill-35" stroke-width="0.5"></path>
                        <path d="M7.576425,21.98695 L6.732675,21.98695 C6.3912375,21.98695 6.113925,21.7250438 6.113925,21.402575 C6.113925,21.079575 6.3912375,20.8182 6.732675,20.8182 L7.576425,20.8182 C7.9178625,20.8182 8.195175,21.079575 8.195175,21.402575 C8.195175,21.7250438 7.9178625,21.98695 7.576425,21.98695" id="Fill-37" stroke-width="0.5"></path>
                        <path d="M11.6452125,21.98695 L10.8014625,21.98695 C10.460025,21.98695 10.1827125,21.7250438 10.1827125,21.402575 C10.1827125,21.079575 10.460025,20.8182 10.8014625,20.8182 L11.6452125,20.8182 C11.98665,20.8182 12.2639625,21.079575 12.2639625,21.402575 C12.2639625,21.7250438 11.98665,21.98695 11.6452125,21.98695" id="Fill-38" stroke-width="0.5"></path>
                        <path d="M7.576425,24.6839469 L6.732675,24.6839469 C6.3912375,24.6839469 6.113925,24.4220406 6.113925,24.0995719 C6.113925,23.7765719 6.3912375,23.5151969 6.732675,23.5151969 L7.576425,23.5151969 C7.9178625,23.5151969 8.195175,23.7765719 8.195175,24.0995719 C8.195175,24.4220406 7.9178625,24.6839469 7.576425,24.6839469" id="Fill-40" stroke-width="0.5"></path>
                        <path d="M11.6452125,24.6839469 L10.8014625,24.6839469 C10.460025,24.6839469 10.1827125,24.4220406 10.1827125,24.0995719 C10.1827125,23.7765719 10.460025,23.5151969 10.8014625,23.5151969 L11.6452125,23.5151969 C11.98665,23.5151969 12.2639625,23.7765719 12.2639625,24.0995719 C12.2639625,24.4220406 11.98665,24.6839469 11.6452125,24.6839469" id="Fill-41" stroke-width="0.5"></path>
                        <path d="M7.576425,27.3811562 L6.732675,27.3811562 C6.3912375,27.3811562 6.113925,27.11925 6.113925,26.7967812 C6.113925,26.4737812 6.3912375,26.2124062 6.732675,26.2124062 L7.576425,26.2124062 C7.9178625,26.2124062 8.195175,26.4737812 8.195175,26.7967812 C8.195175,27.11925 7.9178625,27.3811562 7.576425,27.3811562" id="Fill-43" stroke-width="0.5"></path>
                        <path d="M11.6452125,27.3811562 L10.8014625,27.3811562 C10.460025,27.3811562 10.1827125,27.11925 10.1827125,26.7967812 C10.1827125,26.4737812 10.460025,26.2124062 10.8014625,26.2124062 L11.6452125,26.2124062 C11.98665,26.2124062 12.2639625,26.4737812 12.2639625,26.7967812 C12.2639625,27.11925 11.98665,27.3811562 11.6452125,27.3811562" id="Fill-44" stroke-width="0.5"></path>
                        <path d="M38.2014,11.1985375 L37.35765,11.1985375 C37.0162125,11.1985375 36.7389,10.9366312 36.7389,10.6141625 C36.7389,10.2911625 37.0162125,10.0297875 37.35765,10.0297875 L38.2014,10.0297875 C38.5428375,10.0297875 38.82015,10.2911625 38.82015,10.6141625 C38.82015,10.9366312 38.5428375,11.1985375 38.2014,11.1985375" id="Fill-46" stroke-width="0.5"></path>
                        <path d="M34.1323313,11.1985375 L33.2885813,11.1985375 C32.9471438,11.1985375 32.6698313,10.9366312 32.6698313,10.6141625 C32.6698313,10.2911625 32.9471438,10.0297875 33.2885813,10.0297875 L34.1323313,10.0297875 C34.4737688,10.0297875 34.7510813,10.2911625 34.7510813,10.6141625 C34.7510813,10.9366312 34.4737688,11.1985375 34.1323313,11.1985375" id="Fill-47" stroke-width="0.5"></path>
                        <path d="M38.2014,13.8954813 L37.35765,13.8954813 C37.0162125,13.8954813 36.7389,13.633575 36.7389,13.3111062 C36.7389,12.9881062 37.0162125,12.7267312 37.35765,12.7267312 L38.2014,12.7267312 C38.5428375,12.7267312 38.82015,12.9881062 38.82015,13.3111062 C38.82015,13.633575 38.5428375,13.8954813 38.2014,13.8954813" id="Fill-49" stroke-width="0.5"></path>
                        <path d="M34.1323313,13.8954813 L33.2885813,13.8954813 C32.9471438,13.8954813 32.6698313,13.633575 32.6698313,13.3111062 C32.6698313,12.9881062 32.9471438,12.7267312 33.2885813,12.7267312 L34.1323313,12.7267312 C34.4737688,12.7267312 34.7510813,12.9881062 34.7510813,13.3111062 C34.7510813,13.633575 34.4737688,13.8954813 34.1323313,13.8954813" id="Fill-50" stroke-width="0.5"></path>
                        <path d="M38.2014,16.5927438 L37.35765,16.5927438 C37.0162125,16.5927438 36.7389,16.3308375 36.7389,16.0083687 C36.7389,15.6853687 37.0162125,15.4239937 37.35765,15.4239937 L38.2014,15.4239937 C38.5428375,15.4239937 38.82015,15.6853687 38.82015,16.0083687 C38.82015,16.3308375 38.5428375,16.5927438 38.2014,16.5927438" id="Fill-52" stroke-width="0.5"></path>
                        <path d="M34.1323313,16.5927438 L33.2885813,16.5927438 C32.9471438,16.5927438 32.6698313,16.3308375 32.6698313,16.0083687 C32.6698313,15.6853687 32.9471438,15.4239937 33.2885813,15.4239937 L34.1323313,15.4239937 C34.4737688,15.4239937 34.7510813,15.6853687 34.7510813,16.0083687 C34.7510813,16.3308375 34.4737688,16.5927438 34.1323313,16.5927438" id="Fill-53" stroke-width="0.5"></path>
                        <path d="M38.2014,19.2897406 L37.35765,19.2897406 C37.0162125,19.2897406 36.7389,19.0278344 36.7389,18.7053656 C36.7389,18.3823656 37.0162125,18.1209906 37.35765,18.1209906 L38.2014,18.1209906 C38.5428375,18.1209906 38.82015,18.3823656 38.82015,18.7053656 C38.82015,19.0278344 38.5428375,19.2897406 38.2014,19.2897406" id="Fill-55" stroke-width="0.5"></path>
                        <path d="M34.1323313,19.2897406 L33.2885813,19.2897406 C32.9471438,19.2897406 32.6698313,19.0278344 32.6698313,18.7053656 C32.6698313,18.3823656 32.9471438,18.1209906 33.2885813,18.1209906 L34.1323313,18.1209906 C34.4737688,18.1209906 34.7510813,18.3823656 34.7510813,18.7053656 C34.7510813,19.0278344 34.4737688,19.2897406 34.1323313,19.2897406" id="Fill-56" stroke-width="0.5"></path>
                        <path d="M38.2014,21.98695 L37.35765,21.98695 C37.0162125,21.98695 36.7389,21.7250438 36.7389,21.402575 C36.7389,21.079575 37.0162125,20.8182 37.35765,20.8182 L38.2014,20.8182 C38.5428375,20.8182 38.82015,21.079575 38.82015,21.402575 C38.82015,21.7250438 38.5428375,21.98695 38.2014,21.98695" id="Fill-58" stroke-width="0.5"></path>
                        <path d="M34.1323313,21.98695 L33.2885813,21.98695 C32.9471438,21.98695 32.6698313,21.7250438 32.6698313,21.402575 C32.6698313,21.079575 32.9471438,20.8182 33.2885813,20.8182 L34.1323313,20.8182 C34.4737688,20.8182 34.7510813,21.079575 34.7510813,21.402575 C34.7510813,21.7250438 34.4737688,21.98695 34.1323313,21.98695" id="Fill-59" stroke-width="0.5"></path>
                        <path d="M38.2014,24.6839469 L37.35765,24.6839469 C37.0162125,24.6839469 36.7389,24.4220406 36.7389,24.0995719 C36.7389,23.7765719 37.0162125,23.5151969 37.35765,23.5151969 L38.2014,23.5151969 C38.5428375,23.5151969 38.82015,23.7765719 38.82015,24.0995719 C38.82015,24.4220406 38.5428375,24.6839469 38.2014,24.6839469" id="Fill-61" stroke-width="0.5"></path>
                        <path d="M34.1323313,24.6839469 L33.2885813,24.6839469 C32.9471438,24.6839469 32.6698313,24.4220406 32.6698313,24.0995719 C32.6698313,23.7765719 32.9471438,23.5151969 33.2885813,23.5151969 L34.1323313,23.5151969 C34.4737688,23.5151969 34.7510813,23.7765719 34.7510813,24.0995719 C34.7510813,24.4220406 34.4737688,24.6839469 34.1323313,24.6839469" id="Fill-62" stroke-width="0.5"></path>
                        <path d="M38.2014,27.3811562 L37.35765,27.3811562 C37.0162125,27.3811562 36.7389,27.11925 36.7389,26.7967812 C36.7389,26.4737812 37.0162125,26.2124062 37.35765,26.2124062 L38.2014,26.2124062 C38.5428375,26.2124062 38.82015,26.4737812 38.82015,26.7967812 C38.82015,27.11925 38.5428375,27.3811562 38.2014,27.3811562" id="Fill-64" stroke-width="0.5"></path>
                        <path d="M34.1323313,27.3811562 L33.2885813,27.3811562 C32.9471438,27.3811562 32.6698313,27.11925 32.6698313,26.7967812 C32.6698313,26.4737812 32.9471438,26.2124062 33.2885813,26.2124062 L34.1323313,26.2124062 C34.4737688,26.2124062 34.7510813,26.4737812 34.7510813,26.7967812 C34.7510813,27.11925 34.4737688,27.3811562 34.1323313,27.3811562" id="Fill-65" stroke-width="0.5"></path>
                        <path d="M18.9925,16.5927438 L18.14875,16.5927438 C17.8073125,16.5927438 17.53,16.3308375 17.53,16.0083687 C17.53,15.6853687 17.8073125,15.4239937 18.14875,15.4239937 L18.9925,15.4239937 C19.3339375,15.4239937 19.61125,15.6853687 19.61125,16.0083687 C19.61125,16.3308375 19.3339375,16.5927438 18.9925,16.5927438" id="Fill-67" stroke-width="0.5"></path>
                        <path d="M23.1542437,16.5927438 L21.7800563,16.5927438 C21.4380562,16.5927438 21.1613063,16.3308375 21.1613063,16.0083687 C21.1613063,15.6853687 21.4380562,15.4239937 21.7800563,15.4239937 L23.1542437,15.4239937 C23.4956812,15.4239937 23.7729937,15.6853687 23.7729937,16.0083687 C23.7729937,16.3308375 23.4956812,16.5927438 23.1542437,16.5927438" id="Fill-68" stroke-width="0.5"></path>
                        <path d="M26.7925,16.5927438 L25.94875,16.5927438 C25.6073125,16.5927438 25.33,16.3308375 25.33,16.0083687 C25.33,15.6853687 25.6073125,15.4239937 25.94875,15.4239937 L26.7925,15.4239937 C27.1339375,15.4239937 27.41125,15.6853687 27.41125,16.0083687 C27.41125,16.3308375 27.1339375,16.5927438 26.7925,16.5927438" id="Fill-69" stroke-width="0.5"></path>
                        <path d="M18.9925,19.2897406 L18.14875,19.2897406 C17.8073125,19.2897406 17.53,19.0278344 17.53,18.7053656 C17.53,18.3823656 17.8073125,18.1209906 18.14875,18.1209906 L18.9925,18.1209906 C19.3339375,18.1209906 19.61125,18.3823656 19.61125,18.7053656 C19.61125,19.0278344 19.3339375,19.2897406 18.9925,19.2897406" id="Fill-71" stroke-width="0.5"></path>
                        <path d="M23.1542437,19.2897406 L21.7800563,19.2897406 C21.4380562,19.2897406 21.1613063,19.0278344 21.1613063,18.7053656 C21.1613063,18.3823656 21.4380562,18.1209906 21.7800563,18.1209906 L23.1542437,18.1209906 C23.4956812,18.1209906 23.7729937,18.3823656 23.7729937,18.7053656 C23.7729937,19.0278344 23.4956812,19.2897406 23.1542437,19.2897406" id="Fill-72" stroke-width="0.5"></path>
                        <path d="M26.7925,19.2897406 L25.94875,19.2897406 C25.6073125,19.2897406 25.33,19.0278344 25.33,18.7053656 C25.33,18.3823656 25.6073125,18.1209906 25.94875,18.1209906 L26.7925,18.1209906 C27.1339375,18.1209906 27.41125,18.3823656 27.41125,18.7053656 C27.41125,19.0278344 27.1339375,19.2897406 26.7925,19.2897406" id="Fill-73" stroke-width="0.5"></path>
                        <path d="M18.9925,21.98695 L18.14875,21.98695 C17.8073125,21.98695 17.53,21.7250438 17.53,21.402575 C17.53,21.079575 17.8073125,20.8182 18.14875,20.8182 L18.9925,20.8182 C19.3339375,20.8182 19.61125,21.079575 19.61125,21.402575 C19.61125,21.7250438 19.3339375,21.98695 18.9925,21.98695" id="Fill-75" stroke-width="0.5"></path>
                        <path d="M23.1542437,21.98695 L21.7800563,21.98695 C21.4380562,21.98695 21.1613063,21.7250438 21.1613063,21.402575 C21.1613063,21.079575 21.4380562,20.8182 21.7800563,20.8182 L23.1542437,20.8182 C23.4956812,20.8182 23.7729937,21.079575 23.7729937,21.402575 C23.7729937,21.7250438 23.4956812,21.98695 23.1542437,21.98695" id="Fill-76" stroke-width="0.5"></path>
                        <path d="M26.7925,21.98695 L25.94875,21.98695 C25.6073125,21.98695 25.33,21.7250438 25.33,21.402575 C25.33,21.079575 25.6073125,20.8182 25.94875,20.8182 L26.7925,20.8182 C27.1339375,20.8182 27.41125,21.079575 27.41125,21.402575 C27.41125,21.7250438 27.1339375,21.98695 26.7925,21.98695" id="Fill-77" stroke-width="0.5"></path>
                        <path d="M21.3980625,32.83125 L23.536125,32.83125 L23.536125,28.349625 L21.3980625,28.349625 L21.3980625,32.83125 Z M24.154875,34 L20.7793125,34 C20.4373125,34 20.1605625,33.7380937 20.1605625,33.415625 L20.1605625,27.76525 C20.1605625,27.4427813 20.4373125,27.180875 20.7793125,27.180875 L24.154875,27.180875 C24.4963125,27.180875 24.773625,27.4427813 24.773625,27.76525 L24.773625,33.415625 C24.773625,33.7380937 24.4963125,34 24.154875,34 Z" id="Fill-79"></path>
                        <path d="M0.61880625,33.4155719 L44.3154937,33.4155719" id="Fill-80"></path>
                        <path d="M44.3152688,34 L0.61858125,34 C0.27714375,34 -0.00016875,33.7380938 -0.00016875,33.415625 C-0.00016875,33.092625 0.27714375,32.83125 0.61858125,32.83125 L44.3152688,32.83125 C44.6567062,32.83125 44.9340187,33.092625 44.9340187,33.415625 C44.9340187,33.7380938 44.6567062,34 44.3152688,34" id="Fill-81"></path>
                    </g>
                </g>
            </g>
        </g>
    </g>
</svg>
