<?xml version="1.0" encoding="UTF-8"?>
<svg width="47px" height="38px" viewBox="0 0 47 38" version="1.1" xmlns="http://www.w3.org/2000/svg" xmlns:xlink="http://www.w3.org/1999/xlink">
    <!-- Generator: Sketch 52.6 (67491) - http://www.bohemiancoding.com/sketch -->
    <title>2 copy</title>
    <desc>Created with Sketch.</desc>
    <g id="상조회사" stroke="none" stroke-width="1" fill="none" fill-rule="evenodd" stroke-linecap="round" stroke-linejoin="round">
        <g id="main_01" transform="translate(-572.000000, -3249.000000)" stroke="#FFD213">
            <g id="1" transform="translate(570.000000, 3243.000000)">
                <path d="M25.6874531,28.9417888 C25.9119101,29.2034684 26.0541406,29.3453102 26.0541406,29.3453102 C26.0541406,29.3453102 26.0344531,31.7377454 25.1707812,31.8761852 C23.5881997,32.1298591 19.544086,33.7330069 16.351089,36 L4,36 C4,31.8315 12.6078214,28.0299815 14.912933,27.6627407 C15.6285469,27.5487315 15.6448594,25.5784907 15.6448594,25.5784907 C15.6448594,25.5784907 13.5420357,23.4941759 13.0837969,20.6913889 C11.8509085,20.6913889 11.089529,17.7116574 12.3224821,16.6632778 C12.2711496,15.5596759 10.737904,8 18.5,8 C21.1741542,8 22.7450548,8.89727445 23.6533682,10.1186981 C21.1029311,12.9148797 22.0015214,17.5927429 22.044375,18.5196944 C20.565038,19.7852755 21.4645598,23.368696 22.9371339,23.4106015 C22.2013111,24.739614 21.3550112,25.5784907 21.3550112,25.5784907 C21.3550112,25.5784907 21.3713237,27.5487315 22.0869375,27.6627407 C22.8149913,27.778728 24.1717487,28.2372889 25.6874531,28.9417888 Z" id="Combined-Shape" stroke-width="3"></path>
                <g id="male" stroke-width="1" fill-rule="evenodd" transform="translate(12.000000, 8.000000)">
                    <path d="M21.8290625,23.8761852 C20.9653906,23.7377454 20.9457031,21.3453102 20.9457031,21.3453102 C20.9457031,21.3453102 23.4835156,18.8143565 24.0366406,15.4109722 C25.5245313,15.4109722 26.4435937,11.7927269 24.9553906,10.5196944 C25.0177344,9.17960648 26.8679688,0 17.5,0 C8.13195312,0 9.98242188,9.17960648 10.044375,10.5196944 C8.55632812,11.7927269 9.47523437,15.4109722 10.9632031,15.4109722 C11.51625,18.8143565 14.0541406,21.3453102 14.0541406,21.3453102 C14.0541406,21.3453102 14.0344531,23.7377454 13.1707812,23.8761852 C10.38875,24.3221204 0,28.93825 0,34 L17.5,34 L35,34 C35,28.93825 24.6111719,24.3221204 21.8290625,23.8761852 Z" id="Path" stroke-width="3"></path>
                </g>
            </g>
        </g>
    </g>
</svg>
