<svg id="share_icon" xmlns="http://www.w3.org/2000/svg" width="17" height="17" viewBox="0 0 17 17">
  <rect id="사각형_1" data-name="사각형 1" width="17" height="17" fill="#fff" opacity="0"/>
  <path id="Shape_con" d="M12.965,17a3.04,3.04,0,0,1-3.034-3.039,3.005,3.005,0,0,1,.176-1.013L5.449,10.339A3.042,3.042,0,1,1,5.441,6.65l4.656-2.6a2.936,2.936,0,0,1-.173-1.006,3.044,3.044,0,1,1,.627,1.846L5.892,7.491A2.966,2.966,0,0,1,6.065,8.5a3.016,3.016,0,0,1-.169,1l4.663,2.609A3.037,3.037,0,1,1,12.965,17Zm0-5.129a2.086,2.086,0,1,0,2.083,2.086A2.087,2.087,0,0,0,12.962,11.871ZM3.038,6.411A2.086,2.086,0,1,0,5.121,8.5,2.087,2.087,0,0,0,3.038,6.411ZM12.962.957a2.086,2.086,0,1,0,2.083,2.086A2.087,2.087,0,0,0,12.962.957Z" fill="#035fc8"/>
</svg>
