<?xml version="1.0" encoding="UTF-8"?>
<svg width="45px" height="45px" viewBox="0 0 45 45" version="1.1" xmlns="http://www.w3.org/2000/svg" xmlns:xlink="http://www.w3.org/1999/xlink">
    <!-- Generator: Sketch 52.6 (67491) - http://www.bohemiancoding.com/sketch -->
    <title>Group</title>
    <desc>Created with Sketch.</desc>
    <g id="상조회사" stroke="none" stroke-width="1" fill="none" fill-rule="evenodd">
        <g id="main_01/login_01/mypage_03" transform="translate(-685.000000, -1161.000000)">
            <g id="Group" transform="translate(685.000000, 1161.000000)">
                <rect id="Rectangle-Copy-9" fill="#931D1F" opacity="0.800000012" x="0" y="0" width="45" height="45" rx="22.5"></rect>
                <g id="icon/trash-copy" transform="translate(10.000000, 10.000000)" fill="#FFFFFF">
                    <g id="rubbish-bin-copy-2" transform="translate(4.000000, 2.000000)">
                        <path d="M16.4475588,2.59047331 L13.407,2.59047331 L13.407,0.681679576 C13.407,0.297465861 13.0862059,0 12.6885294,0 C12.6499412,0 12.6242059,0.0124453193 12.6116471,0.0248622245 C12.5987647,0.0124453193 12.5730294,0 12.5601765,0 L5.41408824,0 L5.36291176,0 L5.31144118,0 C4.91376471,0 4.60585294,0.297465861 4.60585294,0.681679576 L4.60585294,2.59050173 L1.55244118,2.59050173 C0.679882353,2.59050173 0,3.24731908 0,4.09027635 L0,5.18100345 L0,6.54433419 L1.34714706,6.54433419 L1.34714706,20.5126423 C1.34714706,21.355628 2.01417647,22 2.88673529,22 L15.1132941,22 C15.9858529,22 16.6657059,21.355628 16.6657059,20.5126423 L16.6657059,6.54433419 L18,6.54433419 L18,5.18100345 L18,4.09027635 C18,3.24731908 17.3198529,2.59047331 16.4475588,2.59047331 Z M6,1 L12,1 L12,2 L6,2 L6,1 Z M15,19.8768421 C15,19.9632474 14.9629056,20 14.876616,20 L3.12338401,20 C3.03709437,20 3,19.9632192 3,19.8768421 L3,6 L15,6 L15,19.8768421 Z M16,5 L2,5 L2,4.11118572 C2,4.04049642 2.03565467,4 2.11859524,4 L15.8813776,4 C15.9643453,4 16,4.04049642 16,4.11118572 L16,5 Z" id="Shape" fill-rule="nonzero"></path>
                        <rect id="Rectangle" x="12" y="7.5" width="2" height="11"></rect>
                        <rect id="Rectangle" x="8" y="7.5" width="2" height="11"></rect>
                        <rect id="Rectangle" x="4" y="7.5" width="2" height="11"></rect>
                    </g>
                </g>
            </g>
        </g>
    </g>
</svg>
