<?xml version="1.0" encoding="UTF-8"?>
<svg width="17px" height="21px" viewBox="0 0 17 21" version="1.1" xmlns="http://www.w3.org/2000/svg" xmlns:xlink="http://www.w3.org/1999/xlink">
    <!-- Generator: Sketch 52.6 (67491) - http://www.bohemiancoding.com/sketch -->
    <title>rubbish-bin copy</title>
    <desc>Created with Sketch.</desc>
    <g id="상조회사" stroke="none" stroke-width="1" fill="none" fill-rule="evenodd">
        <g id="main_01/login_01/mypage_03" transform="translate(-702.000000, -1107.000000)" fill="#035FC8">
            <g id="rubbish-bin-copy" transform="translate(702.000000, 1107.000000)">
                <path d="M15.5338056,2.47272453 L12.6621667,2.47272453 L12.6621667,0.65069414 C12.6621667,0.283944686 12.3591944,0 11.9836111,0 C11.9471667,0 11.9228611,0.0118796229 11.911,0.0237321234 C11.8988333,0.0118796229 11.8745278,0 11.8623889,0 L5.11330556,0 L5.06497222,0 L5.01636111,0 C4.64077778,0 4.34997222,0.283944686 4.34997222,0.65069414 L4.34997222,2.47275165 L1.46619444,2.47275165 C0.642111111,2.47275165 0,3.09971366 0,3.9043547 L0,4.9455033 L0,6.24686445 L1.27230556,6.24686445 L1.27230556,19.5802494 C1.27230556,20.3849176 1.90227778,21 2.72636111,21 L14.2736667,21 C15.09775,21 15.7398333,20.3849176 15.7398333,19.5802494 L15.7398333,6.24686445 L17,6.24686445 L17,4.9455033 L17,3.9043547 C17,3.09971366 16.3576389,2.47272453 15.5338056,2.47272453 Z M5.68277778,1.30136116 L11.3172222,1.30136116 L11.3172222,2.47272453 L5.68277778,2.47272453 L5.68277778,1.30136116 Z M14.3948889,19.5802766 C14.3948889,19.6632983 14.3584444,19.6986117 14.2736667,19.6986117 L2.72636111,19.6986117 C2.64158333,19.6986117 2.60513889,19.6632712 2.60513889,19.5802766 L2.60513889,6.24683733 L14.3948889,6.24683733 L14.3948889,19.5802766 Z M15.6550556,4.94547617 L1.34494444,4.94547617 L1.34494444,3.90432758 C1.34494444,3.82152281 1.38138889,3.77408568 1.46616667,3.77408568 L15.5338056,3.77408568 C15.6186111,3.77408568 15.6550556,3.82152281 15.6550556,3.90432758 L15.6550556,4.94547617 Z" id="Shape" fill-rule="nonzero"></path>
                <rect id="Rectangle" x="11" y="8" width="2" height="11"></rect>
                <rect id="Rectangle" x="8" y="8" width="2" height="11"></rect>
                <rect id="Rectangle" x="4" y="8" width="2" height="11"></rect>
            </g>
        </g>
    </g>
</svg>
