<?xml version="1.0" encoding="UTF-8"?>
<svg width="201px" height="50px" viewBox="0 0 201 50" version="1.1" xmlns="http://www.w3.org/2000/svg" xmlns:xlink="http://www.w3.org/1999/xlink">
    <!-- Generator: Sketch 52.6 (67491) - http://www.bohemiancoding.com/sketch -->
    <title>logo/test_logo copy 3</title>
    <desc>Created with Sketch.</desc>
    <g id="logo/test_logo-copy-3" stroke="none" stroke-width="1" fill="none" fill-rule="evenodd">
        <path d="M61.68,13.68 L64.62,13.68 L64.62,8.3 L67.26,8.3 L67.26,21.94 L64.62,21.94 L64.62,15.8 L61.68,15.8 L61.68,13.68 Z M62.92,17.72 L61.66,19.78 C59.6,19.18 58.18,17.94 57.34,16.36 C56.54,18.08 55.1,19.42 53.02,20.08 L51.74,18.02 C54.7,17.08 55.98,14.84 55.98,12.62 L55.98,12.54 L52.38,12.54 L52.38,10.48 L55.98,10.48 L55.98,8.44 L58.62,8.44 L58.62,10.48 L62.26,10.48 L62.26,12.54 L58.62,12.54 L58.62,12.62 C58.62,14.72 59.92,16.82 62.92,17.72 Z M57.76,24.3 L67.68,24.3 L67.68,26.4 L55.12,26.4 L55.12,20.8 L57.76,20.8 L57.76,24.3 Z M86.29,17.54 L79.25,17.54 L79.25,20.14 L84.37,20.14 L84.37,26.72 L81.71,26.72 L81.71,22.22 L71.29,22.22 L71.29,20.14 L76.61,20.14 L76.61,17.54 L69.61,17.54 L69.61,15.44 L81.33,15.44 C81.67,13.76 81.73,12.42 81.73,11.2 L71.67,11.2 L71.67,9.08 L84.33,9.08 L84.33,10.56 C84.33,11.94 84.33,13.48 83.97,15.44 L86.29,15.44 L86.29,17.54 Z M93.28,9.52 C96.16,9.52 98.36,11.42 98.36,14.06 C98.36,16.72 96.16,18.6 93.28,18.6 C90.4,18.6 88.22,16.72 88.22,14.06 C88.22,11.42 90.4,9.52 93.28,9.52 Z M93.28,11.78 C91.86,11.78 90.78,12.62 90.78,14.06 C90.78,15.5 91.86,16.34 93.28,16.34 C94.7,16.34 95.78,15.5 95.78,14.06 C95.78,12.62 94.7,11.78 93.28,11.78 Z M100.08,8.28 L102.72,8.28 L102.72,26.76 L100.08,26.76 L100.08,8.28 Z M87.78,23.02 L87.44,20.88 C90.68,20.88 95.2,20.86 99.08,20.28 L99.24,22.18 C95.28,22.98 90.96,23.02 87.78,23.02 Z M118.56,13.16 L118.56,8.7 L121.02,8.7 L121.02,25.92 L118.56,25.92 L118.56,19.88 L116,19.88 L116,17.76 L118.56,17.76 L118.56,15.26 L116.34,15.26 C115.52,18.3 113.68,20.86 110.24,22.9 L108.74,21.06 C112.38,18.84 113.98,16.18 114.32,12.58 L109.78,12.58 L109.78,10.48 L116.94,10.48 C116.94,11.42 116.88,12.3 116.78,13.16 L118.56,13.16 Z M122.34,8.28 L124.84,8.28 L124.84,26.72 L122.34,26.72 L122.34,8.28 Z M137.17,15.94 L137.43,18.02 C135.17,18.52 133.07,18.62 128.99,18.62 L127.45,18.62 L127.45,9.76 L135.69,9.76 L135.69,11.86 L130.07,11.86 L130.07,16.5 C133.35,16.48 135.17,16.36 137.17,15.94 Z M132.01,20.22 L132.01,24.3 L141.91,24.3 L141.91,26.4 L129.37,26.4 L129.37,20.22 L132.01,20.22 Z M141.25,13.32 L143.69,13.32 L143.69,15.48 L141.25,15.48 L141.25,21.62 L138.61,21.62 L138.61,8.3 L141.25,8.3 L141.25,13.32 Z" id="천국의-계단" fill="#FFFFFF"></path>
        <circle id="Oval" fill="#006FFF" cx="20" cy="28" r="4"></circle>
        <rect id="Rectangle" stroke="#006FFF" x="6.5" y="4.5" width="7" height="10"></rect>
        <path d="M40,33 L33,33 L27,33 L27,21 L15,21 L15,15 L33,15 L33,21 L33,27 L46,27 L46,33 L46,40 L60,40 L60,46 L46,46 L40,46 L40,33 Z" id="Combined-Shape" fill="#006FFF"></path>
        <path d="M17,36 L37,36 C37,41.5228475 32.5228475,46 27,46 C21.4771525,46 17,41.5228475 17,36 Z" id="Combined-Shape" fill="#006FFF"></path>
        <path d="M72.288,39.208 L71.82,39.976 C70.596,39.58 69.672,38.728 69.216,37.66 C68.76,38.884 67.788,39.844 66.504,40.3 L66,39.52 C67.62,38.956 68.7,37.564 68.7,36.016 L68.7,35.596 L66.288,35.596 L66.288,34.804 L72.06,34.804 L72.06,35.596 L69.684,35.596 L69.684,36.016 C69.684,37.42 70.704,38.68 72.288,39.208 Z M70.98,43.972 C72.564,43.972 73.536,43.528 73.536,42.76 C73.536,42.004 72.564,41.56 70.98,41.56 C69.372,41.56 68.412,42.004 68.412,42.76 C68.412,43.528 69.372,43.972 70.98,43.972 Z M70.98,40.78 C73.164,40.78 74.52,41.512 74.52,42.76 C74.52,44.02 73.164,44.752 70.98,44.752 C68.772,44.752 67.428,44.02 67.428,42.76 C67.428,41.512 68.772,40.78 70.98,40.78 Z M74.4,36.724 L75.996,36.724 L75.996,37.552 L74.4,37.552 L74.4,40.504 L73.416,40.504 L73.416,34.012 L74.4,34.012 L74.4,36.724 Z M77.746,38.932 L77.746,41.344 C78.886,41.332 79.966,41.284 81.262,41.056 L81.346,41.872 C79.894,42.112 78.754,42.16 77.482,42.16 L76.798,42.16 L76.798,38.14 L79.546,38.14 L79.546,35.98 L76.762,35.98 L76.762,35.176 L80.494,35.176 L80.494,38.932 L77.746,38.932 Z M82.498,36.808 L82.498,34.204 L83.422,34.204 L83.422,44.224 L82.498,44.224 L82.498,40.288 L81.094,40.288 L81.094,39.484 L82.498,39.484 L82.498,37.612 L81.094,37.612 L81.094,36.808 L82.498,36.808 Z M84.634,34 L85.582,34 L85.582,44.764 L84.634,44.764 L84.634,34 Z M92.192,42.616 L96.596,42.616 L96.596,43.432 L86.816,43.432 L86.816,42.616 L91.208,42.616 L91.208,40.396 L88.076,40.396 L88.076,34.876 L95.372,34.876 L95.372,35.68 L89.072,35.68 L89.072,37.192 L95.132,37.192 L95.132,37.972 L89.072,37.972 L89.072,39.592 L95.48,39.592 L95.48,40.396 L92.192,40.396 L92.192,42.616 Z M103.35,38.188 L103.458,38.968 C101.982,39.208 100.758,39.244 98.5260001,39.244 L97.7100001,39.244 L97.7100001,34.54 L102.63,34.54 L102.63,35.32 L98.6940001,35.32 L98.6940001,36.472 L102.438,36.472 L102.438,37.228 L98.6940001,37.228 L98.6940001,38.464 C100.794,38.464 101.946,38.416 103.35,38.188 Z M99.7260001,42.676 L99.7260001,43.876 L105.966,43.876 L105.966,44.644 L98.7660001,44.644 L98.7660001,41.944 L104.598,41.944 L104.598,40.912 L98.7300001,40.912 L98.7300001,40.144 L105.57,40.144 L105.57,42.676 L99.7260001,42.676 Z M105.57,36.352 L107.166,36.352 L107.166,37.156 L105.57,37.156 L105.57,39.628 L104.586,39.628 L104.586,34.012 L105.57,34.012 L105.57,36.352 Z M111.376,34.924 L111.376,36.856 C111.376,38.812 112.6,40.768 114.16,41.512 L113.584,42.292 C112.36,41.68 111.376,40.396 110.884,38.884 C110.416,40.48 109.42,41.836 108.208,42.484 L107.608,41.704 C109.168,40.924 110.392,38.848 110.392,36.856 L110.392,34.924 L111.376,34.924 Z M115.492,34 L116.476,34 L116.476,44.776 L115.492,44.776 L115.492,38.452 L112.996,38.452 L112.996,37.648 L115.492,37.648 L115.492,34 Z M125.822,34 L126.806,34 L126.806,44.776 L125.822,44.776 L125.822,34 Z M118.61,34.912 L119.582,34.912 L119.582,37.756 L122.702,37.756 L122.702,34.912 L123.674,34.912 L123.674,42.172 L118.61,42.172 L118.61,34.912 Z M119.582,38.536 L119.582,41.368 L122.702,41.368 L122.702,38.536 L119.582,38.536 Z M137.664,39.412 L137.22,40.228 C135.588,39.856 133.908,38.704 133.224,37.12 C132.54,38.692 130.86,39.844 129.24,40.228 L128.796,39.412 C130.68,39.04 132.708,37.42 132.708,35.584 L132.708,34.756 L133.74,34.756 L133.74,35.584 C133.74,37.42 135.78,39.052 137.664,39.412 Z M128.388,42.508 L138.144,42.508 L138.144,43.324 L128.388,43.324 L128.388,42.508 Z" id="장례토탈서비스" fill="#006FFF"></path>
        <path d="M152.156,35.296 L152.156,36.088 L143.504,36.088 L143.504,35.296 L147.368,35.296 L147.368,34 L148.364,34 L148.364,35.296 L152.156,35.296 Z M150.332,38.5 C150.332,37.84 149.444,37.456 147.872,37.456 C146.3,37.456 145.388,37.84 145.388,38.5 C145.388,39.16 146.3,39.544 147.872,39.544 C149.444,39.544 150.332,39.16 150.332,38.5 Z M144.368,38.5 C144.368,37.348 145.676,36.7 147.872,36.7 C150.044,36.7 151.352,37.348 151.352,38.5 C151.352,39.652 150.044,40.288 147.872,40.288 C145.676,40.288 144.368,39.652 144.368,38.5 Z M152.756,41.044 L152.756,41.848 L148.364,41.848 L148.364,44.836 L147.368,44.836 L147.368,41.848 L143,41.848 L143,41.044 L152.756,41.044 Z M160.878,37.024 L160.878,35.992 L155.646,35.992 L155.646,37.024 L160.878,37.024 Z M161.85,34.228 L161.85,37.78 L154.674,37.78 L154.674,34.228 L155.646,34.228 L155.646,35.248 L160.878,35.248 L160.878,34.228 L161.85,34.228 Z M163.122,39.448 L158.742,39.448 L158.742,40.504 L161.874,40.504 L161.874,42.904 L155.55,42.904 L155.55,43.948 L162.198,43.948 L162.198,44.704 L154.59,44.704 L154.59,42.184 L160.902,42.184 L160.902,41.248 L154.554,41.248 L154.554,40.504 L157.758,40.504 L157.758,39.448 L153.378,39.448 L153.378,38.656 L163.122,38.656 L163.122,39.448 Z M166.936,36.124 L166.936,37.096 C166.936,38.968 167.74,40.84 169.228,41.68 L168.628,42.4 C167.584,41.776 166.84,40.624 166.468,39.256 C166.096,40.732 165.316,41.992 164.248,42.664 L163.648,41.932 C165.148,41.032 165.988,39.076 165.988,37.096 L165.988,36.124 L163.948,36.124 L163.948,35.32 L168.856,35.32 L168.856,36.124 L166.936,36.124 Z M169.816,37.924 L169.816,34.3 L170.752,34.3 L170.752,44.26 L169.816,44.26 L169.816,38.728 L168.04,38.728 L168.04,37.924 L169.816,37.924 Z M171.976,34.048 L172.924,34.048 L172.924,44.812 L171.976,44.812 L171.976,34.048 Z M180.386,39.124 L179.87,39.892 C178.706,39.46 177.782,38.572 177.302,37.468 C176.858,38.728 175.898,39.712 174.638,40.192 L174.122,39.412 C175.754,38.824 176.798,37.36 176.798,35.716 L176.798,34.612 L177.782,34.612 L177.782,35.8 C177.782,37.252 178.838,38.596 180.386,39.124 Z M179.102,44.044 C180.686,44.044 181.658,43.6 181.658,42.856 C181.658,42.1 180.686,41.656 179.102,41.656 C177.506,41.656 176.534,42.1 176.534,42.856 C176.534,43.6 177.506,44.044 179.102,44.044 Z M179.102,40.888 C181.286,40.888 182.642,41.596 182.642,42.856 C182.642,44.104 181.286,44.812 179.102,44.812 C176.906,44.812 175.55,44.104 175.55,42.856 C175.55,41.596 176.906,40.888 179.102,40.888 Z M182.522,36.844 L184.118,36.844 L184.118,37.66 L182.522,37.66 L182.522,40.588 L181.538,40.588 L181.538,34.072 L182.522,34.072 L182.522,36.844 Z M185.448,40.408 L185.028,39.604 C186.888,39.292 188.928,37.792 188.928,36.076 L188.928,35.848 L185.364,35.848 L185.364,35.044 L193.512,35.044 L193.512,35.848 L189.948,35.848 L189.948,36.076 C189.948,37.792 192,39.268 193.872,39.568 L193.476,40.36 C191.832,40.036 190.128,38.98 189.444,37.504 C188.76,38.992 187.068,40.06 185.448,40.408 Z M189.936,42.628 L194.328,42.628 L194.328,43.444 L184.56,43.444 L184.56,42.628 L188.952,42.628 L188.952,40.024 L189.936,40.024 L189.936,42.628 Z" id="후불제상조" fill="#FFFFFF"></path>
    </g>
</svg>
