<?xml version="1.0" encoding="UTF-8"?>
<svg width="201px" height="50px" viewBox="0 0 201 50" version="1.1" xmlns="http://www.w3.org/2000/svg" xmlns:xlink="http://www.w3.org/1999/xlink">
    <!-- Generator: Sketch 52.6 (67491) - http://www.bohemiancoding.com/sketch -->
    <title>logo/test_logo</title>
    <desc>Created with Sketch.</desc>
    <g id="logo/test_logo" stroke="none" stroke-width="1" fill="none" fill-rule="evenodd">
        <text id="천국의-계단" font-family="NotoSansCJKkr-Bold, Noto Sans CJK KR" font-size="20" font-weight="bold" line-spacing="20" letter-spacing="-0.649999976" fill="#035FC8">
            <tspan x="51" y="30">천국의 계</tspan>
            <tspan x="125.89" y="30">단</tspan>
        </text>
        <text id="장례토탈서비스-후불제상조" font-family="NotoSansCJKkr-Medium, Noto Sans CJK KR" font-size="12" font-weight="400" line-spacing="12" letter-spacing="-0.649999976" fill="#035FC8">
            <tspan x="65" y="48">장례토탈서비스  후불제상조</tspan>
        </text>
        <circle id="Oval" fill="#006FFF" cx="20" cy="28" r="4"></circle>
        <rect id="Rectangle" stroke="#006FFF" x="6.5" y="4.5" width="7" height="10"></rect>
        <path d="M40,33 L33,33 L27,33 L27,21 L15,21 L15,15 L33,15 L33,21 L33,27 L46,27 L46,33 L46,40 L60,40 L60,46 L46,46 L40,46 L40,33 Z" id="Combined-Shape" fill="#006FFF"></path>
        <path d="M17,36 L37,36 C37,41.5228475 32.5228475,46 27,46 C21.4771525,46 17,41.5228475 17,36 Z" id="Combined-Shape" fill="#006FFF"></path>
    </g>
</svg>
